G04 #@! TF.GenerationSoftware,KiCad,Pcbnew,(5.0.0-3-g5ebb6b6)*
G04 #@! TF.CreationDate,2019-02-10T22:35:18+03:00*
G04 #@! TF.ProjectId,mad,6D61642E6B696361645F706362000000,rev?*
G04 #@! TF.SameCoordinates,Original*
G04 #@! TF.FileFunction,Copper,L1,Top,Signal*
G04 #@! TF.FilePolarity,Positive*
%FSLAX46Y46*%
G04 Gerber Fmt 4.6, Leading zero omitted, Abs format (unit mm)*
G04 Created by KiCad (PCBNEW (5.0.0-3-g5ebb6b6)) date *
%MOMM*%
%LPD*%
G01*
G04 APERTURE LIST*
G04 #@! TA.AperFunction,ComponentPad*
%ADD10R,1.700000X1.700000*%
G04 #@! TD*
G04 #@! TA.AperFunction,SMDPad,CuDef*
%ADD11R,1.473200X0.609600*%
G04 #@! TD*
G04 #@! TA.AperFunction,SMDPad,CuDef*
%ADD12R,0.550000X1.500000*%
G04 #@! TD*
G04 #@! TA.AperFunction,SMDPad,CuDef*
%ADD13R,1.500000X0.550000*%
G04 #@! TD*
G04 #@! TA.AperFunction,SMDPad,CuDef*
%ADD14R,1.000000X1.500000*%
G04 #@! TD*
G04 #@! TA.AperFunction,SMDPad,CuDef*
%ADD15R,0.750000X1.500000*%
G04 #@! TD*
G04 #@! TA.AperFunction,SMDPad,CuDef*
%ADD16R,1.100000X0.800000*%
G04 #@! TD*
G04 #@! TA.AperFunction,SMDPad,CuDef*
%ADD17R,0.800000X1.100000*%
G04 #@! TD*
G04 #@! TA.AperFunction,ComponentPad*
%ADD18C,1.700000*%
G04 #@! TD*
G04 #@! TA.AperFunction,ViaPad*
%ADD19C,0.800000*%
G04 #@! TD*
G04 #@! TA.AperFunction,Conductor*
%ADD20C,0.250000*%
G04 #@! TD*
G04 APERTURE END LIST*
D10*
G04 #@! TO.P,X4,8*
G04 #@! TO.N,/RS_B*
X60970000Y-44000000D03*
G04 #@! TO.P,X4,7*
G04 #@! TO.N,/RS_A*
X63510000Y-44000000D03*
G04 #@! TO.P,X4,6*
G04 #@! TO.N,/EN*
X66050000Y-44000000D03*
G04 #@! TO.P,X4,5*
G04 #@! TO.N,/TX*
X68590000Y-44000000D03*
G04 #@! TO.P,X4,4*
G04 #@! TO.N,/RX*
X71130000Y-44000000D03*
G04 #@! TO.P,X4,3*
G04 #@! TO.N,/PC5*
X73670000Y-44000000D03*
G04 #@! TO.P,X4,2*
G04 #@! TO.N,/PC4*
X76210000Y-44000000D03*
G04 #@! TO.P,X4,1*
G04 #@! TO.N,/PC3*
X78750000Y-44000000D03*
G04 #@! TD*
D11*
G04 #@! TO.P,DD2,8*
G04 #@! TO.N,/VCC*
X58912000Y-56500000D03*
G04 #@! TO.P,DD2,7*
G04 #@! TO.N,/RS_B*
X58912000Y-55230000D03*
G04 #@! TO.P,DD2,6*
G04 #@! TO.N,/RS_A*
X58912000Y-53960000D03*
G04 #@! TO.P,DD2,5*
G04 #@! TO.N,/GND*
X58912000Y-52690000D03*
G04 #@! TO.P,DD2,4*
G04 #@! TO.N,/TX*
X64500000Y-52690000D03*
G04 #@! TO.P,DD2,3*
G04 #@! TO.N,/EN*
X64500000Y-53960000D03*
G04 #@! TO.P,DD2,2*
X64500000Y-55230000D03*
G04 #@! TO.P,DD2,1*
G04 #@! TO.N,/RX*
X64500000Y-56500000D03*
G04 #@! TD*
D12*
G04 #@! TO.P,DD1,32*
G04 #@! TO.N,/EN*
X67700000Y-56750000D03*
G04 #@! TO.P,DD1,31*
G04 #@! TO.N,/TX*
X68500000Y-56750000D03*
G04 #@! TO.P,DD1,30*
G04 #@! TO.N,/RX*
X69300000Y-56750000D03*
G04 #@! TO.P,DD1,29*
G04 #@! TO.N,/RES*
X70100000Y-56750000D03*
G04 #@! TO.P,DD1,28*
G04 #@! TO.N,/PC5*
X70900000Y-56750000D03*
G04 #@! TO.P,DD1,27*
G04 #@! TO.N,/PC4*
X71700000Y-56750000D03*
G04 #@! TO.P,DD1,26*
G04 #@! TO.N,/PC3*
X72500000Y-56750000D03*
G04 #@! TO.P,DD1,25*
G04 #@! TO.N,/PC2*
X73300000Y-56750000D03*
D13*
G04 #@! TO.P,DD1,24*
G04 #@! TO.N,/PC1*
X75000000Y-58500000D03*
G04 #@! TO.P,DD1,23*
G04 #@! TO.N,/PC0*
X75000000Y-59300000D03*
G04 #@! TO.P,DD1,22*
G04 #@! TO.N,/ADC7*
X75000000Y-60100000D03*
G04 #@! TO.P,DD1,21*
G04 #@! TO.N,/A_GND*
X75000000Y-60900000D03*
G04 #@! TO.P,DD1,20*
G04 #@! TO.N,/AREF*
X75000000Y-61700000D03*
G04 #@! TO.P,DD1,19*
G04 #@! TO.N,/ADC6*
X75000000Y-62500000D03*
G04 #@! TO.P,DD1,18*
G04 #@! TO.N,/A_VCC*
X75000000Y-63300000D03*
G04 #@! TO.P,DD1,17*
G04 #@! TO.N,/SCK*
X75000000Y-64100000D03*
D12*
G04 #@! TO.P,DD1,16*
G04 #@! TO.N,/MISO*
X73300000Y-65800000D03*
G04 #@! TO.P,DD1,15*
G04 #@! TO.N,/MOSI*
X72500000Y-65800000D03*
G04 #@! TO.P,DD1,14*
G04 #@! TO.N,/PB2*
X71700000Y-65800000D03*
G04 #@! TO.P,DD1,13*
G04 #@! TO.N,/PB1*
X70900000Y-65800000D03*
G04 #@! TO.P,DD1,12*
G04 #@! TO.N,/PB0*
X70100000Y-65800000D03*
G04 #@! TO.P,DD1,11*
G04 #@! TO.N,/PD7*
X69300000Y-65800000D03*
G04 #@! TO.P,DD1,10*
G04 #@! TO.N,/PD6*
X68500000Y-65800000D03*
G04 #@! TO.P,DD1,9*
G04 #@! TO.N,/PD5*
X67700000Y-65800000D03*
D13*
G04 #@! TO.P,DD1,8*
G04 #@! TO.N,/PB7*
X66000000Y-64100000D03*
G04 #@! TO.P,DD1,7*
G04 #@! TO.N,/PB6*
X66000000Y-63300000D03*
G04 #@! TO.P,DD1,6*
G04 #@! TO.N,/VCC*
X66000000Y-62500000D03*
G04 #@! TO.P,DD1,5*
G04 #@! TO.N,/GND*
X66000000Y-61700000D03*
G04 #@! TO.P,DD1,4*
G04 #@! TO.N,/VCC*
X66000000Y-60900000D03*
G04 #@! TO.P,DD1,3*
G04 #@! TO.N,/GND*
X66000000Y-60100000D03*
G04 #@! TO.P,DD1,2*
G04 #@! TO.N,/PD4*
X66000000Y-59300000D03*
G04 #@! TO.P,DD1,1*
G04 #@! TO.N,/PD3*
X66000000Y-58500000D03*
G04 #@! TD*
D14*
G04 #@! TO.P,C1,2*
G04 #@! TO.N,/VCC*
X62750000Y-60250000D03*
G04 #@! TO.P,C1,1*
G04 #@! TO.N,/GND*
X60750000Y-60250000D03*
G04 #@! TD*
G04 #@! TO.P,C2,1*
G04 #@! TO.N,/GND*
X60750000Y-62500000D03*
G04 #@! TO.P,C2,2*
G04 #@! TO.N,/VCC*
X62750000Y-62500000D03*
G04 #@! TD*
G04 #@! TO.P,C3,2*
G04 #@! TO.N,/VCC*
X61500000Y-50500000D03*
G04 #@! TO.P,C3,1*
G04 #@! TO.N,/GND*
X59500000Y-50500000D03*
G04 #@! TD*
G04 #@! TO.P,C4,1*
G04 #@! TO.N,/GND*
X80500000Y-61750000D03*
G04 #@! TO.P,C4,2*
G04 #@! TO.N,/AREF*
X78500000Y-61750000D03*
G04 #@! TD*
D15*
G04 #@! TO.P,C5,1*
G04 #@! TO.N,/GND*
X62250000Y-65750000D03*
G04 #@! TO.P,C5,2*
G04 #@! TO.N,/PB6*
X60750000Y-65750000D03*
G04 #@! TD*
G04 #@! TO.P,C6,2*
G04 #@! TO.N,/PB7*
X60750000Y-68000000D03*
G04 #@! TO.P,C6,1*
G04 #@! TO.N,/GND*
X62250000Y-68000000D03*
G04 #@! TD*
D14*
G04 #@! TO.P,L1,1*
G04 #@! TO.N,/A_VCC*
X78500000Y-64000000D03*
G04 #@! TO.P,L1,2*
G04 #@! TO.N,/VCC*
X80500000Y-64000000D03*
G04 #@! TD*
G04 #@! TO.P,L2,2*
G04 #@! TO.N,/GND*
X80500000Y-59500000D03*
G04 #@! TO.P,L2,1*
G04 #@! TO.N,/A_GND*
X78500000Y-59500000D03*
G04 #@! TD*
G04 #@! TO.P,R1,1*
G04 #@! TO.N,/EN*
X55500000Y-53000000D03*
G04 #@! TO.P,R1,2*
G04 #@! TO.N,/GND*
X53500000Y-53000000D03*
G04 #@! TD*
G04 #@! TO.P,R2,2*
G04 #@! TO.N,/VCC*
X82000000Y-69000000D03*
G04 #@! TO.P,R2,1*
G04 #@! TO.N,/RES*
X84000000Y-69000000D03*
G04 #@! TD*
D16*
G04 #@! TO.P,VD1,1*
G04 #@! TO.N,/VCC_IN*
X55000000Y-61000000D03*
X55000000Y-62900000D03*
G04 #@! TO.P,VD1,2*
G04 #@! TO.N,/VCC*
X57200000Y-61950000D03*
G04 #@! TD*
D17*
G04 #@! TO.P,VD2,2*
G04 #@! TO.N,/VCC*
X77300000Y-67400000D03*
G04 #@! TO.P,VD2,1*
G04 #@! TO.N,/VCC_prog*
X78250000Y-69600000D03*
X76350000Y-69600000D03*
G04 #@! TD*
D18*
G04 #@! TO.P,XP1,1*
G04 #@! TO.N,/MISO*
X78250000Y-74500000D03*
D10*
G04 #@! TO.P,XP1,3*
G04 #@! TO.N,/SCK*
X80790000Y-74500000D03*
G04 #@! TO.P,XP1,5*
G04 #@! TO.N,/RES*
X83330000Y-74500000D03*
G04 #@! TO.P,XP1,2*
G04 #@! TO.N,/VCC_prog*
X78250000Y-71960000D03*
G04 #@! TO.P,XP1,4*
G04 #@! TO.N,/MOSI*
X80790000Y-71960000D03*
G04 #@! TO.P,XP1,6*
G04 #@! TO.N,/GND*
X83330000Y-71960000D03*
G04 #@! TD*
D18*
G04 #@! TO.P,XP2,1*
G04 #@! TO.N,/PD3*
X52250000Y-56000000D03*
D10*
G04 #@! TO.P,XP2,2*
G04 #@! TO.N,/PD4*
X52250000Y-58540000D03*
G04 #@! TO.P,XP2,3*
G04 #@! TO.N,/VCC_IN*
X52250000Y-61080000D03*
G04 #@! TO.P,XP2,4*
G04 #@! TO.N,/GND*
X52250000Y-63620000D03*
G04 #@! TO.P,XP2,5*
G04 #@! TO.N,/PB6*
X52250000Y-66160000D03*
G04 #@! TO.P,XP2,6*
G04 #@! TO.N,/PB7*
X52250000Y-68700000D03*
G04 #@! TD*
G04 #@! TO.P,XP3,6*
G04 #@! TO.N,/PB2*
X72450000Y-74500000D03*
G04 #@! TO.P,XP3,5*
G04 #@! TO.N,/PB1*
X69910000Y-74500000D03*
G04 #@! TO.P,XP3,4*
G04 #@! TO.N,/PB0*
X67370000Y-74500000D03*
G04 #@! TO.P,XP3,3*
G04 #@! TO.N,/PD7*
X64830000Y-74500000D03*
G04 #@! TO.P,XP3,2*
G04 #@! TO.N,/PD6*
X62290000Y-74500000D03*
D18*
G04 #@! TO.P,XP3,1*
G04 #@! TO.N,/PD5*
X59750000Y-74500000D03*
G04 #@! TD*
D10*
G04 #@! TO.P,XP4,6*
G04 #@! TO.N,/PC2*
X86250000Y-52300000D03*
G04 #@! TO.P,XP4,5*
G04 #@! TO.N,/PC1*
X86250000Y-54840000D03*
G04 #@! TO.P,XP4,4*
G04 #@! TO.N,/PC0*
X86250000Y-57380000D03*
G04 #@! TO.P,XP4,3*
G04 #@! TO.N,/ADC7*
X86250000Y-59920000D03*
G04 #@! TO.P,XP4,2*
G04 #@! TO.N,/AREF*
X86250000Y-62460000D03*
D18*
G04 #@! TO.P,XP4,1*
G04 #@! TO.N,/ADC6*
X86250000Y-65000000D03*
G04 #@! TD*
G04 #@! TO.P,XP5,1*
G04 #@! TO.N,/PC3*
X78750000Y-46500000D03*
D10*
G04 #@! TO.P,XP5,2*
G04 #@! TO.N,/PC4*
X76210000Y-46500000D03*
G04 #@! TO.P,XP5,3*
G04 #@! TO.N,/PC5*
X73670000Y-46500000D03*
G04 #@! TO.P,XP5,4*
G04 #@! TO.N,/RX*
X71130000Y-46500000D03*
G04 #@! TO.P,XP5,5*
G04 #@! TO.N,/TX*
X68590000Y-46500000D03*
G04 #@! TO.P,XP5,6*
G04 #@! TO.N,/EN*
X66050000Y-46500000D03*
G04 #@! TD*
G04 #@! TO.P,X1,1*
G04 #@! TO.N,/PD3*
X49750000Y-56000000D03*
G04 #@! TO.P,X1,2*
G04 #@! TO.N,/PD4*
X49750000Y-58540000D03*
G04 #@! TO.P,X1,3*
G04 #@! TO.N,/VCC_IN*
X49750000Y-61080000D03*
G04 #@! TO.P,X1,4*
G04 #@! TO.N,/GND*
X49750000Y-63620000D03*
G04 #@! TO.P,X1,5*
G04 #@! TO.N,/PB6*
X49750000Y-66160000D03*
G04 #@! TO.P,X1,6*
G04 #@! TO.N,/PB7*
X49750000Y-68700000D03*
G04 #@! TD*
G04 #@! TO.P,X2,6*
G04 #@! TO.N,/PB2*
X72450000Y-77000000D03*
G04 #@! TO.P,X2,5*
G04 #@! TO.N,/PB1*
X69910000Y-77000000D03*
G04 #@! TO.P,X2,4*
G04 #@! TO.N,/PB0*
X67370000Y-77000000D03*
G04 #@! TO.P,X2,3*
G04 #@! TO.N,/PD7*
X64830000Y-77000000D03*
G04 #@! TO.P,X2,2*
G04 #@! TO.N,/PD6*
X62290000Y-77000000D03*
G04 #@! TO.P,X2,1*
G04 #@! TO.N,/PD5*
X59750000Y-77000000D03*
G04 #@! TD*
G04 #@! TO.P,X3,1*
G04 #@! TO.N,/ADC6*
X88750000Y-65000000D03*
G04 #@! TO.P,X3,2*
G04 #@! TO.N,/AREF*
X88750000Y-62460000D03*
G04 #@! TO.P,X3,3*
G04 #@! TO.N,/ADC7*
X88750000Y-59920000D03*
G04 #@! TO.P,X3,4*
G04 #@! TO.N,/PC0*
X88750000Y-57380000D03*
G04 #@! TO.P,X3,5*
G04 #@! TO.N,/PC1*
X88750000Y-54840000D03*
G04 #@! TO.P,X3,6*
G04 #@! TO.N,/PC2*
X88750000Y-52300000D03*
G04 #@! TD*
D18*
G04 #@! TO.P,XT1,1*
G04 #@! TO.N,/RS_A*
X56500000Y-48250000D03*
D10*
G04 #@! TO.P,XT1,2*
G04 #@! TO.N,/RS_B*
X53960000Y-48250000D03*
G04 #@! TD*
D19*
G04 #@! TO.N,/VCC*
X57250000Y-57250000D03*
X75750000Y-66000000D03*
X58250000Y-60500000D03*
G04 #@! TO.N,/GND*
X60500000Y-52750000D03*
X57750000Y-63250000D03*
X83000000Y-60750000D03*
X83250000Y-63000000D03*
X68000000Y-61000000D03*
X64250000Y-64500000D03*
G04 #@! TO.N,/MISO*
X73500000Y-69750000D03*
X74737347Y-74262653D03*
G04 #@! TO.N,/SCK*
X75015152Y-69984848D03*
G04 #@! TO.N,/RES*
X74275000Y-69000000D03*
X80250000Y-69500000D03*
G04 #@! TO.N,/EN*
X63000000Y-55250000D03*
X57250000Y-56250000D03*
G04 #@! TO.N,/GND*
X53500000Y-50750000D03*
G04 #@! TD*
D20*
G04 #@! TO.N,/VCC*
X63676998Y-60250000D02*
X62750000Y-60250000D01*
X64326998Y-60900000D02*
X63676998Y-60250000D01*
X66000000Y-60900000D02*
X64326998Y-60900000D01*
X66000000Y-62500000D02*
X62750000Y-62500000D01*
X60750000Y-56500000D02*
X61500000Y-55750000D01*
X58912000Y-56500000D02*
X60750000Y-56500000D01*
X61500000Y-50500000D02*
X61500000Y-53000000D01*
X61500000Y-55750000D02*
X61500000Y-53000000D01*
X77300000Y-66600000D02*
X77900000Y-66000000D01*
X77300000Y-67400000D02*
X77300000Y-66600000D01*
X77900000Y-66000000D02*
X79750000Y-66000000D01*
X76700000Y-66000000D02*
X76950000Y-66250000D01*
X77300000Y-66600000D02*
X76950000Y-66250000D01*
X75750000Y-66000000D02*
X76700000Y-66000000D01*
X58912000Y-57054800D02*
X58912000Y-56500000D01*
X58716800Y-57250000D02*
X58912000Y-57054800D01*
X57250000Y-57250000D02*
X58716800Y-57250000D01*
X80000000Y-66000000D02*
X79750000Y-66000000D01*
X80500000Y-65500000D02*
X80000000Y-66000000D01*
X80500000Y-65500000D02*
X81000000Y-66000000D01*
X80500000Y-64000000D02*
X80500000Y-65500000D01*
X81500000Y-66000000D02*
X81000000Y-66000000D01*
X82000000Y-66500000D02*
X81500000Y-66000000D01*
X82000000Y-69000000D02*
X82000000Y-66500000D01*
X59750000Y-59000000D02*
X58250000Y-60500000D01*
X62500000Y-59000000D02*
X59750000Y-59000000D01*
X62750000Y-59250000D02*
X62500000Y-59000000D01*
X62750000Y-60250000D02*
X62750000Y-59250000D01*
X62750000Y-63500000D02*
X62750000Y-62500000D01*
X62250000Y-64000000D02*
X62750000Y-63500000D01*
X57000000Y-63750000D02*
X57250000Y-64000000D01*
X57000000Y-62800000D02*
X57000000Y-63750000D01*
X57200000Y-61950000D02*
X57200000Y-62600000D01*
X57250000Y-64000000D02*
X62250000Y-64000000D01*
X57200000Y-62600000D02*
X57000000Y-62800000D01*
X57200000Y-61950000D02*
X57200000Y-61050000D01*
X57200000Y-61050000D02*
X57750000Y-60500000D01*
X57750000Y-60500000D02*
X58250000Y-60500000D01*
G04 #@! TO.N,/GND*
X60440000Y-52690000D02*
X60500000Y-52750000D01*
X58912000Y-52690000D02*
X60440000Y-52690000D01*
X60750000Y-60250000D02*
X59500000Y-60250000D01*
X59500000Y-60250000D02*
X59000000Y-60750000D01*
X59000000Y-62000000D02*
X58250000Y-62750000D01*
X59000000Y-60750000D02*
X59000000Y-61250000D01*
X58250000Y-62750000D02*
X57750000Y-63250000D01*
X59000000Y-62000000D02*
X59500000Y-62500000D01*
X59000000Y-61500000D02*
X59000000Y-62000000D01*
X59000000Y-61250000D02*
X59000000Y-61500000D01*
X60750000Y-62500000D02*
X59500000Y-62500000D01*
X60500000Y-52000000D02*
X60500000Y-52750000D01*
X59500000Y-50500000D02*
X59500000Y-51500000D01*
X59500000Y-51500000D02*
X59750000Y-51750000D01*
X60250000Y-51750000D02*
X60500000Y-52000000D01*
X59750000Y-51750000D02*
X60250000Y-51750000D01*
X81863590Y-59500000D02*
X83000000Y-60636410D01*
X83000000Y-60636410D02*
X83000000Y-60750000D01*
X80250000Y-59500000D02*
X81863590Y-59500000D01*
G04 #@! TO.N,/VCC_IN*
X51400000Y-61080000D02*
X50175010Y-61080000D01*
X52500000Y-61080000D02*
X51400000Y-61080000D01*
G04 #@! TO.N,/GND*
X66000000Y-61700000D02*
X67800000Y-61700000D01*
X67800000Y-61700000D02*
X68000000Y-61500000D01*
X68000000Y-61500000D02*
X68000000Y-61000000D01*
X66000000Y-60100000D02*
X67850000Y-60100000D01*
X68000000Y-60250000D02*
X68000000Y-61000000D01*
X67850000Y-60100000D02*
X68000000Y-60250000D01*
X63250000Y-68000000D02*
X63750000Y-67500000D01*
X62250000Y-68000000D02*
X63250000Y-68000000D01*
X63000000Y-65750000D02*
X64250000Y-64500000D01*
X62250000Y-65750000D02*
X63000000Y-65750000D01*
X64250000Y-67000000D02*
X63750000Y-67500000D01*
X64250000Y-64500000D02*
X64250000Y-67000000D01*
X80500000Y-61750000D02*
X81250000Y-61750000D01*
X81250000Y-61750000D02*
X82500000Y-63000000D01*
X83250000Y-63000000D02*
X82500000Y-63000000D01*
G04 #@! TO.N,/AREF*
X78424999Y-60575001D02*
X78250000Y-60750000D01*
X78250000Y-60750000D02*
X78250000Y-61750000D01*
X81500000Y-60575001D02*
X78424999Y-60575001D01*
X82424999Y-61500000D02*
X81500000Y-60575001D01*
X83000000Y-61500000D02*
X82424999Y-61500000D01*
X84460000Y-62460000D02*
X83500000Y-61500000D01*
X86000000Y-62460000D02*
X84460000Y-62460000D01*
X83500000Y-61500000D02*
X83000000Y-61500000D01*
X87100000Y-62460000D02*
X88324990Y-62460000D01*
X86000000Y-62460000D02*
X87100000Y-62460000D01*
X78450000Y-61700000D02*
X78500000Y-61750000D01*
X75000000Y-61700000D02*
X78450000Y-61700000D01*
G04 #@! TO.N,/PB6*
X52500000Y-66160000D02*
X58840000Y-66160000D01*
X63950000Y-63300000D02*
X66000000Y-63300000D01*
X62750000Y-64500000D02*
X63950000Y-63300000D01*
X60750000Y-64750000D02*
X61000000Y-64500000D01*
X61000000Y-64500000D02*
X62750000Y-64500000D01*
X60750000Y-65750000D02*
X60750000Y-64750000D01*
X59250000Y-65750000D02*
X59000000Y-66000000D01*
X60750000Y-65750000D02*
X59250000Y-65750000D01*
X58840000Y-66160000D02*
X59000000Y-66000000D01*
X51400000Y-66160000D02*
X50175010Y-66160000D01*
X52500000Y-66160000D02*
X51400000Y-66160000D01*
G04 #@! TO.N,/PB7*
X52500000Y-68700000D02*
X58800000Y-68700000D01*
X60125000Y-68000000D02*
X59500000Y-68000000D01*
X60750000Y-68000000D02*
X60125000Y-68000000D01*
X58800000Y-68700000D02*
X59500000Y-68000000D01*
X51400000Y-68700000D02*
X50175010Y-68700000D01*
X52500000Y-68700000D02*
X51400000Y-68700000D01*
X60750000Y-69250000D02*
X60750000Y-68000000D01*
X61000000Y-69500000D02*
X60750000Y-69250000D01*
X63250000Y-69500000D02*
X61000000Y-69500000D01*
X66000000Y-66750000D02*
X63250000Y-69500000D01*
X66000000Y-64100000D02*
X66000000Y-66750000D01*
G04 #@! TO.N,/MOSI*
X80790000Y-73060000D02*
X80790000Y-71960000D01*
X80600000Y-73250000D02*
X80790000Y-73060000D01*
X75573002Y-73250000D02*
X80600000Y-73250000D01*
X72500000Y-70176998D02*
X75573002Y-73250000D01*
X72500000Y-65800000D02*
X72500000Y-70176998D01*
G04 #@! TO.N,/MISO*
X73300000Y-69550000D02*
X73500000Y-69750000D01*
X73300000Y-65800000D02*
X73300000Y-69550000D01*
X74974694Y-74500000D02*
X74737347Y-74262653D01*
X78250000Y-74500000D02*
X74974694Y-74500000D01*
G04 #@! TO.N,/SCK*
X75000000Y-69969696D02*
X75015152Y-69984848D01*
X75000000Y-64100000D02*
X75000000Y-69969696D01*
G04 #@! TO.N,/A_VCC*
X76050000Y-63300000D02*
X75000000Y-63300000D01*
X76750000Y-64000000D02*
X76050000Y-63300000D01*
X78500000Y-64000000D02*
X76750000Y-64000000D01*
G04 #@! TO.N,/ADC6*
X76250000Y-62500000D02*
X75000000Y-62500000D01*
X76674999Y-62924999D02*
X76250000Y-62500000D01*
X81538589Y-62924999D02*
X76674999Y-62924999D01*
X83613590Y-65000000D02*
X81538589Y-62924999D01*
X86000000Y-65000000D02*
X83613590Y-65000000D01*
X87202081Y-65000000D02*
X88324990Y-65000000D01*
X86000000Y-65000000D02*
X87202081Y-65000000D01*
G04 #@! TO.N,/A_GND*
X75000000Y-60900000D02*
X76100000Y-60900000D01*
X76100000Y-60900000D02*
X77500000Y-59500000D01*
X77750000Y-59500000D02*
X78500000Y-59500000D01*
X77500000Y-59500000D02*
X77750000Y-59500000D01*
X77750000Y-59500000D02*
X78250000Y-59500000D01*
G04 #@! TO.N,/ADC7*
X86000000Y-59920000D02*
X88324990Y-59920000D01*
G04 #@! TO.N,/PC0*
X86000000Y-57380000D02*
X88324990Y-57380000D01*
G04 #@! TO.N,/PC1*
X86000000Y-54840000D02*
X88324990Y-54840000D01*
G04 #@! TO.N,/PC2*
X84900000Y-52300000D02*
X86000000Y-52300000D01*
X73300000Y-55750000D02*
X76750000Y-52300000D01*
X76750000Y-52300000D02*
X84900000Y-52300000D01*
X73300000Y-56750000D02*
X73300000Y-55750000D01*
X87100000Y-52300000D02*
X88324990Y-52300000D01*
X86000000Y-52300000D02*
X87100000Y-52300000D01*
G04 #@! TO.N,/PC3*
X72500000Y-55750000D02*
X78500000Y-49750000D01*
X78750000Y-46500000D02*
X78750000Y-44425010D01*
G04 #@! TO.N,/PC4*
X76210000Y-46500000D02*
X76210000Y-44425010D01*
G04 #@! TO.N,/PC5*
X73670000Y-46500000D02*
X73670000Y-44425010D01*
G04 #@! TO.N,/RES*
X70100000Y-56750000D02*
X70100000Y-60850000D01*
X74275000Y-65025000D02*
X74275000Y-69000000D01*
X70100000Y-60850000D02*
X74275000Y-65025000D01*
X84430000Y-74500000D02*
X83330000Y-74500000D01*
X85000000Y-73930000D02*
X84430000Y-74500000D01*
X84750000Y-69000000D02*
X85000000Y-69250000D01*
X84000000Y-69000000D02*
X84750000Y-69000000D01*
X85000000Y-71250000D02*
X85000000Y-70750000D01*
X85000000Y-71250000D02*
X85000000Y-73930000D01*
X85000000Y-70750000D02*
X84750000Y-70500000D01*
X81250000Y-70500000D02*
X80250000Y-69500000D01*
X84750000Y-70500000D02*
X85000000Y-70250000D01*
X84000000Y-70500000D02*
X84750000Y-70500000D01*
X84000000Y-70500000D02*
X81250000Y-70500000D01*
X85000000Y-69250000D02*
X85000000Y-70250000D01*
G04 #@! TO.N,/RX*
X69300000Y-57750000D02*
X69300000Y-56750000D01*
X69050000Y-58000000D02*
X69300000Y-57750000D01*
X65486600Y-56500000D02*
X66986600Y-58000000D01*
X66986600Y-58000000D02*
X69050000Y-58000000D01*
X64500000Y-56500000D02*
X65486600Y-56500000D01*
X69300000Y-55750000D02*
X69300000Y-56750000D01*
X71130000Y-46500000D02*
X71130000Y-44425010D01*
X70500000Y-54550000D02*
X69300000Y-55750000D01*
X71130000Y-53920000D02*
X70500000Y-54550000D01*
X71130000Y-46500000D02*
X71130000Y-53920000D01*
G04 #@! TO.N,/TX*
X68500000Y-55703400D02*
X68500000Y-55750000D01*
X65486600Y-52690000D02*
X68500000Y-55703400D01*
X68500000Y-55750000D02*
X68500000Y-56750000D01*
X64500000Y-52690000D02*
X65486600Y-52690000D01*
X65750000Y-52426600D02*
X66340000Y-51836600D01*
X65486600Y-52690000D02*
X65750000Y-52426600D01*
X68590000Y-45400000D02*
X68590000Y-44425010D01*
X68590000Y-46500000D02*
X68590000Y-45400000D01*
X68590000Y-49586600D02*
X67176600Y-51000000D01*
X68590000Y-46500000D02*
X68590000Y-49586600D01*
X67176600Y-51000000D02*
X65750000Y-52426600D01*
X68340000Y-49836600D02*
X67176600Y-51000000D01*
G04 #@! TO.N,/EN*
X67700000Y-56750000D02*
X67700000Y-55700000D01*
X67700000Y-55700000D02*
X67230000Y-55230000D01*
X65486600Y-53960000D02*
X66000000Y-54473400D01*
X64500000Y-53960000D02*
X65486600Y-53960000D01*
X66000000Y-54473400D02*
X66000000Y-55000000D01*
X65770000Y-55230000D02*
X66000000Y-55000000D01*
X65500000Y-55230000D02*
X65770000Y-55230000D01*
X65500000Y-55230000D02*
X64500000Y-55230000D01*
X66500000Y-55230000D02*
X66230000Y-55230000D01*
X67230000Y-55230000D02*
X66500000Y-55230000D01*
X66230000Y-55230000D02*
X66000000Y-55000000D01*
X63020000Y-55230000D02*
X63000000Y-55250000D01*
X64500000Y-55230000D02*
X63020000Y-55230000D01*
X63513400Y-53960000D02*
X63000000Y-53446600D01*
X64500000Y-53960000D02*
X63513400Y-53960000D01*
X63000000Y-53446600D02*
X63000000Y-51750000D01*
X66050000Y-45400000D02*
X66050000Y-44425010D01*
X66050000Y-46500000D02*
X66050000Y-45400000D01*
X63000000Y-50650000D02*
X63000000Y-51000000D01*
X66050000Y-46500000D02*
X66050000Y-47600000D01*
X63000000Y-51000000D02*
X63000000Y-51750000D01*
X66050000Y-47600000D02*
X63000000Y-50650000D01*
X55500000Y-54500000D02*
X57250000Y-56250000D01*
X55500000Y-53000000D02*
X55500000Y-54500000D01*
G04 #@! TO.N,/RS_B*
X60970000Y-45280000D02*
X60970000Y-44425010D01*
X60000000Y-46250000D02*
X60970000Y-45280000D01*
X59500000Y-46250000D02*
X60000000Y-46250000D01*
X59500000Y-46250000D02*
X59750000Y-46250000D01*
G04 #@! TO.N,/GND*
X52500000Y-63620000D02*
X50175010Y-63620000D01*
X53500000Y-51250000D02*
X53500000Y-53000000D01*
X53500000Y-50750000D02*
X53500000Y-51250000D01*
G04 #@! TO.N,/RS_A*
X63510000Y-45240000D02*
X63510000Y-44425010D01*
X60500000Y-48250000D02*
X63510000Y-45240000D01*
X56500000Y-48250000D02*
X60500000Y-48250000D01*
X56500000Y-49452081D02*
X56500000Y-48250000D01*
X57250000Y-53284600D02*
X57250000Y-52003590D01*
X57925400Y-53960000D02*
X57250000Y-53284600D01*
X56500000Y-51253590D02*
X56500000Y-49452081D01*
X57250000Y-52003590D02*
X56500000Y-51253590D01*
X58912000Y-53960000D02*
X57925400Y-53960000D01*
G04 #@! TO.N,/RS_B*
X53960000Y-47150000D02*
X54860000Y-46250000D01*
X53960000Y-48250000D02*
X53960000Y-47150000D01*
X55500000Y-46250000D02*
X59500000Y-46250000D01*
X54860000Y-46250000D02*
X55500000Y-46250000D01*
X53960000Y-49350000D02*
X53960000Y-48250000D01*
X56750000Y-54054600D02*
X56750000Y-52140000D01*
X56750000Y-52140000D02*
X53960000Y-49350000D01*
X57925400Y-55230000D02*
X56750000Y-54054600D01*
X58912000Y-55230000D02*
X57925400Y-55230000D01*
G04 #@! TO.N,/VCC_IN*
X55000000Y-62900000D02*
X54150000Y-62900000D01*
X54150000Y-62900000D02*
X54000000Y-62750000D01*
X54000000Y-61200000D02*
X54000000Y-61250000D01*
X55000000Y-61000000D02*
X54200000Y-61000000D01*
X54000000Y-62750000D02*
X54000000Y-61500000D01*
X54000000Y-61500000D02*
X54000000Y-61250000D01*
X53600000Y-61080000D02*
X52500000Y-61080000D01*
X53830000Y-61080000D02*
X53600000Y-61080000D01*
X54000000Y-61250000D02*
X53830000Y-61080000D01*
X54000000Y-61200000D02*
X54200000Y-61000000D01*
X54000000Y-61500000D02*
X54000000Y-61200000D01*
G04 #@! TO.N,/VCC_prog*
X78250000Y-71960000D02*
X78250000Y-69600000D01*
X76350000Y-71160000D02*
X76350000Y-70400000D01*
X76350000Y-70400000D02*
X76350000Y-69600000D01*
X77150000Y-71960000D02*
X76350000Y-71160000D01*
X78250000Y-71960000D02*
X77150000Y-71960000D01*
G04 #@! TO.N,/PD5*
X59750000Y-74500000D02*
X59750000Y-76574990D01*
X67700000Y-66550000D02*
X67700000Y-65800000D01*
X59750000Y-74500000D02*
X67700000Y-66550000D01*
G04 #@! TO.N,/PD6*
X68500000Y-65800000D02*
X68500000Y-66800000D01*
X62290000Y-74500000D02*
X62290000Y-76574990D01*
X62290000Y-74500000D02*
X62290000Y-73010000D01*
X62750000Y-72550000D02*
X62540000Y-72760000D01*
X62290000Y-73010000D02*
X62750000Y-72550000D01*
X68500000Y-66800000D02*
X62750000Y-72550000D01*
G04 #@! TO.N,/PD7*
X64830000Y-73400000D02*
X64830000Y-74500000D01*
X69300000Y-65800000D02*
X69300000Y-66800000D01*
X64830000Y-75600000D02*
X64830000Y-76574990D01*
X64830000Y-74500000D02*
X64830000Y-75600000D01*
X64830000Y-71270000D02*
X65350000Y-70750000D01*
X64830000Y-74500000D02*
X64830000Y-71270000D01*
X69300000Y-66800000D02*
X65350000Y-70750000D01*
G04 #@! TO.N,/PB0*
X70100000Y-65800000D02*
X70100000Y-67000000D01*
X67370000Y-74500000D02*
X67370000Y-76574990D01*
X67370000Y-74500000D02*
X67370000Y-69730000D01*
X68000000Y-69100000D02*
X70100000Y-67000000D01*
X67370000Y-69730000D02*
X68000000Y-69100000D01*
G04 #@! TO.N,/PB1*
X70900000Y-65800000D02*
X70900000Y-66836410D01*
X69910000Y-75600000D02*
X69910000Y-76574990D01*
X69910000Y-74500000D02*
X69910000Y-75600000D01*
X69910000Y-67826410D02*
X70486410Y-67250000D01*
X69910000Y-74500000D02*
X69910000Y-67826410D01*
X70900000Y-66836410D02*
X70486410Y-67250000D01*
G04 #@! TO.N,/PB2*
X72450000Y-74500000D02*
X72450000Y-76574990D01*
X72450000Y-74500000D02*
X72450000Y-73000000D01*
X72450000Y-73000000D02*
X71700000Y-72250000D01*
X71700000Y-72250000D02*
X71700000Y-65800000D01*
G04 #@! TO.N,/PD4*
X53600000Y-58540000D02*
X52500000Y-58540000D01*
X64240000Y-58540000D02*
X53600000Y-58540000D01*
X65000000Y-59300000D02*
X64240000Y-58540000D01*
X66000000Y-59300000D02*
X65000000Y-59300000D01*
X52500000Y-58540000D02*
X50175010Y-58540000D01*
G04 #@! TO.N,/PD3*
X65000000Y-58500000D02*
X64500000Y-58000000D01*
X66000000Y-58500000D02*
X65000000Y-58500000D01*
X54500000Y-58000000D02*
X52500000Y-56000000D01*
X64500000Y-58000000D02*
X54500000Y-58000000D01*
X52500000Y-56000000D02*
X50175010Y-56000000D01*
G04 #@! TO.N,/PC5*
X73670000Y-52980000D02*
X73670000Y-47600000D01*
X73670000Y-47600000D02*
X73670000Y-46500000D01*
X70900000Y-55750000D02*
X73670000Y-52980000D01*
X70900000Y-56750000D02*
X70900000Y-55750000D01*
G04 #@! TO.N,/PC4*
X76210000Y-47600000D02*
X76210000Y-46500000D01*
X71700000Y-55586410D02*
X76210000Y-51076410D01*
X76210000Y-51076410D02*
X76210000Y-47600000D01*
X71700000Y-56750000D02*
X71700000Y-55586410D01*
G04 #@! TO.N,/PC3*
X78750000Y-49500000D02*
X78750000Y-48750000D01*
X72500000Y-56750000D02*
X72500000Y-55750000D01*
X78750000Y-48750000D02*
X78750000Y-46500000D01*
X72500000Y-55750000D02*
X78750000Y-49500000D01*
G04 #@! TO.N,/PC1*
X76000000Y-58500000D02*
X75000000Y-58500000D01*
X76477180Y-58500000D02*
X76000000Y-58500000D01*
X80137180Y-54840000D02*
X76477180Y-58500000D01*
X86000000Y-54840000D02*
X80137180Y-54840000D01*
G04 #@! TO.N,/PC0*
X78233590Y-57380000D02*
X78250000Y-57380000D01*
X76313590Y-59300000D02*
X78233590Y-57380000D01*
X75000000Y-59300000D02*
X76313590Y-59300000D01*
X86000000Y-57380000D02*
X78250000Y-57380000D01*
G04 #@! TO.N,/ADC7*
X84420000Y-59920000D02*
X86000000Y-59920000D01*
X82750000Y-58250000D02*
X84420000Y-59920000D01*
X78000000Y-58250000D02*
X82750000Y-58250000D01*
X76150000Y-60100000D02*
X78000000Y-58250000D01*
X75000000Y-60100000D02*
X76150000Y-60100000D01*
G04 #@! TD*
M02*
