G04 #@! TF.GenerationSoftware,KiCad,Pcbnew,(5.0.0-3-g5ebb6b6)*
G04 #@! TF.CreationDate,2019-02-10T22:35:18+03:00*
G04 #@! TF.ProjectId,mad,6D61642E6B696361645F706362000000,rev?*
G04 #@! TF.SameCoordinates,Original*
G04 #@! TF.FileFunction,Copper,L2,Bot,Signal*
G04 #@! TF.FilePolarity,Positive*
%FSLAX46Y46*%
G04 Gerber Fmt 4.6, Leading zero omitted, Abs format (unit mm)*
G04 Created by KiCad (PCBNEW (5.0.0-3-g5ebb6b6)) date *
%MOMM*%
%LPD*%
G01*
G04 APERTURE LIST*
G04 #@! TA.AperFunction,NonConductor*
%ADD10C,0.250000*%
G04 #@! TD*
G04 #@! TA.AperFunction,ComponentPad*
%ADD11R,1.700000X1.700000*%
G04 #@! TD*
G04 #@! TA.AperFunction,ComponentPad*
%ADD12C,1.700000*%
G04 #@! TD*
G04 #@! TA.AperFunction,ViaPad*
%ADD13C,0.800000*%
G04 #@! TD*
G04 #@! TA.AperFunction,Conductor*
%ADD14C,0.250000*%
G04 #@! TD*
G04 APERTURE END LIST*
D10*
X56661904Y-75588095D02*
X56661904Y-74721428D01*
X56661904Y-74845238D02*
X56600000Y-74783333D01*
X56476190Y-74721428D01*
X56290476Y-74721428D01*
X56166666Y-74783333D01*
X56104761Y-74907142D01*
X56104761Y-75588095D01*
X56104761Y-74907142D02*
X56042857Y-74783333D01*
X55919047Y-74721428D01*
X55733333Y-74721428D01*
X55609523Y-74783333D01*
X55547619Y-74907142D01*
X55547619Y-75588095D01*
X54371428Y-75588095D02*
X54371428Y-74907142D01*
X54433333Y-74783333D01*
X54557142Y-74721428D01*
X54804761Y-74721428D01*
X54928571Y-74783333D01*
X54371428Y-75526190D02*
X54495238Y-75588095D01*
X54804761Y-75588095D01*
X54928571Y-75526190D01*
X54990476Y-75402380D01*
X54990476Y-75278571D01*
X54928571Y-75154761D01*
X54804761Y-75092857D01*
X54495238Y-75092857D01*
X54371428Y-75030952D01*
X53195238Y-75588095D02*
X53195238Y-74288095D01*
X53195238Y-75526190D02*
X53319047Y-75588095D01*
X53566666Y-75588095D01*
X53690476Y-75526190D01*
X53752380Y-75464285D01*
X53814285Y-75340476D01*
X53814285Y-74969047D01*
X53752380Y-74845238D01*
X53690476Y-74783333D01*
X53566666Y-74721428D01*
X53319047Y-74721428D01*
X53195238Y-74783333D01*
X52576190Y-75464285D02*
X52514285Y-75526190D01*
X52576190Y-75588095D01*
X52638095Y-75526190D01*
X52576190Y-75464285D01*
X52576190Y-75588095D01*
X51709523Y-74288095D02*
X51585714Y-74288095D01*
X51461904Y-74350000D01*
X51400000Y-74411904D01*
X51338095Y-74535714D01*
X51276190Y-74783333D01*
X51276190Y-75092857D01*
X51338095Y-75340476D01*
X51400000Y-75464285D01*
X51461904Y-75526190D01*
X51585714Y-75588095D01*
X51709523Y-75588095D01*
X51833333Y-75526190D01*
X51895238Y-75464285D01*
X51957142Y-75340476D01*
X52019047Y-75092857D01*
X52019047Y-74783333D01*
X51957142Y-74535714D01*
X51895238Y-74411904D01*
X51833333Y-74350000D01*
X51709523Y-74288095D01*
D11*
G04 #@! TO.P,X4,8*
G04 #@! TO.N,/RS_B*
X60970000Y-44000000D03*
G04 #@! TO.P,X4,7*
G04 #@! TO.N,/RS_A*
X63510000Y-44000000D03*
G04 #@! TO.P,X4,6*
G04 #@! TO.N,/EN*
X66050000Y-44000000D03*
G04 #@! TO.P,X4,5*
G04 #@! TO.N,/TX*
X68590000Y-44000000D03*
G04 #@! TO.P,X4,4*
G04 #@! TO.N,/RX*
X71130000Y-44000000D03*
G04 #@! TO.P,X4,3*
G04 #@! TO.N,/PC5*
X73670000Y-44000000D03*
G04 #@! TO.P,X4,2*
G04 #@! TO.N,/PC4*
X76210000Y-44000000D03*
G04 #@! TO.P,X4,1*
G04 #@! TO.N,/PC3*
X78750000Y-44000000D03*
G04 #@! TD*
D12*
G04 #@! TO.P,XP1,1*
G04 #@! TO.N,/MISO*
X78250000Y-74500000D03*
D11*
G04 #@! TO.P,XP1,3*
G04 #@! TO.N,/SCK*
X80790000Y-74500000D03*
G04 #@! TO.P,XP1,5*
G04 #@! TO.N,/RES*
X83330000Y-74500000D03*
G04 #@! TO.P,XP1,2*
G04 #@! TO.N,/VCC_prog*
X78250000Y-71960000D03*
G04 #@! TO.P,XP1,4*
G04 #@! TO.N,/MOSI*
X80790000Y-71960000D03*
G04 #@! TO.P,XP1,6*
G04 #@! TO.N,/GND*
X83330000Y-71960000D03*
G04 #@! TD*
D12*
G04 #@! TO.P,XP2,1*
G04 #@! TO.N,/PD3*
X52250000Y-56000000D03*
D11*
G04 #@! TO.P,XP2,2*
G04 #@! TO.N,/PD4*
X52250000Y-58540000D03*
G04 #@! TO.P,XP2,3*
G04 #@! TO.N,/VCC_IN*
X52250000Y-61080000D03*
G04 #@! TO.P,XP2,4*
G04 #@! TO.N,/GND*
X52250000Y-63620000D03*
G04 #@! TO.P,XP2,5*
G04 #@! TO.N,/PB6*
X52250000Y-66160000D03*
G04 #@! TO.P,XP2,6*
G04 #@! TO.N,/PB7*
X52250000Y-68700000D03*
G04 #@! TD*
G04 #@! TO.P,XP3,6*
G04 #@! TO.N,/PB2*
X72450000Y-74500000D03*
G04 #@! TO.P,XP3,5*
G04 #@! TO.N,/PB1*
X69910000Y-74500000D03*
G04 #@! TO.P,XP3,4*
G04 #@! TO.N,/PB0*
X67370000Y-74500000D03*
G04 #@! TO.P,XP3,3*
G04 #@! TO.N,/PD7*
X64830000Y-74500000D03*
G04 #@! TO.P,XP3,2*
G04 #@! TO.N,/PD6*
X62290000Y-74500000D03*
D12*
G04 #@! TO.P,XP3,1*
G04 #@! TO.N,/PD5*
X59750000Y-74500000D03*
G04 #@! TD*
D11*
G04 #@! TO.P,XP4,6*
G04 #@! TO.N,/PC2*
X86250000Y-52300000D03*
G04 #@! TO.P,XP4,5*
G04 #@! TO.N,/PC1*
X86250000Y-54840000D03*
G04 #@! TO.P,XP4,4*
G04 #@! TO.N,/PC0*
X86250000Y-57380000D03*
G04 #@! TO.P,XP4,3*
G04 #@! TO.N,/ADC7*
X86250000Y-59920000D03*
G04 #@! TO.P,XP4,2*
G04 #@! TO.N,/AREF*
X86250000Y-62460000D03*
D12*
G04 #@! TO.P,XP4,1*
G04 #@! TO.N,/ADC6*
X86250000Y-65000000D03*
G04 #@! TD*
G04 #@! TO.P,XP5,1*
G04 #@! TO.N,/PC3*
X78750000Y-46500000D03*
D11*
G04 #@! TO.P,XP5,2*
G04 #@! TO.N,/PC4*
X76210000Y-46500000D03*
G04 #@! TO.P,XP5,3*
G04 #@! TO.N,/PC5*
X73670000Y-46500000D03*
G04 #@! TO.P,XP5,4*
G04 #@! TO.N,/RX*
X71130000Y-46500000D03*
G04 #@! TO.P,XP5,5*
G04 #@! TO.N,/TX*
X68590000Y-46500000D03*
G04 #@! TO.P,XP5,6*
G04 #@! TO.N,/EN*
X66050000Y-46500000D03*
G04 #@! TD*
G04 #@! TO.P,X1,1*
G04 #@! TO.N,/PD3*
X49750000Y-56000000D03*
G04 #@! TO.P,X1,2*
G04 #@! TO.N,/PD4*
X49750000Y-58540000D03*
G04 #@! TO.P,X1,3*
G04 #@! TO.N,/VCC_IN*
X49750000Y-61080000D03*
G04 #@! TO.P,X1,4*
G04 #@! TO.N,/GND*
X49750000Y-63620000D03*
G04 #@! TO.P,X1,5*
G04 #@! TO.N,/PB6*
X49750000Y-66160000D03*
G04 #@! TO.P,X1,6*
G04 #@! TO.N,/PB7*
X49750000Y-68700000D03*
G04 #@! TD*
G04 #@! TO.P,X2,6*
G04 #@! TO.N,/PB2*
X72450000Y-77000000D03*
G04 #@! TO.P,X2,5*
G04 #@! TO.N,/PB1*
X69910000Y-77000000D03*
G04 #@! TO.P,X2,4*
G04 #@! TO.N,/PB0*
X67370000Y-77000000D03*
G04 #@! TO.P,X2,3*
G04 #@! TO.N,/PD7*
X64830000Y-77000000D03*
G04 #@! TO.P,X2,2*
G04 #@! TO.N,/PD6*
X62290000Y-77000000D03*
G04 #@! TO.P,X2,1*
G04 #@! TO.N,/PD5*
X59750000Y-77000000D03*
G04 #@! TD*
G04 #@! TO.P,X3,1*
G04 #@! TO.N,/ADC6*
X88750000Y-65000000D03*
G04 #@! TO.P,X3,2*
G04 #@! TO.N,/AREF*
X88750000Y-62460000D03*
G04 #@! TO.P,X3,3*
G04 #@! TO.N,/ADC7*
X88750000Y-59920000D03*
G04 #@! TO.P,X3,4*
G04 #@! TO.N,/PC0*
X88750000Y-57380000D03*
G04 #@! TO.P,X3,5*
G04 #@! TO.N,/PC1*
X88750000Y-54840000D03*
G04 #@! TO.P,X3,6*
G04 #@! TO.N,/PC2*
X88750000Y-52300000D03*
G04 #@! TD*
D12*
G04 #@! TO.P,XT1,1*
G04 #@! TO.N,/RS_A*
X56500000Y-48250000D03*
D11*
G04 #@! TO.P,XT1,2*
G04 #@! TO.N,/RS_B*
X53960000Y-48250000D03*
G04 #@! TD*
D13*
G04 #@! TO.N,/VCC*
X57250000Y-57250000D03*
X75750000Y-66000000D03*
X58250000Y-60500000D03*
G04 #@! TO.N,/GND*
X60500000Y-52750000D03*
X57750000Y-63250000D03*
X83000000Y-60750000D03*
X83250000Y-63000000D03*
X68000000Y-61000000D03*
X64250000Y-64500000D03*
G04 #@! TO.N,/MISO*
X73500000Y-69750000D03*
X74737347Y-74262653D03*
G04 #@! TO.N,/SCK*
X75015152Y-69984848D03*
G04 #@! TO.N,/RES*
X74275000Y-69000000D03*
X80250000Y-69500000D03*
G04 #@! TO.N,/EN*
X63000000Y-55250000D03*
X57250000Y-56250000D03*
G04 #@! TO.N,/GND*
X53500000Y-50750000D03*
G04 #@! TD*
D14*
G04 #@! TO.N,/VCC*
X57250000Y-59500000D02*
X58250000Y-60500000D01*
X57250000Y-57250000D02*
X57250000Y-59500000D01*
X62500000Y-60500000D02*
X68000000Y-66000000D01*
X68000000Y-66000000D02*
X75750000Y-66000000D01*
X58250000Y-60500000D02*
X62500000Y-60500000D01*
G04 #@! TO.N,/MISO*
X73500000Y-73025306D02*
X74737347Y-74262653D01*
X73500000Y-69750000D02*
X73500000Y-73025306D01*
G04 #@! TO.N,/SCK*
X75015152Y-69984848D02*
X75015152Y-73515152D01*
X75015152Y-73515152D02*
X77500000Y-76000000D01*
X77500000Y-76000000D02*
X80500000Y-76000000D01*
X80790000Y-75710000D02*
X80790000Y-74500000D01*
X80500000Y-76000000D02*
X80790000Y-75710000D01*
G04 #@! TO.N,/RES*
X79750000Y-69000000D02*
X80250000Y-69500000D01*
X74275000Y-69000000D02*
X79750000Y-69000000D01*
G04 #@! TO.N,/EN*
X62000000Y-56250000D02*
X63000000Y-55250000D01*
X57250000Y-56250000D02*
X62000000Y-56250000D01*
G04 #@! TD*
G04 #@! TO.N,/GND*
G36*
X59669400Y-45300600D02*
X59876137Y-45438737D01*
X60120000Y-45487244D01*
X61820000Y-45487244D01*
X62063863Y-45438737D01*
X62240000Y-45321046D01*
X62416137Y-45438737D01*
X62660000Y-45487244D01*
X64360000Y-45487244D01*
X64603863Y-45438737D01*
X64604919Y-45438032D01*
X64562756Y-45650000D01*
X64562756Y-47350000D01*
X64611263Y-47593863D01*
X64749400Y-47800600D01*
X64956137Y-47938737D01*
X65200000Y-47987244D01*
X66900000Y-47987244D01*
X67143863Y-47938737D01*
X67320000Y-47821046D01*
X67496137Y-47938737D01*
X67740000Y-47987244D01*
X69440000Y-47987244D01*
X69683863Y-47938737D01*
X69860000Y-47821046D01*
X70036137Y-47938737D01*
X70280000Y-47987244D01*
X71980000Y-47987244D01*
X72223863Y-47938737D01*
X72400000Y-47821046D01*
X72576137Y-47938737D01*
X72820000Y-47987244D01*
X74520000Y-47987244D01*
X74763863Y-47938737D01*
X74940000Y-47821046D01*
X75116137Y-47938737D01*
X75360000Y-47987244D01*
X77060000Y-47987244D01*
X77303863Y-47938737D01*
X77510600Y-47800600D01*
X77648737Y-47593863D01*
X77666848Y-47502813D01*
X77914480Y-47750445D01*
X78456604Y-47975000D01*
X79043396Y-47975000D01*
X79585520Y-47750445D01*
X80000445Y-47335520D01*
X80225000Y-46793396D01*
X80225000Y-46206604D01*
X80000445Y-45664480D01*
X79786176Y-45450211D01*
X79843863Y-45438737D01*
X80050600Y-45300600D01*
X80167932Y-45125000D01*
X87375000Y-45125000D01*
X87375000Y-50882068D01*
X87343863Y-50861263D01*
X87100000Y-50812756D01*
X85400000Y-50812756D01*
X85156137Y-50861263D01*
X84949400Y-50999400D01*
X84811263Y-51206137D01*
X84762756Y-51450000D01*
X84762756Y-53150000D01*
X84811263Y-53393863D01*
X84928954Y-53570000D01*
X84811263Y-53746137D01*
X84762756Y-53990000D01*
X84762756Y-55690000D01*
X84811263Y-55933863D01*
X84928954Y-56110000D01*
X84811263Y-56286137D01*
X84762756Y-56530000D01*
X84762756Y-58230000D01*
X84811263Y-58473863D01*
X84928954Y-58650000D01*
X84811263Y-58826137D01*
X84762756Y-59070000D01*
X84762756Y-60770000D01*
X84811263Y-61013863D01*
X84928954Y-61190000D01*
X84811263Y-61366137D01*
X84762756Y-61610000D01*
X84762756Y-63310000D01*
X84811263Y-63553863D01*
X84949400Y-63760600D01*
X85156137Y-63898737D01*
X85247187Y-63916848D01*
X84999555Y-64164480D01*
X84775000Y-64706604D01*
X84775000Y-65293396D01*
X84999555Y-65835520D01*
X85414480Y-66250445D01*
X85956604Y-66475000D01*
X86543396Y-66475000D01*
X87085520Y-66250445D01*
X87299789Y-66036176D01*
X87311263Y-66093863D01*
X87375000Y-66189252D01*
X87375000Y-75875000D01*
X84519252Y-75875000D01*
X84630600Y-75800600D01*
X84768737Y-75593863D01*
X84817244Y-75350000D01*
X84817244Y-73650000D01*
X84768737Y-73406137D01*
X84648177Y-73225706D01*
X84709849Y-73164034D01*
X84805000Y-72934320D01*
X84805000Y-72241250D01*
X84648750Y-72085000D01*
X83455000Y-72085000D01*
X83455000Y-72105000D01*
X83205000Y-72105000D01*
X83205000Y-72085000D01*
X83185000Y-72085000D01*
X83185000Y-71835000D01*
X83205000Y-71835000D01*
X83205000Y-70641250D01*
X83455000Y-70641250D01*
X83455000Y-71835000D01*
X84648750Y-71835000D01*
X84805000Y-71678750D01*
X84805000Y-70985680D01*
X84709849Y-70755966D01*
X84534034Y-70580150D01*
X84304320Y-70485000D01*
X83611250Y-70485000D01*
X83455000Y-70641250D01*
X83205000Y-70641250D01*
X83048750Y-70485000D01*
X82355680Y-70485000D01*
X82125966Y-70580150D01*
X82064294Y-70641823D01*
X81883863Y-70521263D01*
X81640000Y-70472756D01*
X80580013Y-70472756D01*
X80830616Y-70368953D01*
X81118953Y-70080616D01*
X81275000Y-69703885D01*
X81275000Y-69296115D01*
X81118953Y-68919384D01*
X80830616Y-68631047D01*
X80453885Y-68475000D01*
X80301224Y-68475000D01*
X80290720Y-68459280D01*
X80042635Y-68293516D01*
X79823866Y-68250000D01*
X79823865Y-68250000D01*
X79750000Y-68235307D01*
X79676135Y-68250000D01*
X74974569Y-68250000D01*
X74855616Y-68131047D01*
X74478885Y-67975000D01*
X74071115Y-67975000D01*
X73694384Y-68131047D01*
X73406047Y-68419384D01*
X73276007Y-68733329D01*
X72919384Y-68881047D01*
X72631047Y-69169384D01*
X72475000Y-69546115D01*
X72475000Y-69953885D01*
X72631047Y-70330616D01*
X72750000Y-70449569D01*
X72750001Y-72951436D01*
X72737803Y-73012756D01*
X71600000Y-73012756D01*
X71356137Y-73061263D01*
X71180000Y-73178954D01*
X71003863Y-73061263D01*
X70760000Y-73012756D01*
X69060000Y-73012756D01*
X68816137Y-73061263D01*
X68640000Y-73178954D01*
X68463863Y-73061263D01*
X68220000Y-73012756D01*
X66520000Y-73012756D01*
X66276137Y-73061263D01*
X66100000Y-73178954D01*
X65923863Y-73061263D01*
X65680000Y-73012756D01*
X63980000Y-73012756D01*
X63736137Y-73061263D01*
X63560000Y-73178954D01*
X63383863Y-73061263D01*
X63140000Y-73012756D01*
X61440000Y-73012756D01*
X61196137Y-73061263D01*
X60989400Y-73199400D01*
X60851263Y-73406137D01*
X60833152Y-73497187D01*
X60585520Y-73249555D01*
X60043396Y-73025000D01*
X59456604Y-73025000D01*
X58914480Y-73249555D01*
X58499555Y-73664480D01*
X58275000Y-74206604D01*
X58275000Y-74793396D01*
X58499555Y-75335520D01*
X58713824Y-75549789D01*
X58656137Y-75561263D01*
X58449400Y-75699400D01*
X58332068Y-75875000D01*
X57721429Y-75875000D01*
X57721429Y-73376500D01*
X51125000Y-73376500D01*
X51125000Y-70117932D01*
X51156137Y-70138737D01*
X51400000Y-70187244D01*
X53100000Y-70187244D01*
X53343863Y-70138737D01*
X53550600Y-70000600D01*
X53688737Y-69793863D01*
X53737244Y-69550000D01*
X53737244Y-67850000D01*
X53688737Y-67606137D01*
X53571046Y-67430000D01*
X53688737Y-67253863D01*
X53737244Y-67010000D01*
X53737244Y-65310000D01*
X53688737Y-65066137D01*
X53568177Y-64885706D01*
X53629850Y-64824034D01*
X53725000Y-64594320D01*
X53725000Y-63901250D01*
X53568750Y-63745000D01*
X52375000Y-63745000D01*
X52375000Y-63765000D01*
X52125000Y-63765000D01*
X52125000Y-63745000D01*
X52105000Y-63745000D01*
X52105000Y-63495000D01*
X52125000Y-63495000D01*
X52125000Y-63475000D01*
X52375000Y-63475000D01*
X52375000Y-63495000D01*
X53568750Y-63495000D01*
X53725000Y-63338750D01*
X53725000Y-62645680D01*
X53629850Y-62415966D01*
X53568177Y-62354294D01*
X53688737Y-62173863D01*
X53737244Y-61930000D01*
X53737244Y-60230000D01*
X53688737Y-59986137D01*
X53571046Y-59810000D01*
X53688737Y-59633863D01*
X53737244Y-59390000D01*
X53737244Y-57690000D01*
X53688737Y-57446137D01*
X53550600Y-57239400D01*
X53343863Y-57101263D01*
X53252813Y-57083152D01*
X53500445Y-56835520D01*
X53725000Y-56293396D01*
X53725000Y-56046115D01*
X56225000Y-56046115D01*
X56225000Y-56453885D01*
X56347655Y-56750000D01*
X56225000Y-57046115D01*
X56225000Y-57453885D01*
X56381047Y-57830616D01*
X56500000Y-57949569D01*
X56500001Y-59426130D01*
X56485307Y-59500000D01*
X56511935Y-59633863D01*
X56543517Y-59792635D01*
X56709281Y-60040720D01*
X56771904Y-60082563D01*
X57225000Y-60535660D01*
X57225000Y-60703885D01*
X57381047Y-61080616D01*
X57669384Y-61368953D01*
X58046115Y-61525000D01*
X58453885Y-61525000D01*
X58830616Y-61368953D01*
X58949569Y-61250000D01*
X62189341Y-61250000D01*
X67417437Y-66478097D01*
X67459280Y-66540720D01*
X67619205Y-66647578D01*
X67707364Y-66706484D01*
X68000000Y-66764693D01*
X68073866Y-66750000D01*
X75050431Y-66750000D01*
X75169384Y-66868953D01*
X75546115Y-67025000D01*
X75953885Y-67025000D01*
X76330616Y-66868953D01*
X76618953Y-66580616D01*
X76775000Y-66203885D01*
X76775000Y-65796115D01*
X76618953Y-65419384D01*
X76330616Y-65131047D01*
X75953885Y-64975000D01*
X75546115Y-64975000D01*
X75169384Y-65131047D01*
X75050431Y-65250000D01*
X68310660Y-65250000D01*
X63082565Y-60021906D01*
X63040720Y-59959280D01*
X62792635Y-59793516D01*
X62573866Y-59750000D01*
X62573865Y-59750000D01*
X62500000Y-59735307D01*
X62426135Y-59750000D01*
X58949569Y-59750000D01*
X58830616Y-59631047D01*
X58453885Y-59475000D01*
X58285660Y-59475000D01*
X58000000Y-59189341D01*
X58000000Y-57949569D01*
X58118953Y-57830616D01*
X58275000Y-57453885D01*
X58275000Y-57046115D01*
X58255899Y-57000000D01*
X61926135Y-57000000D01*
X62000000Y-57014693D01*
X62073865Y-57000000D01*
X62073866Y-57000000D01*
X62292635Y-56956484D01*
X62540720Y-56790720D01*
X62582565Y-56728094D01*
X63035660Y-56275000D01*
X63203885Y-56275000D01*
X63580616Y-56118953D01*
X63868953Y-55830616D01*
X64025000Y-55453885D01*
X64025000Y-55046115D01*
X63868953Y-54669384D01*
X63580616Y-54381047D01*
X63203885Y-54225000D01*
X62796115Y-54225000D01*
X62419384Y-54381047D01*
X62131047Y-54669384D01*
X61975000Y-55046115D01*
X61975000Y-55214340D01*
X61689341Y-55500000D01*
X57949569Y-55500000D01*
X57830616Y-55381047D01*
X57453885Y-55225000D01*
X57046115Y-55225000D01*
X56669384Y-55381047D01*
X56381047Y-55669384D01*
X56225000Y-56046115D01*
X53725000Y-56046115D01*
X53725000Y-55706604D01*
X53500445Y-55164480D01*
X53085520Y-54749555D01*
X52543396Y-54525000D01*
X51956604Y-54525000D01*
X51414480Y-54749555D01*
X51200211Y-54963824D01*
X51188737Y-54906137D01*
X51125000Y-54810748D01*
X51125000Y-47400000D01*
X52472756Y-47400000D01*
X52472756Y-49100000D01*
X52521263Y-49343863D01*
X52659400Y-49550600D01*
X52866137Y-49688737D01*
X53110000Y-49737244D01*
X54810000Y-49737244D01*
X55053863Y-49688737D01*
X55260600Y-49550600D01*
X55398737Y-49343863D01*
X55416848Y-49252813D01*
X55664480Y-49500445D01*
X56206604Y-49725000D01*
X56793396Y-49725000D01*
X57335520Y-49500445D01*
X57750445Y-49085520D01*
X57975000Y-48543396D01*
X57975000Y-47956604D01*
X57750445Y-47414480D01*
X57335520Y-46999555D01*
X56793396Y-46775000D01*
X56206604Y-46775000D01*
X55664480Y-46999555D01*
X55416848Y-47247187D01*
X55398737Y-47156137D01*
X55260600Y-46949400D01*
X55053863Y-46811263D01*
X54810000Y-46762756D01*
X53110000Y-46762756D01*
X52866137Y-46811263D01*
X52659400Y-46949400D01*
X52521263Y-47156137D01*
X52472756Y-47400000D01*
X51125000Y-47400000D01*
X51125000Y-45125000D01*
X59552068Y-45125000D01*
X59669400Y-45300600D01*
X59669400Y-45300600D01*
G37*
X59669400Y-45300600D02*
X59876137Y-45438737D01*
X60120000Y-45487244D01*
X61820000Y-45487244D01*
X62063863Y-45438737D01*
X62240000Y-45321046D01*
X62416137Y-45438737D01*
X62660000Y-45487244D01*
X64360000Y-45487244D01*
X64603863Y-45438737D01*
X64604919Y-45438032D01*
X64562756Y-45650000D01*
X64562756Y-47350000D01*
X64611263Y-47593863D01*
X64749400Y-47800600D01*
X64956137Y-47938737D01*
X65200000Y-47987244D01*
X66900000Y-47987244D01*
X67143863Y-47938737D01*
X67320000Y-47821046D01*
X67496137Y-47938737D01*
X67740000Y-47987244D01*
X69440000Y-47987244D01*
X69683863Y-47938737D01*
X69860000Y-47821046D01*
X70036137Y-47938737D01*
X70280000Y-47987244D01*
X71980000Y-47987244D01*
X72223863Y-47938737D01*
X72400000Y-47821046D01*
X72576137Y-47938737D01*
X72820000Y-47987244D01*
X74520000Y-47987244D01*
X74763863Y-47938737D01*
X74940000Y-47821046D01*
X75116137Y-47938737D01*
X75360000Y-47987244D01*
X77060000Y-47987244D01*
X77303863Y-47938737D01*
X77510600Y-47800600D01*
X77648737Y-47593863D01*
X77666848Y-47502813D01*
X77914480Y-47750445D01*
X78456604Y-47975000D01*
X79043396Y-47975000D01*
X79585520Y-47750445D01*
X80000445Y-47335520D01*
X80225000Y-46793396D01*
X80225000Y-46206604D01*
X80000445Y-45664480D01*
X79786176Y-45450211D01*
X79843863Y-45438737D01*
X80050600Y-45300600D01*
X80167932Y-45125000D01*
X87375000Y-45125000D01*
X87375000Y-50882068D01*
X87343863Y-50861263D01*
X87100000Y-50812756D01*
X85400000Y-50812756D01*
X85156137Y-50861263D01*
X84949400Y-50999400D01*
X84811263Y-51206137D01*
X84762756Y-51450000D01*
X84762756Y-53150000D01*
X84811263Y-53393863D01*
X84928954Y-53570000D01*
X84811263Y-53746137D01*
X84762756Y-53990000D01*
X84762756Y-55690000D01*
X84811263Y-55933863D01*
X84928954Y-56110000D01*
X84811263Y-56286137D01*
X84762756Y-56530000D01*
X84762756Y-58230000D01*
X84811263Y-58473863D01*
X84928954Y-58650000D01*
X84811263Y-58826137D01*
X84762756Y-59070000D01*
X84762756Y-60770000D01*
X84811263Y-61013863D01*
X84928954Y-61190000D01*
X84811263Y-61366137D01*
X84762756Y-61610000D01*
X84762756Y-63310000D01*
X84811263Y-63553863D01*
X84949400Y-63760600D01*
X85156137Y-63898737D01*
X85247187Y-63916848D01*
X84999555Y-64164480D01*
X84775000Y-64706604D01*
X84775000Y-65293396D01*
X84999555Y-65835520D01*
X85414480Y-66250445D01*
X85956604Y-66475000D01*
X86543396Y-66475000D01*
X87085520Y-66250445D01*
X87299789Y-66036176D01*
X87311263Y-66093863D01*
X87375000Y-66189252D01*
X87375000Y-75875000D01*
X84519252Y-75875000D01*
X84630600Y-75800600D01*
X84768737Y-75593863D01*
X84817244Y-75350000D01*
X84817244Y-73650000D01*
X84768737Y-73406137D01*
X84648177Y-73225706D01*
X84709849Y-73164034D01*
X84805000Y-72934320D01*
X84805000Y-72241250D01*
X84648750Y-72085000D01*
X83455000Y-72085000D01*
X83455000Y-72105000D01*
X83205000Y-72105000D01*
X83205000Y-72085000D01*
X83185000Y-72085000D01*
X83185000Y-71835000D01*
X83205000Y-71835000D01*
X83205000Y-70641250D01*
X83455000Y-70641250D01*
X83455000Y-71835000D01*
X84648750Y-71835000D01*
X84805000Y-71678750D01*
X84805000Y-70985680D01*
X84709849Y-70755966D01*
X84534034Y-70580150D01*
X84304320Y-70485000D01*
X83611250Y-70485000D01*
X83455000Y-70641250D01*
X83205000Y-70641250D01*
X83048750Y-70485000D01*
X82355680Y-70485000D01*
X82125966Y-70580150D01*
X82064294Y-70641823D01*
X81883863Y-70521263D01*
X81640000Y-70472756D01*
X80580013Y-70472756D01*
X80830616Y-70368953D01*
X81118953Y-70080616D01*
X81275000Y-69703885D01*
X81275000Y-69296115D01*
X81118953Y-68919384D01*
X80830616Y-68631047D01*
X80453885Y-68475000D01*
X80301224Y-68475000D01*
X80290720Y-68459280D01*
X80042635Y-68293516D01*
X79823866Y-68250000D01*
X79823865Y-68250000D01*
X79750000Y-68235307D01*
X79676135Y-68250000D01*
X74974569Y-68250000D01*
X74855616Y-68131047D01*
X74478885Y-67975000D01*
X74071115Y-67975000D01*
X73694384Y-68131047D01*
X73406047Y-68419384D01*
X73276007Y-68733329D01*
X72919384Y-68881047D01*
X72631047Y-69169384D01*
X72475000Y-69546115D01*
X72475000Y-69953885D01*
X72631047Y-70330616D01*
X72750000Y-70449569D01*
X72750001Y-72951436D01*
X72737803Y-73012756D01*
X71600000Y-73012756D01*
X71356137Y-73061263D01*
X71180000Y-73178954D01*
X71003863Y-73061263D01*
X70760000Y-73012756D01*
X69060000Y-73012756D01*
X68816137Y-73061263D01*
X68640000Y-73178954D01*
X68463863Y-73061263D01*
X68220000Y-73012756D01*
X66520000Y-73012756D01*
X66276137Y-73061263D01*
X66100000Y-73178954D01*
X65923863Y-73061263D01*
X65680000Y-73012756D01*
X63980000Y-73012756D01*
X63736137Y-73061263D01*
X63560000Y-73178954D01*
X63383863Y-73061263D01*
X63140000Y-73012756D01*
X61440000Y-73012756D01*
X61196137Y-73061263D01*
X60989400Y-73199400D01*
X60851263Y-73406137D01*
X60833152Y-73497187D01*
X60585520Y-73249555D01*
X60043396Y-73025000D01*
X59456604Y-73025000D01*
X58914480Y-73249555D01*
X58499555Y-73664480D01*
X58275000Y-74206604D01*
X58275000Y-74793396D01*
X58499555Y-75335520D01*
X58713824Y-75549789D01*
X58656137Y-75561263D01*
X58449400Y-75699400D01*
X58332068Y-75875000D01*
X57721429Y-75875000D01*
X57721429Y-73376500D01*
X51125000Y-73376500D01*
X51125000Y-70117932D01*
X51156137Y-70138737D01*
X51400000Y-70187244D01*
X53100000Y-70187244D01*
X53343863Y-70138737D01*
X53550600Y-70000600D01*
X53688737Y-69793863D01*
X53737244Y-69550000D01*
X53737244Y-67850000D01*
X53688737Y-67606137D01*
X53571046Y-67430000D01*
X53688737Y-67253863D01*
X53737244Y-67010000D01*
X53737244Y-65310000D01*
X53688737Y-65066137D01*
X53568177Y-64885706D01*
X53629850Y-64824034D01*
X53725000Y-64594320D01*
X53725000Y-63901250D01*
X53568750Y-63745000D01*
X52375000Y-63745000D01*
X52375000Y-63765000D01*
X52125000Y-63765000D01*
X52125000Y-63745000D01*
X52105000Y-63745000D01*
X52105000Y-63495000D01*
X52125000Y-63495000D01*
X52125000Y-63475000D01*
X52375000Y-63475000D01*
X52375000Y-63495000D01*
X53568750Y-63495000D01*
X53725000Y-63338750D01*
X53725000Y-62645680D01*
X53629850Y-62415966D01*
X53568177Y-62354294D01*
X53688737Y-62173863D01*
X53737244Y-61930000D01*
X53737244Y-60230000D01*
X53688737Y-59986137D01*
X53571046Y-59810000D01*
X53688737Y-59633863D01*
X53737244Y-59390000D01*
X53737244Y-57690000D01*
X53688737Y-57446137D01*
X53550600Y-57239400D01*
X53343863Y-57101263D01*
X53252813Y-57083152D01*
X53500445Y-56835520D01*
X53725000Y-56293396D01*
X53725000Y-56046115D01*
X56225000Y-56046115D01*
X56225000Y-56453885D01*
X56347655Y-56750000D01*
X56225000Y-57046115D01*
X56225000Y-57453885D01*
X56381047Y-57830616D01*
X56500000Y-57949569D01*
X56500001Y-59426130D01*
X56485307Y-59500000D01*
X56511935Y-59633863D01*
X56543517Y-59792635D01*
X56709281Y-60040720D01*
X56771904Y-60082563D01*
X57225000Y-60535660D01*
X57225000Y-60703885D01*
X57381047Y-61080616D01*
X57669384Y-61368953D01*
X58046115Y-61525000D01*
X58453885Y-61525000D01*
X58830616Y-61368953D01*
X58949569Y-61250000D01*
X62189341Y-61250000D01*
X67417437Y-66478097D01*
X67459280Y-66540720D01*
X67619205Y-66647578D01*
X67707364Y-66706484D01*
X68000000Y-66764693D01*
X68073866Y-66750000D01*
X75050431Y-66750000D01*
X75169384Y-66868953D01*
X75546115Y-67025000D01*
X75953885Y-67025000D01*
X76330616Y-66868953D01*
X76618953Y-66580616D01*
X76775000Y-66203885D01*
X76775000Y-65796115D01*
X76618953Y-65419384D01*
X76330616Y-65131047D01*
X75953885Y-64975000D01*
X75546115Y-64975000D01*
X75169384Y-65131047D01*
X75050431Y-65250000D01*
X68310660Y-65250000D01*
X63082565Y-60021906D01*
X63040720Y-59959280D01*
X62792635Y-59793516D01*
X62573866Y-59750000D01*
X62573865Y-59750000D01*
X62500000Y-59735307D01*
X62426135Y-59750000D01*
X58949569Y-59750000D01*
X58830616Y-59631047D01*
X58453885Y-59475000D01*
X58285660Y-59475000D01*
X58000000Y-59189341D01*
X58000000Y-57949569D01*
X58118953Y-57830616D01*
X58275000Y-57453885D01*
X58275000Y-57046115D01*
X58255899Y-57000000D01*
X61926135Y-57000000D01*
X62000000Y-57014693D01*
X62073865Y-57000000D01*
X62073866Y-57000000D01*
X62292635Y-56956484D01*
X62540720Y-56790720D01*
X62582565Y-56728094D01*
X63035660Y-56275000D01*
X63203885Y-56275000D01*
X63580616Y-56118953D01*
X63868953Y-55830616D01*
X64025000Y-55453885D01*
X64025000Y-55046115D01*
X63868953Y-54669384D01*
X63580616Y-54381047D01*
X63203885Y-54225000D01*
X62796115Y-54225000D01*
X62419384Y-54381047D01*
X62131047Y-54669384D01*
X61975000Y-55046115D01*
X61975000Y-55214340D01*
X61689341Y-55500000D01*
X57949569Y-55500000D01*
X57830616Y-55381047D01*
X57453885Y-55225000D01*
X57046115Y-55225000D01*
X56669384Y-55381047D01*
X56381047Y-55669384D01*
X56225000Y-56046115D01*
X53725000Y-56046115D01*
X53725000Y-55706604D01*
X53500445Y-55164480D01*
X53085520Y-54749555D01*
X52543396Y-54525000D01*
X51956604Y-54525000D01*
X51414480Y-54749555D01*
X51200211Y-54963824D01*
X51188737Y-54906137D01*
X51125000Y-54810748D01*
X51125000Y-47400000D01*
X52472756Y-47400000D01*
X52472756Y-49100000D01*
X52521263Y-49343863D01*
X52659400Y-49550600D01*
X52866137Y-49688737D01*
X53110000Y-49737244D01*
X54810000Y-49737244D01*
X55053863Y-49688737D01*
X55260600Y-49550600D01*
X55398737Y-49343863D01*
X55416848Y-49252813D01*
X55664480Y-49500445D01*
X56206604Y-49725000D01*
X56793396Y-49725000D01*
X57335520Y-49500445D01*
X57750445Y-49085520D01*
X57975000Y-48543396D01*
X57975000Y-47956604D01*
X57750445Y-47414480D01*
X57335520Y-46999555D01*
X56793396Y-46775000D01*
X56206604Y-46775000D01*
X55664480Y-46999555D01*
X55416848Y-47247187D01*
X55398737Y-47156137D01*
X55260600Y-46949400D01*
X55053863Y-46811263D01*
X54810000Y-46762756D01*
X53110000Y-46762756D01*
X52866137Y-46811263D01*
X52659400Y-46949400D01*
X52521263Y-47156137D01*
X52472756Y-47400000D01*
X51125000Y-47400000D01*
X51125000Y-45125000D01*
X59552068Y-45125000D01*
X59669400Y-45300600D01*
G04 #@! TD*
M02*
