M48
;DRILL file {KiCad (5.0.0-3-g5ebb6b6)} date 
;FORMAT={3:3/ absolute / metric / keep zeros}
FMAT,2
METRIC,TZ
T1C0.400
T2C1.000
%
G90
G05
M71
T1
X053500Y-050750
X057250Y-056250
X057250Y-057250
X057750Y-063250
X058250Y-060500
X060500Y-052750
X063000Y-055250
X064250Y-064500
X068000Y-061000
X073500Y-069750
X074275Y-069000
X074737Y-074263
X075015Y-069985
X075750Y-066000
X080250Y-069500
X083000Y-060750
X083250Y-063000
T2
X078250Y-071960
X078250Y-074500
X080790Y-071960
X080790Y-074500
X083330Y-071960
X083330Y-074500
X086250Y-052300
X086250Y-054840
X086250Y-057380
X086250Y-059920
X086250Y-062460
X086250Y-065000
X059750Y-074500
X062290Y-074500
X064830Y-074500
X067370Y-074500
X069910Y-074500
X072450Y-074500
X052250Y-056000
X052250Y-058540
X052250Y-061080
X052250Y-063620
X052250Y-066160
X052250Y-068700
X059750Y-077000
X062290Y-077000
X064830Y-077000
X067370Y-077000
X069910Y-077000
X072450Y-077000
X088750Y-052300
X088750Y-054840
X088750Y-057380
X088750Y-059920
X088750Y-062460
X088750Y-065000
X060970Y-044000
X063510Y-044000
X066050Y-044000
X068590Y-044000
X071130Y-044000
X073670Y-044000
X076210Y-044000
X078750Y-044000
X066050Y-046500
X068590Y-046500
X071130Y-046500
X073670Y-046500
X076210Y-046500
X078750Y-046500
X049750Y-056000
X049750Y-058540
X049750Y-061080
X049750Y-063620
X049750Y-066160
X049750Y-068700
X053960Y-048250
X056500Y-048250
T0
M30
