G04 #@! TF.GenerationSoftware,KiCad,Pcbnew,(5.0.0-3-g5ebb6b6)*
G04 #@! TF.CreationDate,2019-02-10T22:35:18+03:00*
G04 #@! TF.ProjectId,mad,6D61642E6B696361645F706362000000,rev?*
G04 #@! TF.SameCoordinates,Original*
G04 #@! TF.FileFunction,Legend,Top*
G04 #@! TF.FilePolarity,Positive*
%FSLAX46Y46*%
G04 Gerber Fmt 4.6, Leading zero omitted, Abs format (unit mm)*
G04 Created by KiCad (PCBNEW (5.0.0-3-g5ebb6b6)) date *
%MOMM*%
%LPD*%
G01*
G04 APERTURE LIST*
%ADD10C,0.250000*%
%ADD11C,0.200000*%
%ADD12C,0.300000*%
G04 APERTURE END LIST*
D10*
X54500000Y-59750000D02*
X54500000Y-60250000D01*
X54250000Y-60000000D02*
X54750000Y-60000000D01*
X54750000Y-64750000D02*
X55000000Y-64750000D01*
X54750000Y-64750000D02*
X54500000Y-64750000D01*
X54750000Y-64000000D02*
X54750000Y-64750000D01*
X54000000Y-64000000D02*
X54750000Y-64000000D01*
D11*
X54226190Y-68340000D02*
X54226190Y-68292380D01*
X54273809Y-68197142D01*
X54321428Y-68149523D01*
X55083333Y-68768571D02*
X55226190Y-68816190D01*
X55273809Y-68863809D01*
X55321428Y-68959047D01*
X55321428Y-69101904D01*
X55273809Y-69197142D01*
X55226190Y-69244761D01*
X55130952Y-69292380D01*
X54750000Y-69292380D01*
X54750000Y-68292380D01*
X55083333Y-68292380D01*
X55178571Y-68340000D01*
X55226190Y-68387619D01*
X55273809Y-68482857D01*
X55273809Y-68578095D01*
X55226190Y-68673333D01*
X55178571Y-68720952D01*
X55083333Y-68768571D01*
X54750000Y-68768571D01*
X55654761Y-68292380D02*
X56321428Y-68292380D01*
X55892857Y-69292380D01*
X54226190Y-65750000D02*
X54226190Y-65702380D01*
X54273809Y-65607142D01*
X54321428Y-65559523D01*
X55083333Y-66178571D02*
X55226190Y-66226190D01*
X55273809Y-66273809D01*
X55321428Y-66369047D01*
X55321428Y-66511904D01*
X55273809Y-66607142D01*
X55226190Y-66654761D01*
X55130952Y-66702380D01*
X54750000Y-66702380D01*
X54750000Y-65702380D01*
X55083333Y-65702380D01*
X55178571Y-65750000D01*
X55226190Y-65797619D01*
X55273809Y-65892857D01*
X55273809Y-65988095D01*
X55226190Y-66083333D01*
X55178571Y-66130952D01*
X55083333Y-66178571D01*
X54750000Y-66178571D01*
X56178571Y-65702380D02*
X55988095Y-65702380D01*
X55892857Y-65750000D01*
X55845238Y-65797619D01*
X55750000Y-65940476D01*
X55702380Y-66130952D01*
X55702380Y-66511904D01*
X55750000Y-66607142D01*
X55797619Y-66654761D01*
X55892857Y-66702380D01*
X56083333Y-66702380D01*
X56178571Y-66654761D01*
X56226190Y-66607142D01*
X56273809Y-66511904D01*
X56273809Y-66273809D01*
X56226190Y-66178571D01*
X56178571Y-66130952D01*
X56083333Y-66083333D01*
X55892857Y-66083333D01*
X55797619Y-66130952D01*
X55750000Y-66178571D01*
X55702380Y-66273809D01*
X54226190Y-58000000D02*
X54226190Y-57952380D01*
X54273809Y-57857142D01*
X54321428Y-57809523D01*
X54750000Y-58952380D02*
X54750000Y-57952380D01*
X54988095Y-57952380D01*
X55130952Y-58000000D01*
X55226190Y-58095238D01*
X55273809Y-58190476D01*
X55321428Y-58380952D01*
X55321428Y-58523809D01*
X55273809Y-58714285D01*
X55226190Y-58809523D01*
X55130952Y-58904761D01*
X54988095Y-58952380D01*
X54750000Y-58952380D01*
X56178571Y-58285714D02*
X56178571Y-58952380D01*
X55940476Y-57904761D02*
X55702380Y-58619047D01*
X56321428Y-58619047D01*
X54226190Y-55500000D02*
X54226190Y-55452380D01*
X54273809Y-55357142D01*
X54321428Y-55309523D01*
X54750000Y-56452380D02*
X54750000Y-55452380D01*
X54988095Y-55452380D01*
X55130952Y-55500000D01*
X55226190Y-55595238D01*
X55273809Y-55690476D01*
X55321428Y-55880952D01*
X55321428Y-56023809D01*
X55273809Y-56214285D01*
X55226190Y-56309523D01*
X55130952Y-56404761D01*
X54988095Y-56452380D01*
X54750000Y-56452380D01*
X55654761Y-55452380D02*
X56273809Y-55452380D01*
X55940476Y-55833333D01*
X56083333Y-55833333D01*
X56178571Y-55880952D01*
X56226190Y-55928571D01*
X56273809Y-56023809D01*
X56273809Y-56261904D01*
X56226190Y-56357142D01*
X56178571Y-56404761D01*
X56083333Y-56452380D01*
X55797619Y-56452380D01*
X55702380Y-56404761D01*
X55654761Y-56357142D01*
X58496190Y-71500000D02*
X58496190Y-71452380D01*
X58543809Y-71357142D01*
X58591428Y-71309523D01*
X59020000Y-72452380D02*
X59020000Y-71452380D01*
X59258095Y-71452380D01*
X59400952Y-71500000D01*
X59496190Y-71595238D01*
X59543809Y-71690476D01*
X59591428Y-71880952D01*
X59591428Y-72023809D01*
X59543809Y-72214285D01*
X59496190Y-72309523D01*
X59400952Y-72404761D01*
X59258095Y-72452380D01*
X59020000Y-72452380D01*
X60496190Y-71452380D02*
X60020000Y-71452380D01*
X59972380Y-71928571D01*
X60020000Y-71880952D01*
X60115238Y-71833333D01*
X60353333Y-71833333D01*
X60448571Y-71880952D01*
X60496190Y-71928571D01*
X60543809Y-72023809D01*
X60543809Y-72261904D01*
X60496190Y-72357142D01*
X60448571Y-72404761D01*
X60353333Y-72452380D01*
X60115238Y-72452380D01*
X60020000Y-72404761D01*
X59972380Y-72357142D01*
X60996190Y-71500000D02*
X60996190Y-71452380D01*
X61043809Y-71357142D01*
X61091428Y-71309523D01*
X61520000Y-72452380D02*
X61520000Y-71452380D01*
X61758095Y-71452380D01*
X61900952Y-71500000D01*
X61996190Y-71595238D01*
X62043809Y-71690476D01*
X62091428Y-71880952D01*
X62091428Y-72023809D01*
X62043809Y-72214285D01*
X61996190Y-72309523D01*
X61900952Y-72404761D01*
X61758095Y-72452380D01*
X61520000Y-72452380D01*
X62948571Y-71452380D02*
X62758095Y-71452380D01*
X62662857Y-71500000D01*
X62615238Y-71547619D01*
X62520000Y-71690476D01*
X62472380Y-71880952D01*
X62472380Y-72261904D01*
X62520000Y-72357142D01*
X62567619Y-72404761D01*
X62662857Y-72452380D01*
X62853333Y-72452380D01*
X62948571Y-72404761D01*
X62996190Y-72357142D01*
X63043809Y-72261904D01*
X63043809Y-72023809D01*
X62996190Y-71928571D01*
X62948571Y-71880952D01*
X62853333Y-71833333D01*
X62662857Y-71833333D01*
X62567619Y-71880952D01*
X62520000Y-71928571D01*
X62472380Y-72023809D01*
X63496190Y-71500000D02*
X63496190Y-71452380D01*
X63543809Y-71357142D01*
X63591428Y-71309523D01*
X64020000Y-72452380D02*
X64020000Y-71452380D01*
X64258095Y-71452380D01*
X64400952Y-71500000D01*
X64496190Y-71595238D01*
X64543809Y-71690476D01*
X64591428Y-71880952D01*
X64591428Y-72023809D01*
X64543809Y-72214285D01*
X64496190Y-72309523D01*
X64400952Y-72404761D01*
X64258095Y-72452380D01*
X64020000Y-72452380D01*
X64924761Y-71452380D02*
X65591428Y-71452380D01*
X65162857Y-72452380D01*
X66116190Y-71500000D02*
X66116190Y-71452380D01*
X66163809Y-71357142D01*
X66211428Y-71309523D01*
X66973333Y-71928571D02*
X67116190Y-71976190D01*
X67163809Y-72023809D01*
X67211428Y-72119047D01*
X67211428Y-72261904D01*
X67163809Y-72357142D01*
X67116190Y-72404761D01*
X67020952Y-72452380D01*
X66640000Y-72452380D01*
X66640000Y-71452380D01*
X66973333Y-71452380D01*
X67068571Y-71500000D01*
X67116190Y-71547619D01*
X67163809Y-71642857D01*
X67163809Y-71738095D01*
X67116190Y-71833333D01*
X67068571Y-71880952D01*
X66973333Y-71928571D01*
X66640000Y-71928571D01*
X67830476Y-71452380D02*
X67925714Y-71452380D01*
X68020952Y-71500000D01*
X68068571Y-71547619D01*
X68116190Y-71642857D01*
X68163809Y-71833333D01*
X68163809Y-72071428D01*
X68116190Y-72261904D01*
X68068571Y-72357142D01*
X68020952Y-72404761D01*
X67925714Y-72452380D01*
X67830476Y-72452380D01*
X67735238Y-72404761D01*
X67687619Y-72357142D01*
X67640000Y-72261904D01*
X67592380Y-72071428D01*
X67592380Y-71833333D01*
X67640000Y-71642857D01*
X67687619Y-71547619D01*
X67735238Y-71500000D01*
X67830476Y-71452380D01*
X68776190Y-71500000D02*
X68776190Y-71452380D01*
X68823809Y-71357142D01*
X68871428Y-71309523D01*
X69633333Y-71928571D02*
X69776190Y-71976190D01*
X69823809Y-72023809D01*
X69871428Y-72119047D01*
X69871428Y-72261904D01*
X69823809Y-72357142D01*
X69776190Y-72404761D01*
X69680952Y-72452380D01*
X69300000Y-72452380D01*
X69300000Y-71452380D01*
X69633333Y-71452380D01*
X69728571Y-71500000D01*
X69776190Y-71547619D01*
X69823809Y-71642857D01*
X69823809Y-71738095D01*
X69776190Y-71833333D01*
X69728571Y-71880952D01*
X69633333Y-71928571D01*
X69300000Y-71928571D01*
X70823809Y-72452380D02*
X70252380Y-72452380D01*
X70538095Y-72452380D02*
X70538095Y-71452380D01*
X70442857Y-71595238D01*
X70347619Y-71690476D01*
X70252380Y-71738095D01*
X71226190Y-71500000D02*
X71226190Y-71452380D01*
X71273809Y-71357142D01*
X71321428Y-71309523D01*
X72083333Y-71928571D02*
X72226190Y-71976190D01*
X72273809Y-72023809D01*
X72321428Y-72119047D01*
X72321428Y-72261904D01*
X72273809Y-72357142D01*
X72226190Y-72404761D01*
X72130952Y-72452380D01*
X71750000Y-72452380D01*
X71750000Y-71452380D01*
X72083333Y-71452380D01*
X72178571Y-71500000D01*
X72226190Y-71547619D01*
X72273809Y-71642857D01*
X72273809Y-71738095D01*
X72226190Y-71833333D01*
X72178571Y-71880952D01*
X72083333Y-71928571D01*
X71750000Y-71928571D01*
X72702380Y-71547619D02*
X72750000Y-71500000D01*
X72845238Y-71452380D01*
X73083333Y-71452380D01*
X73178571Y-71500000D01*
X73226190Y-71547619D01*
X73273809Y-71642857D01*
X73273809Y-71738095D01*
X73226190Y-71880952D01*
X72654761Y-72452380D01*
X73273809Y-72452380D01*
X81976190Y-52000000D02*
X81976190Y-51952380D01*
X82023809Y-51857142D01*
X82071428Y-51809523D01*
X83071428Y-52857142D02*
X83023809Y-52904761D01*
X82880952Y-52952380D01*
X82785714Y-52952380D01*
X82642857Y-52904761D01*
X82547619Y-52809523D01*
X82500000Y-52714285D01*
X82452380Y-52523809D01*
X82452380Y-52380952D01*
X82500000Y-52190476D01*
X82547619Y-52095238D01*
X82642857Y-52000000D01*
X82785714Y-51952380D01*
X82880952Y-51952380D01*
X83023809Y-52000000D01*
X83071428Y-52047619D01*
X83452380Y-52047619D02*
X83500000Y-52000000D01*
X83595238Y-51952380D01*
X83833333Y-51952380D01*
X83928571Y-52000000D01*
X83976190Y-52047619D01*
X84023809Y-52142857D01*
X84023809Y-52238095D01*
X83976190Y-52380952D01*
X83404761Y-52952380D01*
X84023809Y-52952380D01*
X81976190Y-54500000D02*
X81976190Y-54452380D01*
X82023809Y-54357142D01*
X82071428Y-54309523D01*
X83071428Y-55357142D02*
X83023809Y-55404761D01*
X82880952Y-55452380D01*
X82785714Y-55452380D01*
X82642857Y-55404761D01*
X82547619Y-55309523D01*
X82500000Y-55214285D01*
X82452380Y-55023809D01*
X82452380Y-54880952D01*
X82500000Y-54690476D01*
X82547619Y-54595238D01*
X82642857Y-54500000D01*
X82785714Y-54452380D01*
X82880952Y-54452380D01*
X83023809Y-54500000D01*
X83071428Y-54547619D01*
X84023809Y-55452380D02*
X83452380Y-55452380D01*
X83738095Y-55452380D02*
X83738095Y-54452380D01*
X83642857Y-54595238D01*
X83547619Y-54690476D01*
X83452380Y-54738095D01*
X81976190Y-57000000D02*
X81976190Y-56952380D01*
X82023809Y-56857142D01*
X82071428Y-56809523D01*
X83071428Y-57857142D02*
X83023809Y-57904761D01*
X82880952Y-57952380D01*
X82785714Y-57952380D01*
X82642857Y-57904761D01*
X82547619Y-57809523D01*
X82500000Y-57714285D01*
X82452380Y-57523809D01*
X82452380Y-57380952D01*
X82500000Y-57190476D01*
X82547619Y-57095238D01*
X82642857Y-57000000D01*
X82785714Y-56952380D01*
X82880952Y-56952380D01*
X83023809Y-57000000D01*
X83071428Y-57047619D01*
X83690476Y-56952380D02*
X83785714Y-56952380D01*
X83880952Y-57000000D01*
X83928571Y-57047619D01*
X83976190Y-57142857D01*
X84023809Y-57333333D01*
X84023809Y-57571428D01*
X83976190Y-57761904D01*
X83928571Y-57857142D01*
X83880952Y-57904761D01*
X83785714Y-57952380D01*
X83690476Y-57952380D01*
X83595238Y-57904761D01*
X83547619Y-57857142D01*
X83500000Y-57761904D01*
X83452380Y-57571428D01*
X83452380Y-57333333D01*
X83500000Y-57142857D01*
X83547619Y-57047619D01*
X83595238Y-57000000D01*
X83690476Y-56952380D01*
X82928571Y-62452380D02*
X82595238Y-61976190D01*
X82357142Y-62452380D02*
X82357142Y-61452380D01*
X82738095Y-61452380D01*
X82833333Y-61500000D01*
X82880952Y-61547619D01*
X82928571Y-61642857D01*
X82928571Y-61785714D01*
X82880952Y-61880952D01*
X82833333Y-61928571D01*
X82738095Y-61976190D01*
X82357142Y-61976190D01*
X83357142Y-61928571D02*
X83690476Y-61928571D01*
X83833333Y-62452380D02*
X83357142Y-62452380D01*
X83357142Y-61452380D01*
X83833333Y-61452380D01*
X84595238Y-61928571D02*
X84261904Y-61928571D01*
X84261904Y-62452380D02*
X84261904Y-61452380D01*
X84738095Y-61452380D01*
X82297619Y-64666666D02*
X82773809Y-64666666D01*
X82202380Y-64952380D02*
X82535714Y-63952380D01*
X82869047Y-64952380D01*
X83202380Y-64952380D02*
X83202380Y-63952380D01*
X84107142Y-63952380D02*
X83916666Y-63952380D01*
X83821428Y-64000000D01*
X83773809Y-64047619D01*
X83678571Y-64190476D01*
X83630952Y-64380952D01*
X83630952Y-64761904D01*
X83678571Y-64857142D01*
X83726190Y-64904761D01*
X83821428Y-64952380D01*
X84011904Y-64952380D01*
X84107142Y-64904761D01*
X84154761Y-64857142D01*
X84202380Y-64761904D01*
X84202380Y-64523809D01*
X84154761Y-64428571D01*
X84107142Y-64380952D01*
X84011904Y-64333333D01*
X83821428Y-64333333D01*
X83726190Y-64380952D01*
X83678571Y-64428571D01*
X83630952Y-64523809D01*
X82547619Y-59666666D02*
X83023809Y-59666666D01*
X82452380Y-59952380D02*
X82785714Y-58952380D01*
X83119047Y-59952380D01*
X83452380Y-59952380D02*
X83452380Y-58952380D01*
X83833333Y-58952380D02*
X84500000Y-58952380D01*
X84071428Y-59952380D01*
X64976190Y-48500000D02*
X64976190Y-48452380D01*
X65023809Y-48357142D01*
X65071428Y-48309523D01*
X65500000Y-49452380D02*
X65500000Y-48452380D01*
X65738095Y-48452380D01*
X65880952Y-48500000D01*
X65976190Y-48595238D01*
X66023809Y-48690476D01*
X66071428Y-48880952D01*
X66071428Y-49023809D01*
X66023809Y-49214285D01*
X65976190Y-49309523D01*
X65880952Y-49404761D01*
X65738095Y-49452380D01*
X65500000Y-49452380D01*
X66452380Y-48547619D02*
X66500000Y-48500000D01*
X66595238Y-48452380D01*
X66833333Y-48452380D01*
X66928571Y-48500000D01*
X66976190Y-48547619D01*
X67023809Y-48642857D01*
X67023809Y-48738095D01*
X66976190Y-48880952D01*
X66404761Y-49452380D01*
X67023809Y-49452380D01*
X67726190Y-48500000D02*
X67726190Y-48452380D01*
X67773809Y-48357142D01*
X67821428Y-48309523D01*
X68250000Y-49452380D02*
X68250000Y-48452380D01*
X68488095Y-48452380D01*
X68630952Y-48500000D01*
X68726190Y-48595238D01*
X68773809Y-48690476D01*
X68821428Y-48880952D01*
X68821428Y-49023809D01*
X68773809Y-49214285D01*
X68726190Y-49309523D01*
X68630952Y-49404761D01*
X68488095Y-49452380D01*
X68250000Y-49452380D01*
X69773809Y-49452380D02*
X69202380Y-49452380D01*
X69488095Y-49452380D02*
X69488095Y-48452380D01*
X69392857Y-48595238D01*
X69297619Y-48690476D01*
X69202380Y-48738095D01*
X70226190Y-48500000D02*
X70226190Y-48452380D01*
X70273809Y-48357142D01*
X70321428Y-48309523D01*
X70750000Y-49452380D02*
X70750000Y-48452380D01*
X70988095Y-48452380D01*
X71130952Y-48500000D01*
X71226190Y-48595238D01*
X71273809Y-48690476D01*
X71321428Y-48880952D01*
X71321428Y-49023809D01*
X71273809Y-49214285D01*
X71226190Y-49309523D01*
X71130952Y-49404761D01*
X70988095Y-49452380D01*
X70750000Y-49452380D01*
X71940476Y-48452380D02*
X72035714Y-48452380D01*
X72130952Y-48500000D01*
X72178571Y-48547619D01*
X72226190Y-48642857D01*
X72273809Y-48833333D01*
X72273809Y-49071428D01*
X72226190Y-49261904D01*
X72178571Y-49357142D01*
X72130952Y-49404761D01*
X72035714Y-49452380D01*
X71940476Y-49452380D01*
X71845238Y-49404761D01*
X71797619Y-49357142D01*
X71750000Y-49261904D01*
X71702380Y-49071428D01*
X71702380Y-48833333D01*
X71750000Y-48642857D01*
X71797619Y-48547619D01*
X71845238Y-48500000D01*
X71940476Y-48452380D01*
X72726190Y-48500000D02*
X72726190Y-48452380D01*
X72773809Y-48357142D01*
X72821428Y-48309523D01*
X73821428Y-49357142D02*
X73773809Y-49404761D01*
X73630952Y-49452380D01*
X73535714Y-49452380D01*
X73392857Y-49404761D01*
X73297619Y-49309523D01*
X73250000Y-49214285D01*
X73202380Y-49023809D01*
X73202380Y-48880952D01*
X73250000Y-48690476D01*
X73297619Y-48595238D01*
X73392857Y-48500000D01*
X73535714Y-48452380D01*
X73630952Y-48452380D01*
X73773809Y-48500000D01*
X73821428Y-48547619D01*
X74726190Y-48452380D02*
X74250000Y-48452380D01*
X74202380Y-48928571D01*
X74250000Y-48880952D01*
X74345238Y-48833333D01*
X74583333Y-48833333D01*
X74678571Y-48880952D01*
X74726190Y-48928571D01*
X74773809Y-49023809D01*
X74773809Y-49261904D01*
X74726190Y-49357142D01*
X74678571Y-49404761D01*
X74583333Y-49452380D01*
X74345238Y-49452380D01*
X74250000Y-49404761D01*
X74202380Y-49357142D01*
X75226190Y-48500000D02*
X75226190Y-48452380D01*
X75273809Y-48357142D01*
X75321428Y-48309523D01*
X76321428Y-49357142D02*
X76273809Y-49404761D01*
X76130952Y-49452380D01*
X76035714Y-49452380D01*
X75892857Y-49404761D01*
X75797619Y-49309523D01*
X75750000Y-49214285D01*
X75702380Y-49023809D01*
X75702380Y-48880952D01*
X75750000Y-48690476D01*
X75797619Y-48595238D01*
X75892857Y-48500000D01*
X76035714Y-48452380D01*
X76130952Y-48452380D01*
X76273809Y-48500000D01*
X76321428Y-48547619D01*
X77178571Y-48785714D02*
X77178571Y-49452380D01*
X76940476Y-48404761D02*
X76702380Y-49119047D01*
X77321428Y-49119047D01*
X77726190Y-48500000D02*
X77726190Y-48452380D01*
X77773809Y-48357142D01*
X77821428Y-48309523D01*
X78821428Y-49357142D02*
X78773809Y-49404761D01*
X78630952Y-49452380D01*
X78535714Y-49452380D01*
X78392857Y-49404761D01*
X78297619Y-49309523D01*
X78250000Y-49214285D01*
X78202380Y-49023809D01*
X78202380Y-48880952D01*
X78250000Y-48690476D01*
X78297619Y-48595238D01*
X78392857Y-48500000D01*
X78535714Y-48452380D01*
X78630952Y-48452380D01*
X78773809Y-48500000D01*
X78821428Y-48547619D01*
X79154761Y-48452380D02*
X79773809Y-48452380D01*
X79440476Y-48833333D01*
X79583333Y-48833333D01*
X79678571Y-48880952D01*
X79726190Y-48928571D01*
X79773809Y-49023809D01*
X79773809Y-49261904D01*
X79726190Y-49357142D01*
X79678571Y-49404761D01*
X79583333Y-49452380D01*
X79297619Y-49452380D01*
X79202380Y-49404761D01*
X79154761Y-49357142D01*
D10*
G04 #@! TO.C,DD2*
X66256000Y-56095000D02*
X66256000Y-56895000D01*
X65756000Y-56495000D02*
X66256000Y-56095000D01*
X65756000Y-56495000D02*
X66256000Y-56895000D01*
X63806000Y-57295000D02*
X62806000Y-57295000D01*
X63806000Y-57095000D02*
X63806000Y-57295000D01*
X59606000Y-57295000D02*
X60606000Y-57295000D01*
X59606000Y-57095000D02*
X59606000Y-57295000D01*
X59606000Y-51895000D02*
X60606000Y-51895000D01*
X59606000Y-52095000D02*
X59606000Y-51895000D01*
X63806000Y-51895000D02*
X62806000Y-51895000D01*
X63806000Y-52095000D02*
X63806000Y-51895000D01*
G04 #@! TO.C,DD1*
X64300000Y-58000000D02*
X64300000Y-59000000D01*
X64300000Y-58000000D02*
X64800000Y-58500000D01*
X64800000Y-58500000D02*
X64300000Y-59000000D01*
X66950000Y-57400000D02*
X67150000Y-57400000D01*
X66650000Y-57700000D02*
X66650000Y-57900000D01*
X74350000Y-57400000D02*
X73850000Y-57400000D01*
X74350000Y-57400000D02*
X74350000Y-57900000D01*
X74350000Y-65150000D02*
X74350000Y-64650000D01*
X74350000Y-65150000D02*
X73850000Y-65150000D01*
X66650000Y-65150000D02*
X66650000Y-64650000D01*
X66650000Y-65150000D02*
X67150000Y-65150000D01*
X66650000Y-57700000D02*
X66950000Y-57400000D01*
G04 #@! TO.C,C1*
X59850000Y-59150000D02*
X60850000Y-59150000D01*
X63650000Y-59150000D02*
X62650000Y-59150000D01*
X63650000Y-61350000D02*
X62650000Y-61350000D01*
X59850000Y-61350000D02*
X60850000Y-61350000D01*
X63650000Y-59150000D02*
X63650000Y-61350000D01*
X59850000Y-61350000D02*
X59850000Y-59150000D01*
G04 #@! TO.C,C2*
X59850000Y-63600000D02*
X59850000Y-61400000D01*
X63650000Y-61400000D02*
X63650000Y-63600000D01*
X59850000Y-63600000D02*
X60850000Y-63600000D01*
X63650000Y-63600000D02*
X62650000Y-63600000D01*
X63650000Y-61400000D02*
X62650000Y-61400000D01*
X59850000Y-61400000D02*
X60850000Y-61400000D01*
G04 #@! TO.C,C3*
X58600000Y-49400000D02*
X59600000Y-49400000D01*
X62400000Y-49400000D02*
X61400000Y-49400000D01*
X62400000Y-51600000D02*
X61400000Y-51600000D01*
X58600000Y-51600000D02*
X59600000Y-51600000D01*
X62400000Y-49400000D02*
X62400000Y-51600000D01*
X58600000Y-51600000D02*
X58600000Y-49400000D01*
G04 #@! TO.C,C4*
X81400000Y-60650000D02*
X81400000Y-62850000D01*
X77600000Y-62850000D02*
X77600000Y-60650000D01*
X81400000Y-60650000D02*
X80400000Y-60650000D01*
X77600000Y-60650000D02*
X78600000Y-60650000D01*
X77600000Y-62850000D02*
X78600000Y-62850000D01*
X81400000Y-62850000D02*
X80400000Y-62850000D01*
G04 #@! TO.C,C5*
X63050000Y-66850000D02*
X62050000Y-66850000D01*
X63050000Y-66850000D02*
X63050000Y-64650000D01*
X63050000Y-64650000D02*
X62050000Y-64650000D01*
X59850000Y-66850000D02*
X59850000Y-64650000D01*
X59850000Y-66850000D02*
X60850000Y-66850000D01*
X59850000Y-64650000D02*
X60850000Y-64650000D01*
G04 #@! TO.C,C6*
X59850000Y-66900000D02*
X60850000Y-66900000D01*
X59850000Y-69100000D02*
X60850000Y-69100000D01*
X59850000Y-69100000D02*
X59850000Y-66900000D01*
X63050000Y-66900000D02*
X62050000Y-66900000D01*
X63050000Y-69100000D02*
X63050000Y-66900000D01*
X63050000Y-69100000D02*
X62050000Y-69100000D01*
G04 #@! TO.C,L1*
X79400000Y-63800000D02*
G75*
G03X79600000Y-63600000I0J200000D01*
G01*
X79600000Y-63600000D02*
G75*
G03X79400000Y-63400000I-200000J0D01*
G01*
X79600000Y-64000000D02*
G75*
G03X79400000Y-63800000I-200000J0D01*
G01*
X79400000Y-64200000D02*
G75*
G03X79600000Y-64000000I0J200000D01*
G01*
X79600000Y-64400000D02*
G75*
G03X79400000Y-64200000I-200000J0D01*
G01*
X79400000Y-64600000D02*
G75*
G03X79600000Y-64400000I0J200000D01*
G01*
X77600000Y-65100000D02*
X77600000Y-62900000D01*
X81400000Y-62900000D02*
X81400000Y-65100000D01*
X77600000Y-65100000D02*
X78600000Y-65100000D01*
X81400000Y-65100000D02*
X80400000Y-65100000D01*
X81400000Y-62900000D02*
X80400000Y-62900000D01*
X77600000Y-62900000D02*
X78600000Y-62900000D01*
G04 #@! TO.C,L2*
X77600000Y-58400000D02*
X78600000Y-58400000D01*
X81400000Y-58400000D02*
X80400000Y-58400000D01*
X81400000Y-60600000D02*
X80400000Y-60600000D01*
X77600000Y-60600000D02*
X78600000Y-60600000D01*
X81400000Y-58400000D02*
X81400000Y-60600000D01*
X77600000Y-60600000D02*
X77600000Y-58400000D01*
X79400000Y-60100000D02*
G75*
G03X79600000Y-59900000I0J200000D01*
G01*
X79600000Y-59900000D02*
G75*
G03X79400000Y-59700000I-200000J0D01*
G01*
X79400000Y-59700000D02*
G75*
G03X79600000Y-59500000I0J200000D01*
G01*
X79600000Y-59500000D02*
G75*
G03X79400000Y-59300000I-200000J0D01*
G01*
X79600000Y-59100000D02*
G75*
G03X79400000Y-58900000I-200000J0D01*
G01*
X79400000Y-59300000D02*
G75*
G03X79600000Y-59100000I0J200000D01*
G01*
G04 #@! TO.C,R1*
X54650000Y-52800000D02*
X54350000Y-52550000D01*
X54650000Y-53450000D02*
X54350000Y-53200000D01*
X56400000Y-51900000D02*
X56400000Y-54100000D01*
X52600000Y-54100000D02*
X52600000Y-51900000D01*
X56400000Y-51900000D02*
X55400000Y-51900000D01*
X52600000Y-51900000D02*
X53600000Y-51900000D01*
X52600000Y-54100000D02*
X53600000Y-54100000D01*
X56400000Y-54100000D02*
X55400000Y-54100000D01*
G04 #@! TO.C,R2*
X84900000Y-70100000D02*
X83900000Y-70100000D01*
X81100000Y-70100000D02*
X82100000Y-70100000D01*
X81100000Y-67900000D02*
X82100000Y-67900000D01*
X84900000Y-67900000D02*
X83900000Y-67900000D01*
X81100000Y-70100000D02*
X81100000Y-67900000D01*
X84900000Y-67900000D02*
X84900000Y-70100000D01*
X83150000Y-69450000D02*
X82850000Y-69200000D01*
X83150000Y-68800000D02*
X82850000Y-68550000D01*
G04 #@! TO.C,VD1*
X56860000Y-63530000D02*
X56860000Y-62600000D01*
X56860000Y-60370000D02*
X56860000Y-61300000D01*
X56860000Y-63530000D02*
X55400000Y-63530000D01*
X56860000Y-60370000D02*
X55400000Y-60370000D01*
G04 #@! TO.C,VD2*
X75720000Y-67740000D02*
X75720000Y-69200000D01*
X78880000Y-67740000D02*
X78880000Y-69200000D01*
X75720000Y-67740000D02*
X76650000Y-67740000D01*
X78880000Y-67740000D02*
X77950000Y-67740000D01*
D12*
G04 #@! TO.C,XP1*
X76850000Y-75150000D02*
X76850000Y-75900000D01*
X84750000Y-71350000D02*
X84750000Y-70600000D01*
X84750000Y-75150000D02*
X84750000Y-75900000D01*
X76850000Y-70600000D02*
X77600000Y-70600000D01*
X76850000Y-70600000D02*
X76850000Y-71350000D01*
X76850000Y-75900000D02*
X77600000Y-75900000D01*
X84750000Y-75900000D02*
X84000000Y-75900000D01*
X84750000Y-70600000D02*
X84000000Y-70600000D01*
D10*
G04 #@! TO.C,XP2*
X53650000Y-54700000D02*
X53650000Y-55700000D01*
X53650000Y-54700000D02*
X52650000Y-54700000D01*
X51850000Y-54700000D02*
X50850000Y-54700000D01*
X50850000Y-54700000D02*
X50850000Y-55700000D01*
X53650000Y-69100000D02*
X53650000Y-70100000D01*
X51850000Y-70100000D02*
X50850000Y-70100000D01*
X53650000Y-70100000D02*
X52650000Y-70100000D01*
X50850000Y-70100000D02*
X50850000Y-69100000D01*
G04 #@! TO.C,XP3*
X73850000Y-75900000D02*
X72850000Y-75900000D01*
X73850000Y-73100000D02*
X73850000Y-74100000D01*
X73850000Y-74900000D02*
X73850000Y-75900000D01*
X72850000Y-73100000D02*
X73850000Y-73100000D01*
X58450000Y-75900000D02*
X59450000Y-75900000D01*
X58450000Y-74900000D02*
X58450000Y-75900000D01*
X58450000Y-73100000D02*
X58450000Y-74100000D01*
X58450000Y-73100000D02*
X59450000Y-73100000D01*
G04 #@! TO.C,XP4*
X87650000Y-50900000D02*
X87650000Y-51900000D01*
X84850000Y-50900000D02*
X85850000Y-50900000D01*
X86650000Y-50900000D02*
X87650000Y-50900000D01*
X84850000Y-51900000D02*
X84850000Y-50900000D01*
X87650000Y-66300000D02*
X87650000Y-65300000D01*
X86650000Y-66300000D02*
X87650000Y-66300000D01*
X84850000Y-66300000D02*
X85850000Y-66300000D01*
X84850000Y-66300000D02*
X84850000Y-65300000D01*
G04 #@! TO.C,XP5*
X80050000Y-47900000D02*
X79050000Y-47900000D01*
X80050000Y-47900000D02*
X80050000Y-46900000D01*
X80050000Y-46100000D02*
X80050000Y-45100000D01*
X80050000Y-45100000D02*
X79050000Y-45100000D01*
X65650000Y-47900000D02*
X64650000Y-47900000D01*
X64650000Y-46100000D02*
X64650000Y-45100000D01*
X64650000Y-47900000D02*
X64650000Y-46900000D01*
X64650000Y-45100000D02*
X65650000Y-45100000D01*
G04 #@! TO.C,XT1*
X52000000Y-45000000D02*
X52000000Y-46000000D01*
X52000000Y-51500000D02*
X52000000Y-50500000D01*
X52000000Y-51500000D02*
X53000000Y-51500000D01*
X58250000Y-51500000D02*
X57250000Y-51500000D01*
X58250000Y-51500000D02*
X58250000Y-50500000D01*
X52000000Y-45000000D02*
X53000000Y-45000000D01*
X58250000Y-45000000D02*
X57250000Y-45000000D01*
X58250000Y-45000000D02*
X58250000Y-46000000D01*
X56500000Y-44950000D02*
X57000000Y-44450000D01*
X57000000Y-44450000D02*
X56000000Y-44450000D01*
X56000000Y-44450000D02*
X56500000Y-44950000D01*
G04 #@! TO.C,DD2*
D11*
X64261904Y-51702380D02*
X64261904Y-50702380D01*
X64500000Y-50702380D01*
X64642857Y-50750000D01*
X64738095Y-50845238D01*
X64785714Y-50940476D01*
X64833333Y-51130952D01*
X64833333Y-51273809D01*
X64785714Y-51464285D01*
X64738095Y-51559523D01*
X64642857Y-51654761D01*
X64500000Y-51702380D01*
X64261904Y-51702380D01*
X65261904Y-51702380D02*
X65261904Y-50702380D01*
X65500000Y-50702380D01*
X65642857Y-50750000D01*
X65738095Y-50845238D01*
X65785714Y-50940476D01*
X65833333Y-51130952D01*
X65833333Y-51273809D01*
X65785714Y-51464285D01*
X65738095Y-51559523D01*
X65642857Y-51654761D01*
X65500000Y-51702380D01*
X65261904Y-51702380D01*
X66214285Y-50797619D02*
X66261904Y-50750000D01*
X66357142Y-50702380D01*
X66595238Y-50702380D01*
X66690476Y-50750000D01*
X66738095Y-50797619D01*
X66785714Y-50892857D01*
X66785714Y-50988095D01*
X66738095Y-51130952D01*
X66166666Y-51702380D01*
X66785714Y-51702380D01*
G04 #@! TO.C,DD1*
X74261904Y-56652380D02*
X74261904Y-55652380D01*
X74500000Y-55652380D01*
X74642857Y-55700000D01*
X74738095Y-55795238D01*
X74785714Y-55890476D01*
X74833333Y-56080952D01*
X74833333Y-56223809D01*
X74785714Y-56414285D01*
X74738095Y-56509523D01*
X74642857Y-56604761D01*
X74500000Y-56652380D01*
X74261904Y-56652380D01*
X75261904Y-56652380D02*
X75261904Y-55652380D01*
X75500000Y-55652380D01*
X75642857Y-55700000D01*
X75738095Y-55795238D01*
X75785714Y-55890476D01*
X75833333Y-56080952D01*
X75833333Y-56223809D01*
X75785714Y-56414285D01*
X75738095Y-56509523D01*
X75642857Y-56604761D01*
X75500000Y-56652380D01*
X75261904Y-56652380D01*
X76785714Y-56652380D02*
X76214285Y-56652380D01*
X76500000Y-56652380D02*
X76500000Y-55652380D01*
X76404761Y-55795238D01*
X76309523Y-55890476D01*
X76214285Y-55938095D01*
G04 #@! TO.C,C1*
X60583333Y-58607142D02*
X60535714Y-58654761D01*
X60392857Y-58702380D01*
X60297619Y-58702380D01*
X60154761Y-58654761D01*
X60059523Y-58559523D01*
X60011904Y-58464285D01*
X59964285Y-58273809D01*
X59964285Y-58130952D01*
X60011904Y-57940476D01*
X60059523Y-57845238D01*
X60154761Y-57750000D01*
X60297619Y-57702380D01*
X60392857Y-57702380D01*
X60535714Y-57750000D01*
X60583333Y-57797619D01*
X61535714Y-58702380D02*
X60964285Y-58702380D01*
X61250000Y-58702380D02*
X61250000Y-57702380D01*
X61154761Y-57845238D01*
X61059523Y-57940476D01*
X60964285Y-57988095D01*
G04 #@! TO.C,C2*
X59357142Y-62666666D02*
X59404761Y-62714285D01*
X59452380Y-62857142D01*
X59452380Y-62952380D01*
X59404761Y-63095238D01*
X59309523Y-63190476D01*
X59214285Y-63238095D01*
X59023809Y-63285714D01*
X58880952Y-63285714D01*
X58690476Y-63238095D01*
X58595238Y-63190476D01*
X58500000Y-63095238D01*
X58452380Y-62952380D01*
X58452380Y-62857142D01*
X58500000Y-62714285D01*
X58547619Y-62666666D01*
X58547619Y-62285714D02*
X58500000Y-62238095D01*
X58452380Y-62142857D01*
X58452380Y-61904761D01*
X58500000Y-61809523D01*
X58547619Y-61761904D01*
X58642857Y-61714285D01*
X58738095Y-61714285D01*
X58880952Y-61761904D01*
X59452380Y-62333333D01*
X59452380Y-61714285D01*
G04 #@! TO.C,C3*
X60083333Y-48857142D02*
X60035714Y-48904761D01*
X59892857Y-48952380D01*
X59797619Y-48952380D01*
X59654761Y-48904761D01*
X59559523Y-48809523D01*
X59511904Y-48714285D01*
X59464285Y-48523809D01*
X59464285Y-48380952D01*
X59511904Y-48190476D01*
X59559523Y-48095238D01*
X59654761Y-48000000D01*
X59797619Y-47952380D01*
X59892857Y-47952380D01*
X60035714Y-48000000D01*
X60083333Y-48047619D01*
X60416666Y-47952380D02*
X61035714Y-47952380D01*
X60702380Y-48333333D01*
X60845238Y-48333333D01*
X60940476Y-48380952D01*
X60988095Y-48428571D01*
X61035714Y-48523809D01*
X61035714Y-48761904D01*
X60988095Y-48857142D01*
X60940476Y-48904761D01*
X60845238Y-48952380D01*
X60559523Y-48952380D01*
X60464285Y-48904761D01*
X60416666Y-48857142D01*
G04 #@! TO.C,C4*
X77107142Y-61916666D02*
X77154761Y-61964285D01*
X77202380Y-62107142D01*
X77202380Y-62202380D01*
X77154761Y-62345238D01*
X77059523Y-62440476D01*
X76964285Y-62488095D01*
X76773809Y-62535714D01*
X76630952Y-62535714D01*
X76440476Y-62488095D01*
X76345238Y-62440476D01*
X76250000Y-62345238D01*
X76202380Y-62202380D01*
X76202380Y-62107142D01*
X76250000Y-61964285D01*
X76297619Y-61916666D01*
X76535714Y-61059523D02*
X77202380Y-61059523D01*
X76154761Y-61297619D02*
X76869047Y-61535714D01*
X76869047Y-60916666D01*
G04 #@! TO.C,C5*
X59357142Y-65916666D02*
X59404761Y-65964285D01*
X59452380Y-66107142D01*
X59452380Y-66202380D01*
X59404761Y-66345238D01*
X59309523Y-66440476D01*
X59214285Y-66488095D01*
X59023809Y-66535714D01*
X58880952Y-66535714D01*
X58690476Y-66488095D01*
X58595238Y-66440476D01*
X58500000Y-66345238D01*
X58452380Y-66202380D01*
X58452380Y-66107142D01*
X58500000Y-65964285D01*
X58547619Y-65916666D01*
X58452380Y-65011904D02*
X58452380Y-65488095D01*
X58928571Y-65535714D01*
X58880952Y-65488095D01*
X58833333Y-65392857D01*
X58833333Y-65154761D01*
X58880952Y-65059523D01*
X58928571Y-65011904D01*
X59023809Y-64964285D01*
X59261904Y-64964285D01*
X59357142Y-65011904D01*
X59404761Y-65059523D01*
X59452380Y-65154761D01*
X59452380Y-65392857D01*
X59404761Y-65488095D01*
X59357142Y-65535714D01*
G04 #@! TO.C,C6*
X59357142Y-68166666D02*
X59404761Y-68214285D01*
X59452380Y-68357142D01*
X59452380Y-68452380D01*
X59404761Y-68595238D01*
X59309523Y-68690476D01*
X59214285Y-68738095D01*
X59023809Y-68785714D01*
X58880952Y-68785714D01*
X58690476Y-68738095D01*
X58595238Y-68690476D01*
X58500000Y-68595238D01*
X58452380Y-68452380D01*
X58452380Y-68357142D01*
X58500000Y-68214285D01*
X58547619Y-68166666D01*
X58452380Y-67309523D02*
X58452380Y-67500000D01*
X58500000Y-67595238D01*
X58547619Y-67642857D01*
X58690476Y-67738095D01*
X58880952Y-67785714D01*
X59261904Y-67785714D01*
X59357142Y-67738095D01*
X59404761Y-67690476D01*
X59452380Y-67595238D01*
X59452380Y-67404761D01*
X59404761Y-67309523D01*
X59357142Y-67261904D01*
X59261904Y-67214285D01*
X59023809Y-67214285D01*
X58928571Y-67261904D01*
X58880952Y-67309523D01*
X58833333Y-67404761D01*
X58833333Y-67595238D01*
X58880952Y-67690476D01*
X58928571Y-67738095D01*
X59023809Y-67785714D01*
G04 #@! TO.C,L1*
X77202380Y-64166666D02*
X77202380Y-64642857D01*
X76202380Y-64642857D01*
X77202380Y-63309523D02*
X77202380Y-63880952D01*
X77202380Y-63595238D02*
X76202380Y-63595238D01*
X76345238Y-63690476D01*
X76440476Y-63785714D01*
X76488095Y-63880952D01*
G04 #@! TO.C,L2*
X77202380Y-59666666D02*
X77202380Y-60142857D01*
X76202380Y-60142857D01*
X76297619Y-59380952D02*
X76250000Y-59333333D01*
X76202380Y-59238095D01*
X76202380Y-59000000D01*
X76250000Y-58904761D01*
X76297619Y-58857142D01*
X76392857Y-58809523D01*
X76488095Y-58809523D01*
X76630952Y-58857142D01*
X77202380Y-59428571D01*
X77202380Y-58809523D01*
G04 #@! TO.C,R1*
X52202380Y-53166666D02*
X51726190Y-53500000D01*
X52202380Y-53738095D02*
X51202380Y-53738095D01*
X51202380Y-53357142D01*
X51250000Y-53261904D01*
X51297619Y-53214285D01*
X51392857Y-53166666D01*
X51535714Y-53166666D01*
X51630952Y-53214285D01*
X51678571Y-53261904D01*
X51726190Y-53357142D01*
X51726190Y-53738095D01*
X52202380Y-52214285D02*
X52202380Y-52785714D01*
X52202380Y-52500000D02*
X51202380Y-52500000D01*
X51345238Y-52595238D01*
X51440476Y-52690476D01*
X51488095Y-52785714D01*
G04 #@! TO.C,R2*
X82333333Y-67452380D02*
X82000000Y-66976190D01*
X81761904Y-67452380D02*
X81761904Y-66452380D01*
X82142857Y-66452380D01*
X82238095Y-66500000D01*
X82285714Y-66547619D01*
X82333333Y-66642857D01*
X82333333Y-66785714D01*
X82285714Y-66880952D01*
X82238095Y-66928571D01*
X82142857Y-66976190D01*
X81761904Y-66976190D01*
X82714285Y-66547619D02*
X82761904Y-66500000D01*
X82857142Y-66452380D01*
X83095238Y-66452380D01*
X83190476Y-66500000D01*
X83238095Y-66547619D01*
X83285714Y-66642857D01*
X83285714Y-66738095D01*
X83238095Y-66880952D01*
X82666666Y-67452380D01*
X83285714Y-67452380D01*
G04 #@! TO.C,VD1*
X56790476Y-59152380D02*
X57123809Y-60152380D01*
X57457142Y-59152380D01*
X57790476Y-60152380D02*
X57790476Y-59152380D01*
X58028571Y-59152380D01*
X58171428Y-59200000D01*
X58266666Y-59295238D01*
X58314285Y-59390476D01*
X58361904Y-59580952D01*
X58361904Y-59723809D01*
X58314285Y-59914285D01*
X58266666Y-60009523D01*
X58171428Y-60104761D01*
X58028571Y-60152380D01*
X57790476Y-60152380D01*
X59314285Y-60152380D02*
X58742857Y-60152380D01*
X59028571Y-60152380D02*
X59028571Y-59152380D01*
X58933333Y-59295238D01*
X58838095Y-59390476D01*
X58742857Y-59438095D01*
G04 #@! TO.C,VD2*
X77940476Y-65952380D02*
X78273809Y-66952380D01*
X78607142Y-65952380D01*
X78940476Y-66952380D02*
X78940476Y-65952380D01*
X79178571Y-65952380D01*
X79321428Y-66000000D01*
X79416666Y-66095238D01*
X79464285Y-66190476D01*
X79511904Y-66380952D01*
X79511904Y-66523809D01*
X79464285Y-66714285D01*
X79416666Y-66809523D01*
X79321428Y-66904761D01*
X79178571Y-66952380D01*
X78940476Y-66952380D01*
X79892857Y-66047619D02*
X79940476Y-66000000D01*
X80035714Y-65952380D01*
X80273809Y-65952380D01*
X80369047Y-66000000D01*
X80416666Y-66047619D01*
X80464285Y-66142857D01*
X80464285Y-66238095D01*
X80416666Y-66380952D01*
X79845238Y-66952380D01*
X80464285Y-66952380D01*
G04 #@! TO.C,XP1*
X75452380Y-75809523D02*
X76452380Y-75142857D01*
X75452380Y-75142857D02*
X76452380Y-75809523D01*
X76452380Y-74761904D02*
X75452380Y-74761904D01*
X75452380Y-74380952D01*
X75500000Y-74285714D01*
X75547619Y-74238095D01*
X75642857Y-74190476D01*
X75785714Y-74190476D01*
X75880952Y-74238095D01*
X75928571Y-74285714D01*
X75976190Y-74380952D01*
X75976190Y-74761904D01*
X76452380Y-73238095D02*
X76452380Y-73809523D01*
X76452380Y-73523809D02*
X75452380Y-73523809D01*
X75595238Y-73619047D01*
X75690476Y-73714285D01*
X75738095Y-73809523D01*
G04 #@! TO.C,XP2*
X50940476Y-70702380D02*
X51607142Y-71702380D01*
X51607142Y-70702380D02*
X50940476Y-71702380D01*
X51988095Y-71702380D02*
X51988095Y-70702380D01*
X52369047Y-70702380D01*
X52464285Y-70750000D01*
X52511904Y-70797619D01*
X52559523Y-70892857D01*
X52559523Y-71035714D01*
X52511904Y-71130952D01*
X52464285Y-71178571D01*
X52369047Y-71226190D01*
X51988095Y-71226190D01*
X52940476Y-70797619D02*
X52988095Y-70750000D01*
X53083333Y-70702380D01*
X53321428Y-70702380D01*
X53416666Y-70750000D01*
X53464285Y-70797619D01*
X53511904Y-70892857D01*
X53511904Y-70988095D01*
X53464285Y-71130952D01*
X52892857Y-71702380D01*
X53511904Y-71702380D01*
G04 #@! TO.C,XP3*
X55440476Y-73952380D02*
X56107142Y-74952380D01*
X56107142Y-73952380D02*
X55440476Y-74952380D01*
X56488095Y-74952380D02*
X56488095Y-73952380D01*
X56869047Y-73952380D01*
X56964285Y-74000000D01*
X57011904Y-74047619D01*
X57059523Y-74142857D01*
X57059523Y-74285714D01*
X57011904Y-74380952D01*
X56964285Y-74428571D01*
X56869047Y-74476190D01*
X56488095Y-74476190D01*
X57392857Y-73952380D02*
X58011904Y-73952380D01*
X57678571Y-74333333D01*
X57821428Y-74333333D01*
X57916666Y-74380952D01*
X57964285Y-74428571D01*
X58011904Y-74523809D01*
X58011904Y-74761904D01*
X57964285Y-74857142D01*
X57916666Y-74904761D01*
X57821428Y-74952380D01*
X57535714Y-74952380D01*
X57440476Y-74904761D01*
X57392857Y-74857142D01*
G04 #@! TO.C,XP4*
X84940476Y-49452380D02*
X85607142Y-50452380D01*
X85607142Y-49452380D02*
X84940476Y-50452380D01*
X85988095Y-50452380D02*
X85988095Y-49452380D01*
X86369047Y-49452380D01*
X86464285Y-49500000D01*
X86511904Y-49547619D01*
X86559523Y-49642857D01*
X86559523Y-49785714D01*
X86511904Y-49880952D01*
X86464285Y-49928571D01*
X86369047Y-49976190D01*
X85988095Y-49976190D01*
X87416666Y-49785714D02*
X87416666Y-50452380D01*
X87178571Y-49404761D02*
X86940476Y-50119047D01*
X87559523Y-50119047D01*
G04 #@! TO.C,XP5*
X80440476Y-45952380D02*
X81107142Y-46952380D01*
X81107142Y-45952380D02*
X80440476Y-46952380D01*
X81488095Y-46952380D02*
X81488095Y-45952380D01*
X81869047Y-45952380D01*
X81964285Y-46000000D01*
X82011904Y-46047619D01*
X82059523Y-46142857D01*
X82059523Y-46285714D01*
X82011904Y-46380952D01*
X81964285Y-46428571D01*
X81869047Y-46476190D01*
X81488095Y-46476190D01*
X82964285Y-45952380D02*
X82488095Y-45952380D01*
X82440476Y-46428571D01*
X82488095Y-46380952D01*
X82583333Y-46333333D01*
X82821428Y-46333333D01*
X82916666Y-46380952D01*
X82964285Y-46428571D01*
X83011904Y-46523809D01*
X83011904Y-46761904D01*
X82964285Y-46857142D01*
X82916666Y-46904761D01*
X82821428Y-46952380D01*
X82583333Y-46952380D01*
X82488095Y-46904761D01*
X82440476Y-46857142D01*
G04 #@! TO.C,XT1*
X50952380Y-48940476D02*
X51952380Y-48273809D01*
X50952380Y-48273809D02*
X51952380Y-48940476D01*
X50952380Y-48035714D02*
X50952380Y-47464285D01*
X51952380Y-47750000D02*
X50952380Y-47750000D01*
X51952380Y-46607142D02*
X51952380Y-47178571D01*
X51952380Y-46892857D02*
X50952380Y-46892857D01*
X51095238Y-46988095D01*
X51190476Y-47083333D01*
X51238095Y-47178571D01*
G04 #@! TD*
M02*
