G04 #@! TF.GenerationSoftware,KiCad,Pcbnew,(5.0.0-3-g5ebb6b6)*
G04 #@! TF.CreationDate,2019-02-10T22:35:18+03:00*
G04 #@! TF.ProjectId,mad,6D61642E6B696361645F706362000000,rev?*
G04 #@! TF.SameCoordinates,Original*
G04 #@! TF.FileFunction,Soldermask,Bot*
G04 #@! TF.FilePolarity,Negative*
%FSLAX46Y46*%
G04 Gerber Fmt 4.6, Leading zero omitted, Abs format (unit mm)*
G04 Created by KiCad (PCBNEW (5.0.0-3-g5ebb6b6)) date *
%MOMM*%
%LPD*%
G01*
G04 APERTURE LIST*
%ADD10C,0.100000*%
G04 APERTURE END LIST*
D10*
G36*
X73350000Y-77900000D02*
X71550000Y-77900000D01*
X71550000Y-76100000D01*
X73350000Y-76100000D01*
X73350000Y-77900000D01*
X73350000Y-77900000D01*
G37*
G36*
X70810000Y-77900000D02*
X69010000Y-77900000D01*
X69010000Y-76100000D01*
X70810000Y-76100000D01*
X70810000Y-77900000D01*
X70810000Y-77900000D01*
G37*
G36*
X68270000Y-77900000D02*
X66470000Y-77900000D01*
X66470000Y-76100000D01*
X68270000Y-76100000D01*
X68270000Y-77900000D01*
X68270000Y-77900000D01*
G37*
G36*
X65730000Y-77900000D02*
X63930000Y-77900000D01*
X63930000Y-76100000D01*
X65730000Y-76100000D01*
X65730000Y-77900000D01*
X65730000Y-77900000D01*
G37*
G36*
X63190000Y-77900000D02*
X61390000Y-77900000D01*
X61390000Y-76100000D01*
X63190000Y-76100000D01*
X63190000Y-77900000D01*
X63190000Y-77900000D01*
G37*
G36*
X60650000Y-77900000D02*
X58850000Y-77900000D01*
X58850000Y-76100000D01*
X60650000Y-76100000D01*
X60650000Y-77900000D01*
X60650000Y-77900000D01*
G37*
G36*
X65730000Y-75400000D02*
X63930000Y-75400000D01*
X63930000Y-73600000D01*
X65730000Y-73600000D01*
X65730000Y-75400000D01*
X65730000Y-75400000D01*
G37*
G36*
X63190000Y-75400000D02*
X61390000Y-75400000D01*
X61390000Y-73600000D01*
X63190000Y-73600000D01*
X63190000Y-75400000D01*
X63190000Y-75400000D01*
G37*
G36*
X60012520Y-73634586D02*
X60012522Y-73634587D01*
X60012523Y-73634587D01*
X60176310Y-73702430D01*
X60323717Y-73800924D01*
X60449076Y-73926283D01*
X60547570Y-74073690D01*
X60615414Y-74237480D01*
X60650000Y-74411358D01*
X60650000Y-74588642D01*
X60615414Y-74762520D01*
X60547570Y-74926310D01*
X60449076Y-75073717D01*
X60323717Y-75199076D01*
X60176310Y-75297570D01*
X60012523Y-75365413D01*
X60012522Y-75365413D01*
X60012520Y-75365414D01*
X59838642Y-75400000D01*
X59661358Y-75400000D01*
X59487480Y-75365414D01*
X59487478Y-75365413D01*
X59487477Y-75365413D01*
X59323690Y-75297570D01*
X59176283Y-75199076D01*
X59050924Y-75073717D01*
X58952430Y-74926310D01*
X58884586Y-74762520D01*
X58850000Y-74588642D01*
X58850000Y-74411358D01*
X58884586Y-74237480D01*
X58952430Y-74073690D01*
X59050924Y-73926283D01*
X59176283Y-73800924D01*
X59323690Y-73702430D01*
X59487477Y-73634587D01*
X59487478Y-73634587D01*
X59487480Y-73634586D01*
X59661358Y-73600000D01*
X59838642Y-73600000D01*
X60012520Y-73634586D01*
X60012520Y-73634586D01*
G37*
G36*
X68270000Y-75400000D02*
X66470000Y-75400000D01*
X66470000Y-73600000D01*
X68270000Y-73600000D01*
X68270000Y-75400000D01*
X68270000Y-75400000D01*
G37*
G36*
X70810000Y-75400000D02*
X69010000Y-75400000D01*
X69010000Y-73600000D01*
X70810000Y-73600000D01*
X70810000Y-75400000D01*
X70810000Y-75400000D01*
G37*
G36*
X73350000Y-75400000D02*
X71550000Y-75400000D01*
X71550000Y-73600000D01*
X73350000Y-73600000D01*
X73350000Y-75400000D01*
X73350000Y-75400000D01*
G37*
G36*
X84230000Y-75400000D02*
X82430000Y-75400000D01*
X82430000Y-73600000D01*
X84230000Y-73600000D01*
X84230000Y-75400000D01*
X84230000Y-75400000D01*
G37*
G36*
X81690000Y-75400000D02*
X79890000Y-75400000D01*
X79890000Y-73600000D01*
X81690000Y-73600000D01*
X81690000Y-75400000D01*
X81690000Y-75400000D01*
G37*
G36*
X78512520Y-73634586D02*
X78512522Y-73634587D01*
X78512523Y-73634587D01*
X78676310Y-73702430D01*
X78823717Y-73800924D01*
X78949076Y-73926283D01*
X79047570Y-74073690D01*
X79115414Y-74237480D01*
X79150000Y-74411358D01*
X79150000Y-74588642D01*
X79115414Y-74762520D01*
X79047570Y-74926310D01*
X78949076Y-75073717D01*
X78823717Y-75199076D01*
X78676310Y-75297570D01*
X78512523Y-75365413D01*
X78512522Y-75365413D01*
X78512520Y-75365414D01*
X78338642Y-75400000D01*
X78161358Y-75400000D01*
X77987480Y-75365414D01*
X77987478Y-75365413D01*
X77987477Y-75365413D01*
X77823690Y-75297570D01*
X77676283Y-75199076D01*
X77550924Y-75073717D01*
X77452430Y-74926310D01*
X77384586Y-74762520D01*
X77350000Y-74588642D01*
X77350000Y-74411358D01*
X77384586Y-74237480D01*
X77452430Y-74073690D01*
X77550924Y-73926283D01*
X77676283Y-73800924D01*
X77823690Y-73702430D01*
X77987477Y-73634587D01*
X77987478Y-73634587D01*
X77987480Y-73634586D01*
X78161358Y-73600000D01*
X78338642Y-73600000D01*
X78512520Y-73634586D01*
X78512520Y-73634586D01*
G37*
G36*
X84230000Y-72860000D02*
X82430000Y-72860000D01*
X82430000Y-71060000D01*
X84230000Y-71060000D01*
X84230000Y-72860000D01*
X84230000Y-72860000D01*
G37*
G36*
X81690000Y-72860000D02*
X79890000Y-72860000D01*
X79890000Y-71060000D01*
X81690000Y-71060000D01*
X81690000Y-72860000D01*
X81690000Y-72860000D01*
G37*
G36*
X79150000Y-72860000D02*
X77350000Y-72860000D01*
X77350000Y-71060000D01*
X79150000Y-71060000D01*
X79150000Y-72860000D01*
X79150000Y-72860000D01*
G37*
G36*
X53150000Y-69600000D02*
X51350000Y-69600000D01*
X51350000Y-67800000D01*
X53150000Y-67800000D01*
X53150000Y-69600000D01*
X53150000Y-69600000D01*
G37*
G36*
X50650000Y-69600000D02*
X48850000Y-69600000D01*
X48850000Y-67800000D01*
X50650000Y-67800000D01*
X50650000Y-69600000D01*
X50650000Y-69600000D01*
G37*
G36*
X53150000Y-67060000D02*
X51350000Y-67060000D01*
X51350000Y-65260000D01*
X53150000Y-65260000D01*
X53150000Y-67060000D01*
X53150000Y-67060000D01*
G37*
G36*
X50650000Y-67060000D02*
X48850000Y-67060000D01*
X48850000Y-65260000D01*
X50650000Y-65260000D01*
X50650000Y-67060000D01*
X50650000Y-67060000D01*
G37*
G36*
X89650000Y-65900000D02*
X87850000Y-65900000D01*
X87850000Y-64100000D01*
X89650000Y-64100000D01*
X89650000Y-65900000D01*
X89650000Y-65900000D01*
G37*
G36*
X86512520Y-64134586D02*
X86512522Y-64134587D01*
X86512523Y-64134587D01*
X86676310Y-64202430D01*
X86823717Y-64300924D01*
X86949076Y-64426283D01*
X87047570Y-64573690D01*
X87115414Y-64737480D01*
X87150000Y-64911358D01*
X87150000Y-65088642D01*
X87115414Y-65262520D01*
X87047570Y-65426310D01*
X86949076Y-65573717D01*
X86823717Y-65699076D01*
X86676310Y-65797570D01*
X86512523Y-65865413D01*
X86512522Y-65865413D01*
X86512520Y-65865414D01*
X86338642Y-65900000D01*
X86161358Y-65900000D01*
X85987480Y-65865414D01*
X85987478Y-65865413D01*
X85987477Y-65865413D01*
X85823690Y-65797570D01*
X85676283Y-65699076D01*
X85550924Y-65573717D01*
X85452430Y-65426310D01*
X85384586Y-65262520D01*
X85350000Y-65088642D01*
X85350000Y-64911358D01*
X85384586Y-64737480D01*
X85452430Y-64573690D01*
X85550924Y-64426283D01*
X85676283Y-64300924D01*
X85823690Y-64202430D01*
X85987477Y-64134587D01*
X85987478Y-64134587D01*
X85987480Y-64134586D01*
X86161358Y-64100000D01*
X86338642Y-64100000D01*
X86512520Y-64134586D01*
X86512520Y-64134586D01*
G37*
G36*
X53150000Y-64520000D02*
X51350000Y-64520000D01*
X51350000Y-62720000D01*
X53150000Y-62720000D01*
X53150000Y-64520000D01*
X53150000Y-64520000D01*
G37*
G36*
X50650000Y-64520000D02*
X48850000Y-64520000D01*
X48850000Y-62720000D01*
X50650000Y-62720000D01*
X50650000Y-64520000D01*
X50650000Y-64520000D01*
G37*
G36*
X89650000Y-63360000D02*
X87850000Y-63360000D01*
X87850000Y-61560000D01*
X89650000Y-61560000D01*
X89650000Y-63360000D01*
X89650000Y-63360000D01*
G37*
G36*
X87150000Y-63360000D02*
X85350000Y-63360000D01*
X85350000Y-61560000D01*
X87150000Y-61560000D01*
X87150000Y-63360000D01*
X87150000Y-63360000D01*
G37*
G36*
X50650000Y-61980000D02*
X48850000Y-61980000D01*
X48850000Y-60180000D01*
X50650000Y-60180000D01*
X50650000Y-61980000D01*
X50650000Y-61980000D01*
G37*
G36*
X53150000Y-61980000D02*
X51350000Y-61980000D01*
X51350000Y-60180000D01*
X53150000Y-60180000D01*
X53150000Y-61980000D01*
X53150000Y-61980000D01*
G37*
G36*
X89650000Y-60820000D02*
X87850000Y-60820000D01*
X87850000Y-59020000D01*
X89650000Y-59020000D01*
X89650000Y-60820000D01*
X89650000Y-60820000D01*
G37*
G36*
X87150000Y-60820000D02*
X85350000Y-60820000D01*
X85350000Y-59020000D01*
X87150000Y-59020000D01*
X87150000Y-60820000D01*
X87150000Y-60820000D01*
G37*
G36*
X50650000Y-59440000D02*
X48850000Y-59440000D01*
X48850000Y-57640000D01*
X50650000Y-57640000D01*
X50650000Y-59440000D01*
X50650000Y-59440000D01*
G37*
G36*
X53150000Y-59440000D02*
X51350000Y-59440000D01*
X51350000Y-57640000D01*
X53150000Y-57640000D01*
X53150000Y-59440000D01*
X53150000Y-59440000D01*
G37*
G36*
X87150000Y-58280000D02*
X85350000Y-58280000D01*
X85350000Y-56480000D01*
X87150000Y-56480000D01*
X87150000Y-58280000D01*
X87150000Y-58280000D01*
G37*
G36*
X89650000Y-58280000D02*
X87850000Y-58280000D01*
X87850000Y-56480000D01*
X89650000Y-56480000D01*
X89650000Y-58280000D01*
X89650000Y-58280000D01*
G37*
G36*
X50650000Y-56900000D02*
X48850000Y-56900000D01*
X48850000Y-55100000D01*
X50650000Y-55100000D01*
X50650000Y-56900000D01*
X50650000Y-56900000D01*
G37*
G36*
X52512520Y-55134586D02*
X52512522Y-55134587D01*
X52512523Y-55134587D01*
X52676310Y-55202430D01*
X52823717Y-55300924D01*
X52949076Y-55426283D01*
X53047570Y-55573690D01*
X53115414Y-55737480D01*
X53150000Y-55911358D01*
X53150000Y-56088642D01*
X53115414Y-56262520D01*
X53047570Y-56426310D01*
X52949076Y-56573717D01*
X52823717Y-56699076D01*
X52676310Y-56797570D01*
X52512523Y-56865413D01*
X52512522Y-56865413D01*
X52512520Y-56865414D01*
X52338642Y-56900000D01*
X52161358Y-56900000D01*
X51987480Y-56865414D01*
X51987478Y-56865413D01*
X51987477Y-56865413D01*
X51823690Y-56797570D01*
X51676283Y-56699076D01*
X51550924Y-56573717D01*
X51452430Y-56426310D01*
X51384586Y-56262520D01*
X51350000Y-56088642D01*
X51350000Y-55911358D01*
X51384586Y-55737480D01*
X51452430Y-55573690D01*
X51550924Y-55426283D01*
X51676283Y-55300924D01*
X51823690Y-55202430D01*
X51987477Y-55134587D01*
X51987478Y-55134587D01*
X51987480Y-55134586D01*
X52161358Y-55100000D01*
X52338642Y-55100000D01*
X52512520Y-55134586D01*
X52512520Y-55134586D01*
G37*
G36*
X87150000Y-55740000D02*
X85350000Y-55740000D01*
X85350000Y-53940000D01*
X87150000Y-53940000D01*
X87150000Y-55740000D01*
X87150000Y-55740000D01*
G37*
G36*
X89650000Y-55740000D02*
X87850000Y-55740000D01*
X87850000Y-53940000D01*
X89650000Y-53940000D01*
X89650000Y-55740000D01*
X89650000Y-55740000D01*
G37*
G36*
X87150000Y-53200000D02*
X85350000Y-53200000D01*
X85350000Y-51400000D01*
X87150000Y-51400000D01*
X87150000Y-53200000D01*
X87150000Y-53200000D01*
G37*
G36*
X89650000Y-53200000D02*
X87850000Y-53200000D01*
X87850000Y-51400000D01*
X89650000Y-51400000D01*
X89650000Y-53200000D01*
X89650000Y-53200000D01*
G37*
G36*
X54860000Y-49150000D02*
X53060000Y-49150000D01*
X53060000Y-47350000D01*
X54860000Y-47350000D01*
X54860000Y-49150000D01*
X54860000Y-49150000D01*
G37*
G36*
X56762520Y-47384586D02*
X56762522Y-47384587D01*
X56762523Y-47384587D01*
X56799733Y-47400000D01*
X56926310Y-47452430D01*
X57073717Y-47550924D01*
X57199076Y-47676283D01*
X57297570Y-47823690D01*
X57365414Y-47987480D01*
X57400000Y-48161358D01*
X57400000Y-48338642D01*
X57365414Y-48512520D01*
X57297570Y-48676310D01*
X57199076Y-48823717D01*
X57073717Y-48949076D01*
X56926310Y-49047570D01*
X56762523Y-49115413D01*
X56762522Y-49115413D01*
X56762520Y-49115414D01*
X56588642Y-49150000D01*
X56411358Y-49150000D01*
X56237480Y-49115414D01*
X56237478Y-49115413D01*
X56237477Y-49115413D01*
X56073690Y-49047570D01*
X55926283Y-48949076D01*
X55800924Y-48823717D01*
X55702430Y-48676310D01*
X55634586Y-48512520D01*
X55600000Y-48338642D01*
X55600000Y-48161358D01*
X55634586Y-47987480D01*
X55702430Y-47823690D01*
X55800924Y-47676283D01*
X55926283Y-47550924D01*
X56073690Y-47452430D01*
X56200267Y-47400000D01*
X56237477Y-47384587D01*
X56237478Y-47384587D01*
X56237480Y-47384586D01*
X56411358Y-47350000D01*
X56588642Y-47350000D01*
X56762520Y-47384586D01*
X56762520Y-47384586D01*
G37*
G36*
X79012520Y-45634586D02*
X79012522Y-45634587D01*
X79012523Y-45634587D01*
X79176310Y-45702430D01*
X79323717Y-45800924D01*
X79449076Y-45926283D01*
X79547570Y-46073690D01*
X79615414Y-46237480D01*
X79650000Y-46411358D01*
X79650000Y-46588642D01*
X79615414Y-46762520D01*
X79547570Y-46926310D01*
X79449076Y-47073717D01*
X79323717Y-47199076D01*
X79176310Y-47297570D01*
X79012523Y-47365413D01*
X79012522Y-47365413D01*
X79012520Y-47365414D01*
X78838642Y-47400000D01*
X78661358Y-47400000D01*
X78487480Y-47365414D01*
X78487478Y-47365413D01*
X78487477Y-47365413D01*
X78323690Y-47297570D01*
X78176283Y-47199076D01*
X78050924Y-47073717D01*
X77952430Y-46926310D01*
X77884586Y-46762520D01*
X77850000Y-46588642D01*
X77850000Y-46411358D01*
X77884586Y-46237480D01*
X77952430Y-46073690D01*
X78050924Y-45926283D01*
X78176283Y-45800924D01*
X78323690Y-45702430D01*
X78487477Y-45634587D01*
X78487478Y-45634587D01*
X78487480Y-45634586D01*
X78661358Y-45600000D01*
X78838642Y-45600000D01*
X79012520Y-45634586D01*
X79012520Y-45634586D01*
G37*
G36*
X77110000Y-47400000D02*
X75310000Y-47400000D01*
X75310000Y-45600000D01*
X77110000Y-45600000D01*
X77110000Y-47400000D01*
X77110000Y-47400000D01*
G37*
G36*
X74570000Y-47400000D02*
X72770000Y-47400000D01*
X72770000Y-45600000D01*
X74570000Y-45600000D01*
X74570000Y-47400000D01*
X74570000Y-47400000D01*
G37*
G36*
X72030000Y-47400000D02*
X70230000Y-47400000D01*
X70230000Y-45600000D01*
X72030000Y-45600000D01*
X72030000Y-47400000D01*
X72030000Y-47400000D01*
G37*
G36*
X69490000Y-47400000D02*
X67690000Y-47400000D01*
X67690000Y-45600000D01*
X69490000Y-45600000D01*
X69490000Y-47400000D01*
X69490000Y-47400000D01*
G37*
G36*
X66950000Y-47400000D02*
X65150000Y-47400000D01*
X65150000Y-45600000D01*
X66950000Y-45600000D01*
X66950000Y-47400000D01*
X66950000Y-47400000D01*
G37*
G36*
X66950000Y-44900000D02*
X65150000Y-44900000D01*
X65150000Y-43100000D01*
X66950000Y-43100000D01*
X66950000Y-44900000D01*
X66950000Y-44900000D01*
G37*
G36*
X69490000Y-44900000D02*
X67690000Y-44900000D01*
X67690000Y-43100000D01*
X69490000Y-43100000D01*
X69490000Y-44900000D01*
X69490000Y-44900000D01*
G37*
G36*
X72030000Y-44900000D02*
X70230000Y-44900000D01*
X70230000Y-43100000D01*
X72030000Y-43100000D01*
X72030000Y-44900000D01*
X72030000Y-44900000D01*
G37*
G36*
X74570000Y-44900000D02*
X72770000Y-44900000D01*
X72770000Y-43100000D01*
X74570000Y-43100000D01*
X74570000Y-44900000D01*
X74570000Y-44900000D01*
G37*
G36*
X77110000Y-44900000D02*
X75310000Y-44900000D01*
X75310000Y-43100000D01*
X77110000Y-43100000D01*
X77110000Y-44900000D01*
X77110000Y-44900000D01*
G37*
G36*
X79650000Y-44900000D02*
X77850000Y-44900000D01*
X77850000Y-43100000D01*
X79650000Y-43100000D01*
X79650000Y-44900000D01*
X79650000Y-44900000D01*
G37*
G36*
X64410000Y-44900000D02*
X62610000Y-44900000D01*
X62610000Y-43100000D01*
X64410000Y-43100000D01*
X64410000Y-44900000D01*
X64410000Y-44900000D01*
G37*
G36*
X61870000Y-44900000D02*
X60070000Y-44900000D01*
X60070000Y-43100000D01*
X61870000Y-43100000D01*
X61870000Y-44900000D01*
X61870000Y-44900000D01*
G37*
M02*
