G04 #@! TF.GenerationSoftware,KiCad,Pcbnew,(5.0.0-3-g5ebb6b6)*
G04 #@! TF.CreationDate,2019-02-10T22:35:18+03:00*
G04 #@! TF.ProjectId,mad,6D61642E6B696361645F706362000000,rev?*
G04 #@! TF.SameCoordinates,Original*
G04 #@! TF.FileFunction,Legend,Bot*
G04 #@! TF.FilePolarity,Positive*
%FSLAX46Y46*%
G04 Gerber Fmt 4.6, Leading zero omitted, Abs format (unit mm)*
G04 Created by KiCad (PCBNEW (5.0.0-3-g5ebb6b6)) date *
%MOMM*%
%LPD*%
G01*
G04 APERTURE LIST*
%ADD10C,0.200000*%
%ADD11C,0.010000*%
G04 APERTURE END LIST*
D10*
X73560476Y-66507142D02*
X73127142Y-66507142D01*
X72941428Y-67188095D02*
X73560476Y-67188095D01*
X73560476Y-65888095D01*
X72941428Y-65888095D01*
X72198571Y-67188095D02*
X72322380Y-67126190D01*
X72384285Y-67002380D01*
X72384285Y-65888095D01*
X71703333Y-67064285D02*
X71641428Y-67126190D01*
X71703333Y-67188095D01*
X71765238Y-67126190D01*
X71703333Y-67064285D01*
X71703333Y-67188095D01*
X71084285Y-67188095D02*
X71084285Y-65888095D01*
X70341428Y-67188095D01*
X70341428Y-65888095D01*
X69722380Y-67188095D02*
X69722380Y-66321428D01*
X69722380Y-65888095D02*
X69784285Y-65950000D01*
X69722380Y-66011904D01*
X69660476Y-65950000D01*
X69722380Y-65888095D01*
X69722380Y-66011904D01*
X69103333Y-67188095D02*
X69103333Y-65888095D01*
X68979523Y-66692857D02*
X68608095Y-67188095D01*
X68608095Y-66321428D02*
X69103333Y-66816666D01*
X68050952Y-67188095D02*
X68050952Y-66321428D01*
X68050952Y-65888095D02*
X68112857Y-65950000D01*
X68050952Y-66011904D01*
X67989047Y-65950000D01*
X68050952Y-65888095D01*
X68050952Y-66011904D01*
X67617619Y-66321428D02*
X67122380Y-66321428D01*
X67431904Y-65888095D02*
X67431904Y-67002380D01*
X67370000Y-67126190D01*
X67246190Y-67188095D01*
X67122380Y-67188095D01*
X66503333Y-67188095D02*
X66627142Y-67126190D01*
X66689047Y-67064285D01*
X66750952Y-66940476D01*
X66750952Y-66569047D01*
X66689047Y-66445238D01*
X66627142Y-66383333D01*
X66503333Y-66321428D01*
X66317619Y-66321428D01*
X66193809Y-66383333D01*
X66131904Y-66445238D01*
X66070000Y-66569047D01*
X66070000Y-66940476D01*
X66131904Y-67064285D01*
X66193809Y-67126190D01*
X66317619Y-67188095D01*
X66503333Y-67188095D01*
X65574761Y-67126190D02*
X65450952Y-67188095D01*
X65203333Y-67188095D01*
X65079523Y-67126190D01*
X65017619Y-67002380D01*
X65017619Y-66940476D01*
X65079523Y-66816666D01*
X65203333Y-66754761D01*
X65389047Y-66754761D01*
X65512857Y-66692857D01*
X65574761Y-66569047D01*
X65574761Y-66507142D01*
X65512857Y-66383333D01*
X65389047Y-66321428D01*
X65203333Y-66321428D01*
X65079523Y-66383333D01*
X63655714Y-66569047D02*
X63717619Y-66507142D01*
X63841428Y-66445238D01*
X63965238Y-66445238D01*
X64089047Y-66507142D01*
X64150952Y-66569047D01*
X64212857Y-66692857D01*
X64212857Y-66816666D01*
X64150952Y-66940476D01*
X64089047Y-67002380D01*
X63965238Y-67064285D01*
X63841428Y-67064285D01*
X63717619Y-67002380D01*
X63655714Y-66940476D01*
X63655714Y-66445238D02*
X63655714Y-66940476D01*
X63593809Y-67002380D01*
X63531904Y-67002380D01*
X63408095Y-66940476D01*
X63346190Y-66816666D01*
X63346190Y-66507142D01*
X63470000Y-66321428D01*
X63655714Y-66197619D01*
X63903333Y-66135714D01*
X64150952Y-66197619D01*
X64336666Y-66321428D01*
X64460476Y-66507142D01*
X64522380Y-66754761D01*
X64460476Y-67002380D01*
X64336666Y-67188095D01*
X64150952Y-67311904D01*
X63903333Y-67373809D01*
X63655714Y-67311904D01*
X63470000Y-67188095D01*
X62789047Y-67188095D02*
X62789047Y-66321428D01*
X62789047Y-66445238D02*
X62727142Y-66383333D01*
X62603333Y-66321428D01*
X62417619Y-66321428D01*
X62293809Y-66383333D01*
X62231904Y-66507142D01*
X62231904Y-67188095D01*
X62231904Y-66507142D02*
X62170000Y-66383333D01*
X62046190Y-66321428D01*
X61860476Y-66321428D01*
X61736666Y-66383333D01*
X61674761Y-66507142D01*
X61674761Y-67188095D01*
X60498571Y-67188095D02*
X60498571Y-66507142D01*
X60560476Y-66383333D01*
X60684285Y-66321428D01*
X60931904Y-66321428D01*
X61055714Y-66383333D01*
X60498571Y-67126190D02*
X60622380Y-67188095D01*
X60931904Y-67188095D01*
X61055714Y-67126190D01*
X61117619Y-67002380D01*
X61117619Y-66878571D01*
X61055714Y-66754761D01*
X60931904Y-66692857D01*
X60622380Y-66692857D01*
X60498571Y-66630952D01*
X59879523Y-67188095D02*
X59879523Y-66321428D01*
X59879523Y-65888095D02*
X59941428Y-65950000D01*
X59879523Y-66011904D01*
X59817619Y-65950000D01*
X59879523Y-65888095D01*
X59879523Y-66011904D01*
X59074761Y-67188095D02*
X59198571Y-67126190D01*
X59260476Y-67002380D01*
X59260476Y-65888095D01*
X58579523Y-67064285D02*
X58517619Y-67126190D01*
X58579523Y-67188095D01*
X58641428Y-67126190D01*
X58579523Y-67064285D01*
X58579523Y-67188095D01*
X57960476Y-67188095D02*
X57960476Y-66321428D01*
X57960476Y-66569047D02*
X57898571Y-66445238D01*
X57836666Y-66383333D01*
X57712857Y-66321428D01*
X57589047Y-66321428D01*
X56598571Y-66321428D02*
X56598571Y-67188095D01*
X57155714Y-66321428D02*
X57155714Y-67002380D01*
X57093809Y-67126190D01*
X56970000Y-67188095D01*
X56784285Y-67188095D01*
X56660476Y-67126190D01*
X56598571Y-67064285D01*
X73560476Y-68842857D02*
X72570000Y-68842857D01*
X73065238Y-69338095D02*
X73065238Y-68347619D01*
X72074761Y-68038095D02*
X71208095Y-68038095D01*
X71765238Y-69338095D01*
X70341428Y-69833333D02*
X70403333Y-69771428D01*
X70527142Y-69585714D01*
X70589047Y-69461904D01*
X70650952Y-69276190D01*
X70712857Y-68966666D01*
X70712857Y-68719047D01*
X70650952Y-68409523D01*
X70589047Y-68223809D01*
X70527142Y-68100000D01*
X70403333Y-67914285D01*
X70341428Y-67852380D01*
X69784285Y-69338095D02*
X69536666Y-69338095D01*
X69412857Y-69276190D01*
X69350952Y-69214285D01*
X69227142Y-69028571D01*
X69165238Y-68780952D01*
X69165238Y-68285714D01*
X69227142Y-68161904D01*
X69289047Y-68100000D01*
X69412857Y-68038095D01*
X69660476Y-68038095D01*
X69784285Y-68100000D01*
X69846190Y-68161904D01*
X69908095Y-68285714D01*
X69908095Y-68595238D01*
X69846190Y-68719047D01*
X69784285Y-68780952D01*
X69660476Y-68842857D01*
X69412857Y-68842857D01*
X69289047Y-68780952D01*
X69227142Y-68719047D01*
X69165238Y-68595238D01*
X68546190Y-69338095D02*
X68298571Y-69338095D01*
X68174761Y-69276190D01*
X68112857Y-69214285D01*
X67989047Y-69028571D01*
X67927142Y-68780952D01*
X67927142Y-68285714D01*
X67989047Y-68161904D01*
X68050952Y-68100000D01*
X68174761Y-68038095D01*
X68422380Y-68038095D01*
X68546190Y-68100000D01*
X68608095Y-68161904D01*
X68670000Y-68285714D01*
X68670000Y-68595238D01*
X68608095Y-68719047D01*
X68546190Y-68780952D01*
X68422380Y-68842857D01*
X68174761Y-68842857D01*
X68050952Y-68780952D01*
X67989047Y-68719047D01*
X67927142Y-68595238D01*
X66750952Y-68038095D02*
X67370000Y-68038095D01*
X67431904Y-68657142D01*
X67370000Y-68595238D01*
X67246190Y-68533333D01*
X66936666Y-68533333D01*
X66812857Y-68595238D01*
X66750952Y-68657142D01*
X66689047Y-68780952D01*
X66689047Y-69090476D01*
X66750952Y-69214285D01*
X66812857Y-69276190D01*
X66936666Y-69338095D01*
X67246190Y-69338095D01*
X67370000Y-69276190D01*
X67431904Y-69214285D01*
X66255714Y-69833333D02*
X66193809Y-69771428D01*
X66070000Y-69585714D01*
X66008095Y-69461904D01*
X65946190Y-69276190D01*
X65884285Y-68966666D01*
X65884285Y-68719047D01*
X65946190Y-68409523D01*
X66008095Y-68223809D01*
X66070000Y-68100000D01*
X66193809Y-67914285D01*
X66255714Y-67852380D01*
X64584285Y-69338095D02*
X65327142Y-69338095D01*
X64955714Y-69338095D02*
X64955714Y-68038095D01*
X65079523Y-68223809D01*
X65203333Y-68347619D01*
X65327142Y-68409523D01*
X64089047Y-68161904D02*
X64027142Y-68100000D01*
X63903333Y-68038095D01*
X63593809Y-68038095D01*
X63470000Y-68100000D01*
X63408095Y-68161904D01*
X63346190Y-68285714D01*
X63346190Y-68409523D01*
X63408095Y-68595238D01*
X64150952Y-69338095D01*
X63346190Y-69338095D01*
X62541428Y-68038095D02*
X62417619Y-68038095D01*
X62293809Y-68100000D01*
X62231904Y-68161904D01*
X62169999Y-68285714D01*
X62108095Y-68533333D01*
X62108095Y-68842857D01*
X62169999Y-69090476D01*
X62231904Y-69214285D01*
X62293809Y-69276190D01*
X62417619Y-69338095D01*
X62541428Y-69338095D01*
X62665238Y-69276190D01*
X62727142Y-69214285D01*
X62789047Y-69090476D01*
X62850952Y-68842857D01*
X62850952Y-68533333D01*
X62789047Y-68285714D01*
X62727142Y-68161904D01*
X62665238Y-68100000D01*
X62541428Y-68038095D01*
X61550952Y-68842857D02*
X60560476Y-68842857D01*
X59693809Y-68038095D02*
X59569999Y-68038095D01*
X59446190Y-68100000D01*
X59384285Y-68161904D01*
X59322380Y-68285714D01*
X59260476Y-68533333D01*
X59260476Y-68842857D01*
X59322380Y-69090476D01*
X59384285Y-69214285D01*
X59446190Y-69276190D01*
X59569999Y-69338095D01*
X59693809Y-69338095D01*
X59817619Y-69276190D01*
X59879523Y-69214285D01*
X59941428Y-69090476D01*
X60003333Y-68842857D01*
X60003333Y-68533333D01*
X59941428Y-68285714D01*
X59879523Y-68161904D01*
X59817619Y-68100000D01*
X59693809Y-68038095D01*
X58084285Y-68038095D02*
X58703333Y-68038095D01*
X58765238Y-68657142D01*
X58703333Y-68595238D01*
X58579523Y-68533333D01*
X58269999Y-68533333D01*
X58146190Y-68595238D01*
X58084285Y-68657142D01*
X58022380Y-68780952D01*
X58022380Y-69090476D01*
X58084285Y-69214285D01*
X58146190Y-69276190D01*
X58269999Y-69338095D01*
X58579523Y-69338095D01*
X58703333Y-69276190D01*
X58765238Y-69214285D01*
X57465238Y-68842857D02*
X56474761Y-68842857D01*
X55917619Y-68161904D02*
X55855714Y-68100000D01*
X55731904Y-68038095D01*
X55422380Y-68038095D01*
X55298571Y-68100000D01*
X55236666Y-68161904D01*
X55174761Y-68285714D01*
X55174761Y-68409523D01*
X55236666Y-68595238D01*
X55979523Y-69338095D01*
X55174761Y-69338095D01*
X54741428Y-68038095D02*
X53936666Y-68038095D01*
X54369999Y-68533333D01*
X54184285Y-68533333D01*
X54060476Y-68595238D01*
X53998571Y-68657142D01*
X53936666Y-68780952D01*
X53936666Y-69090476D01*
X53998571Y-69214285D01*
X54060476Y-69276190D01*
X54184285Y-69338095D01*
X54555714Y-69338095D01*
X54679523Y-69276190D01*
X54741428Y-69214285D01*
X71703333Y-70188095D02*
X71393809Y-71488095D01*
X71146190Y-70559523D01*
X70898571Y-71488095D01*
X70589047Y-70188095D01*
X70093809Y-71488095D02*
X70093809Y-70188095D01*
X69536666Y-71488095D02*
X69536666Y-70807142D01*
X69598571Y-70683333D01*
X69722380Y-70621428D01*
X69908095Y-70621428D01*
X70031904Y-70683333D01*
X70093809Y-70745238D01*
X68360476Y-71488095D02*
X68360476Y-70807142D01*
X68422380Y-70683333D01*
X68546190Y-70621428D01*
X68793809Y-70621428D01*
X68917619Y-70683333D01*
X68360476Y-71426190D02*
X68484285Y-71488095D01*
X68793809Y-71488095D01*
X68917619Y-71426190D01*
X68979523Y-71302380D01*
X68979523Y-71178571D01*
X68917619Y-71054761D01*
X68793809Y-70992857D01*
X68484285Y-70992857D01*
X68360476Y-70930952D01*
X67927142Y-70621428D02*
X67431904Y-70621428D01*
X67741428Y-70188095D02*
X67741428Y-71302380D01*
X67679523Y-71426190D01*
X67555714Y-71488095D01*
X67431904Y-71488095D01*
X67060476Y-71426190D02*
X66936666Y-71488095D01*
X66689047Y-71488095D01*
X66565238Y-71426190D01*
X66503333Y-71302380D01*
X66503333Y-71240476D01*
X66565238Y-71116666D01*
X66689047Y-71054761D01*
X66874761Y-71054761D01*
X66998571Y-70992857D01*
X67060476Y-70869047D01*
X67060476Y-70807142D01*
X66998571Y-70683333D01*
X66874761Y-70621428D01*
X66689047Y-70621428D01*
X66565238Y-70683333D01*
X66008095Y-71116666D02*
X65389047Y-71116666D01*
X66131904Y-71488095D02*
X65698571Y-70188095D01*
X65265238Y-71488095D01*
X64831904Y-70621428D02*
X64831904Y-71921428D01*
X64831904Y-70683333D02*
X64708095Y-70621428D01*
X64460476Y-70621428D01*
X64336666Y-70683333D01*
X64274761Y-70745238D01*
X64212857Y-70869047D01*
X64212857Y-71240476D01*
X64274761Y-71364285D01*
X64336666Y-71426190D01*
X64460476Y-71488095D01*
X64708095Y-71488095D01*
X64831904Y-71426190D01*
X63655714Y-70621428D02*
X63655714Y-71921428D01*
X63655714Y-70683333D02*
X63531904Y-70621428D01*
X63284285Y-70621428D01*
X63160476Y-70683333D01*
X63098571Y-70745238D01*
X63036666Y-70869047D01*
X63036666Y-71240476D01*
X63098571Y-71364285D01*
X63160476Y-71426190D01*
X63284285Y-71488095D01*
X63531904Y-71488095D01*
X63655714Y-71426190D01*
X62417619Y-71426190D02*
X62417619Y-71488095D01*
X62479523Y-71611904D01*
X62541428Y-71673809D01*
X61055714Y-70188095D02*
X60622380Y-71488095D01*
X60189047Y-70188095D01*
X59755714Y-71488095D02*
X59755714Y-70621428D01*
X59755714Y-70188095D02*
X59817619Y-70250000D01*
X59755714Y-70311904D01*
X59693809Y-70250000D01*
X59755714Y-70188095D01*
X59755714Y-70311904D01*
X59136666Y-71488095D02*
X59136666Y-70188095D01*
X59136666Y-70683333D02*
X59012857Y-70621428D01*
X58765238Y-70621428D01*
X58641428Y-70683333D01*
X58579523Y-70745238D01*
X58517619Y-70869047D01*
X58517619Y-71240476D01*
X58579523Y-71364285D01*
X58641428Y-71426190D01*
X58765238Y-71488095D01*
X59012857Y-71488095D01*
X59136666Y-71426190D01*
X57465238Y-71426190D02*
X57589047Y-71488095D01*
X57836666Y-71488095D01*
X57960476Y-71426190D01*
X58022380Y-71302380D01*
X58022380Y-70807142D01*
X57960476Y-70683333D01*
X57836666Y-70621428D01*
X57589047Y-70621428D01*
X57465238Y-70683333D01*
X57403333Y-70807142D01*
X57403333Y-70930952D01*
X58022380Y-71054761D01*
X56846190Y-71488095D02*
X56846190Y-70621428D01*
X56846190Y-70869047D02*
X56784285Y-70745238D01*
X56722380Y-70683333D01*
X56598571Y-70621428D01*
X56474761Y-70621428D01*
X83631904Y-56671428D02*
X82870000Y-56671428D01*
X82393809Y-56385714D02*
X82393809Y-57385714D01*
X82393809Y-56433333D02*
X82298571Y-56385714D01*
X82108095Y-56385714D01*
X82012857Y-56433333D01*
X81965238Y-56480952D01*
X81917619Y-56576190D01*
X81917619Y-56861904D01*
X81965238Y-56957142D01*
X82012857Y-57004761D01*
X82108095Y-57052380D01*
X82298571Y-57052380D01*
X82393809Y-57004761D01*
X81060476Y-57052380D02*
X81060476Y-56528571D01*
X81108095Y-56433333D01*
X81203333Y-56385714D01*
X81393809Y-56385714D01*
X81489047Y-56433333D01*
X81060476Y-57004761D02*
X81155714Y-57052380D01*
X81393809Y-57052380D01*
X81489047Y-57004761D01*
X81536666Y-56909523D01*
X81536666Y-56814285D01*
X81489047Y-56719047D01*
X81393809Y-56671428D01*
X81155714Y-56671428D01*
X81060476Y-56623809D01*
X80489047Y-56719047D02*
X80393809Y-56719047D01*
X80679523Y-56433333D02*
X80584285Y-56385714D01*
X80393809Y-56385714D01*
X80298571Y-56433333D01*
X80250952Y-56528571D01*
X80250952Y-56576190D01*
X80298571Y-56671428D01*
X80393809Y-56719047D01*
X80298571Y-56766666D01*
X80250952Y-56861904D01*
X80250952Y-56909523D01*
X80298571Y-57004761D01*
X80393809Y-57052380D01*
X80584285Y-57052380D01*
X80679523Y-57004761D01*
X79822380Y-56385714D02*
X79822380Y-57385714D01*
X79822380Y-56433333D02*
X79727142Y-56385714D01*
X79536666Y-56385714D01*
X79441428Y-56433333D01*
X79393809Y-56480952D01*
X79346190Y-56576190D01*
X79346190Y-56861904D01*
X79393809Y-56957142D01*
X79441428Y-57004761D01*
X79536666Y-57052380D01*
X79727142Y-57052380D01*
X79822380Y-57004761D01*
X78489047Y-57052380D02*
X78489047Y-56528571D01*
X78536666Y-56433333D01*
X78631904Y-56385714D01*
X78822380Y-56385714D01*
X78917619Y-56433333D01*
X78489047Y-57004761D02*
X78584285Y-57052380D01*
X78822380Y-57052380D01*
X78917619Y-57004761D01*
X78965238Y-56909523D01*
X78965238Y-56814285D01*
X78917619Y-56719047D01*
X78822380Y-56671428D01*
X78584285Y-56671428D01*
X78489047Y-56623809D01*
X77536666Y-56004761D02*
X77584285Y-56052380D01*
X77679523Y-56100000D01*
X77870000Y-56100000D01*
X77965238Y-56147619D01*
X78012857Y-56195238D01*
X78060476Y-56290476D01*
X78060476Y-56861904D01*
X78012857Y-56957142D01*
X77965238Y-57004761D01*
X77870000Y-57052380D01*
X77727142Y-57052380D01*
X77631904Y-57004761D01*
X77584285Y-56957142D01*
X77536666Y-56861904D01*
X77536666Y-56576190D01*
X77584285Y-56480952D01*
X77631904Y-56433333D01*
X77727142Y-56385714D01*
X77917619Y-56385714D01*
X78012857Y-56433333D01*
X78060476Y-56480952D01*
X76965238Y-57052380D02*
X77060476Y-57004761D01*
X77108095Y-56957142D01*
X77155714Y-56861904D01*
X77155714Y-56576190D01*
X77108095Y-56480952D01*
X77060476Y-56433333D01*
X76965238Y-56385714D01*
X76822380Y-56385714D01*
X76727142Y-56433333D01*
X76679523Y-56480952D01*
X76631904Y-56576190D01*
X76631904Y-56861904D01*
X76679523Y-56957142D01*
X76727142Y-57004761D01*
X76822380Y-57052380D01*
X76965238Y-57052380D01*
X76346190Y-56385714D02*
X75870000Y-56385714D01*
X76108095Y-56385714D02*
X76108095Y-57052380D01*
X75536666Y-56385714D02*
X75536666Y-57052380D01*
X75441428Y-56671428D02*
X75155714Y-57052380D01*
X75155714Y-56385714D02*
X75536666Y-56766666D01*
X74298571Y-57052380D02*
X74298571Y-56528571D01*
X74346190Y-56433333D01*
X74441428Y-56385714D01*
X74631904Y-56385714D01*
X74727142Y-56433333D01*
X74298571Y-57004761D02*
X74393809Y-57052380D01*
X74631904Y-57052380D01*
X74727142Y-57004761D01*
X74774761Y-56909523D01*
X74774761Y-56814285D01*
X74727142Y-56719047D01*
X74631904Y-56671428D01*
X74393809Y-56671428D01*
X74298571Y-56623809D01*
X72774761Y-57433333D02*
X72822380Y-57385714D01*
X72917619Y-57242857D01*
X72965238Y-57147619D01*
X73012857Y-57004761D01*
X73060476Y-56766666D01*
X73060476Y-56576190D01*
X73012857Y-56338095D01*
X72965238Y-56195238D01*
X72917619Y-56100000D01*
X72822380Y-55957142D01*
X72774761Y-55909523D01*
X72393809Y-57052380D02*
X72393809Y-56052380D01*
X72012857Y-56052380D01*
X71917619Y-56100000D01*
X71870000Y-56147619D01*
X71822380Y-56242857D01*
X71822380Y-56385714D01*
X71870000Y-56480952D01*
X71917619Y-56528571D01*
X72012857Y-56576190D01*
X72393809Y-56576190D01*
X70822380Y-56957142D02*
X70870000Y-57004761D01*
X71012857Y-57052380D01*
X71108095Y-57052380D01*
X71250952Y-57004761D01*
X71346190Y-56909523D01*
X71393809Y-56814285D01*
X71441428Y-56623809D01*
X71441428Y-56480952D01*
X71393809Y-56290476D01*
X71346190Y-56195238D01*
X71250952Y-56100000D01*
X71108095Y-56052380D01*
X71012857Y-56052380D01*
X70870000Y-56100000D01*
X70822380Y-56147619D01*
X70060476Y-56528571D02*
X69917619Y-56576190D01*
X69870000Y-56623809D01*
X69822380Y-56719047D01*
X69822380Y-56861904D01*
X69870000Y-56957142D01*
X69917619Y-57004761D01*
X70012857Y-57052380D01*
X70393809Y-57052380D01*
X70393809Y-56052380D01*
X70060476Y-56052380D01*
X69965238Y-56100000D01*
X69917619Y-56147619D01*
X69870000Y-56242857D01*
X69870000Y-56338095D01*
X69917619Y-56433333D01*
X69965238Y-56480952D01*
X70060476Y-56528571D01*
X70393809Y-56528571D01*
X69393809Y-56671428D02*
X68631904Y-56671428D01*
X67727142Y-57052380D02*
X67727142Y-56052380D01*
X67727142Y-57004761D02*
X67822380Y-57052380D01*
X68012857Y-57052380D01*
X68108095Y-57004761D01*
X68155714Y-56957142D01*
X68203333Y-56861904D01*
X68203333Y-56576190D01*
X68155714Y-56480952D01*
X68108095Y-56433333D01*
X68012857Y-56385714D01*
X67822380Y-56385714D01*
X67727142Y-56433333D01*
X66870000Y-57004761D02*
X66965238Y-57052380D01*
X67155714Y-57052380D01*
X67250952Y-57004761D01*
X67298571Y-56909523D01*
X67298571Y-56528571D01*
X67250952Y-56433333D01*
X67155714Y-56385714D01*
X66965238Y-56385714D01*
X66870000Y-56433333D01*
X66822380Y-56528571D01*
X66822380Y-56623809D01*
X67298571Y-56719047D01*
X66441428Y-57004761D02*
X66346190Y-57052380D01*
X66155714Y-57052380D01*
X66060476Y-57004761D01*
X66012857Y-56909523D01*
X66012857Y-56861904D01*
X66060476Y-56766666D01*
X66155714Y-56719047D01*
X66298571Y-56719047D01*
X66393809Y-56671428D01*
X66441428Y-56576190D01*
X66441428Y-56528571D01*
X66393809Y-56433333D01*
X66298571Y-56385714D01*
X66155714Y-56385714D01*
X66060476Y-56433333D01*
X65584285Y-57052380D02*
X65584285Y-56385714D01*
X65584285Y-56052380D02*
X65631904Y-56100000D01*
X65584285Y-56147619D01*
X65536666Y-56100000D01*
X65584285Y-56052380D01*
X65584285Y-56147619D01*
X64679523Y-56385714D02*
X64679523Y-57195238D01*
X64727142Y-57290476D01*
X64774761Y-57338095D01*
X64870000Y-57385714D01*
X65012857Y-57385714D01*
X65108095Y-57338095D01*
X64679523Y-57004761D02*
X64774761Y-57052380D01*
X64965238Y-57052380D01*
X65060476Y-57004761D01*
X65108095Y-56957142D01*
X65155714Y-56861904D01*
X65155714Y-56576190D01*
X65108095Y-56480952D01*
X65060476Y-56433333D01*
X64965238Y-56385714D01*
X64774761Y-56385714D01*
X64679523Y-56433333D01*
X64203333Y-56385714D02*
X64203333Y-57052380D01*
X64203333Y-56480952D02*
X64155714Y-56433333D01*
X64060476Y-56385714D01*
X63917619Y-56385714D01*
X63822380Y-56433333D01*
X63774761Y-56528571D01*
X63774761Y-57052380D01*
X63393809Y-57433333D02*
X63346190Y-57385714D01*
X63250952Y-57242857D01*
X63203333Y-57147619D01*
X63155714Y-57004761D01*
X63108095Y-56766666D01*
X63108095Y-56576190D01*
X63155714Y-56338095D01*
X63203333Y-56195238D01*
X63250952Y-56100000D01*
X63346190Y-55957142D01*
X63393809Y-55909523D01*
X83631904Y-58371428D02*
X82870000Y-58371428D01*
X82250952Y-58752380D02*
X82346190Y-58704761D01*
X82393809Y-58657142D01*
X82441428Y-58561904D01*
X82441428Y-58276190D01*
X82393809Y-58180952D01*
X82346190Y-58133333D01*
X82250952Y-58085714D01*
X82108095Y-58085714D01*
X82012857Y-58133333D01*
X81965238Y-58180952D01*
X81917619Y-58276190D01*
X81917619Y-58561904D01*
X81965238Y-58657142D01*
X82012857Y-58704761D01*
X82108095Y-58752380D01*
X82250952Y-58752380D01*
X81489047Y-58752380D02*
X81489047Y-58085714D01*
X81060476Y-58085714D01*
X81060476Y-58752380D01*
X79917619Y-58085714D02*
X79917619Y-58752380D01*
X80584285Y-58085714D02*
X80584285Y-58752380D01*
X80346190Y-58752380D01*
X80250952Y-58704761D01*
X80203333Y-58609523D01*
X80203333Y-58466666D01*
X80250952Y-58371428D01*
X80346190Y-58323809D01*
X80584285Y-58323809D01*
X79584285Y-58085714D02*
X79108095Y-58085714D01*
X79346190Y-58085714D02*
X79346190Y-58752380D01*
X78774761Y-58419047D02*
X78346190Y-58419047D01*
X78774761Y-58085714D02*
X78774761Y-58752380D01*
X78346190Y-58085714D02*
X78346190Y-58752380D01*
X77727142Y-58752380D02*
X77822380Y-58704761D01*
X77870000Y-58657142D01*
X77917619Y-58561904D01*
X77917619Y-58276190D01*
X77870000Y-58180952D01*
X77822380Y-58133333D01*
X77727142Y-58085714D01*
X77584285Y-58085714D01*
X77489047Y-58133333D01*
X77441428Y-58180952D01*
X77393809Y-58276190D01*
X77393809Y-58561904D01*
X77441428Y-58657142D01*
X77489047Y-58704761D01*
X77584285Y-58752380D01*
X77727142Y-58752380D01*
X76584285Y-58704761D02*
X76679523Y-58752380D01*
X76870000Y-58752380D01*
X76965238Y-58704761D01*
X77012857Y-58609523D01*
X77012857Y-58228571D01*
X76965238Y-58133333D01*
X76870000Y-58085714D01*
X76679523Y-58085714D01*
X76584285Y-58133333D01*
X76536666Y-58228571D01*
X76536666Y-58323809D01*
X77012857Y-58419047D01*
X75346190Y-58752380D02*
X75346190Y-58085714D01*
X74917619Y-58085714D01*
X74917619Y-58752380D01*
X74441428Y-58085714D02*
X74441428Y-59085714D01*
X74441428Y-58133333D02*
X74346190Y-58085714D01*
X74155714Y-58085714D01*
X74060476Y-58133333D01*
X74012857Y-58180952D01*
X73965238Y-58276190D01*
X73965238Y-58561904D01*
X74012857Y-58657142D01*
X74060476Y-58704761D01*
X74155714Y-58752380D01*
X74346190Y-58752380D01*
X74441428Y-58704761D01*
X73393809Y-58752380D02*
X73489047Y-58704761D01*
X73536666Y-58657142D01*
X73584285Y-58561904D01*
X73584285Y-58276190D01*
X73536666Y-58180952D01*
X73489047Y-58133333D01*
X73393809Y-58085714D01*
X73250952Y-58085714D01*
X73155714Y-58133333D01*
X73108095Y-58180952D01*
X73060476Y-58276190D01*
X73060476Y-58561904D01*
X73108095Y-58657142D01*
X73155714Y-58704761D01*
X73250952Y-58752380D01*
X73393809Y-58752380D01*
X72631904Y-58085714D02*
X72631904Y-58752380D01*
X72155714Y-58085714D01*
X72155714Y-58752380D01*
X71584285Y-58419047D02*
X71489047Y-58419047D01*
X71774761Y-58133333D02*
X71679523Y-58085714D01*
X71489047Y-58085714D01*
X71393809Y-58133333D01*
X71346190Y-58228571D01*
X71346190Y-58276190D01*
X71393809Y-58371428D01*
X71489047Y-58419047D01*
X71393809Y-58466666D01*
X71346190Y-58561904D01*
X71346190Y-58609523D01*
X71393809Y-58704761D01*
X71489047Y-58752380D01*
X71679523Y-58752380D01*
X71774761Y-58704761D01*
X70679523Y-58419047D02*
X70536666Y-58466666D01*
X70489047Y-58561904D01*
X70489047Y-58609523D01*
X70536666Y-58704761D01*
X70631904Y-58752380D01*
X70917619Y-58752380D01*
X70917619Y-58085714D01*
X70679523Y-58085714D01*
X70584285Y-58133333D01*
X70536666Y-58228571D01*
X70536666Y-58276190D01*
X70584285Y-58371428D01*
X70679523Y-58419047D01*
X70917619Y-58419047D01*
X69917619Y-58752380D02*
X70012857Y-58704761D01*
X70060476Y-58657142D01*
X70108095Y-58561904D01*
X70108095Y-58276190D01*
X70060476Y-58180952D01*
X70012857Y-58133333D01*
X69917619Y-58085714D01*
X69774761Y-58085714D01*
X69679523Y-58133333D01*
X69631904Y-58180952D01*
X69584285Y-58276190D01*
X69584285Y-58561904D01*
X69631904Y-58657142D01*
X69679523Y-58704761D01*
X69774761Y-58752380D01*
X69917619Y-58752380D01*
X68679523Y-58180952D02*
X68727142Y-58133333D01*
X68822380Y-58085714D01*
X69012857Y-58085714D01*
X69108095Y-58133333D01*
X69155714Y-58180952D01*
X69203333Y-58276190D01*
X69203333Y-58561904D01*
X69155714Y-58657142D01*
X69108095Y-58704761D01*
X69012857Y-58752380D01*
X68870000Y-58752380D01*
X68774761Y-58704761D01*
X68727142Y-58657142D01*
X68679523Y-58561904D01*
X68679523Y-57942857D01*
X68727142Y-57847619D01*
X68774761Y-57800000D01*
X68870000Y-57752380D01*
X69060476Y-57752380D01*
X69155714Y-57800000D01*
X67822380Y-58704761D02*
X67917619Y-58752380D01*
X68108095Y-58752380D01*
X68203333Y-58704761D01*
X68250952Y-58657142D01*
X68298571Y-58561904D01*
X68298571Y-58276190D01*
X68250952Y-58180952D01*
X68203333Y-58133333D01*
X68108095Y-58085714D01*
X67917619Y-58085714D01*
X67822380Y-58133333D01*
X67536666Y-58085714D02*
X67060476Y-58085714D01*
X67298571Y-58085714D02*
X67298571Y-58752380D01*
X66489047Y-58419047D02*
X66346190Y-58466666D01*
X66298571Y-58561904D01*
X66298571Y-58609523D01*
X66346190Y-58704761D01*
X66441428Y-58752380D01*
X66727142Y-58752380D01*
X66727142Y-58085714D01*
X66489047Y-58085714D01*
X66393809Y-58133333D01*
X66346190Y-58228571D01*
X66346190Y-58276190D01*
X66393809Y-58371428D01*
X66489047Y-58419047D01*
X66727142Y-58419047D01*
X65727142Y-58752380D02*
X65822380Y-58704761D01*
X65870000Y-58657142D01*
X65917619Y-58561904D01*
X65917619Y-58276190D01*
X65870000Y-58180952D01*
X65822380Y-58133333D01*
X65727142Y-58085714D01*
X65584285Y-58085714D01*
X65489047Y-58133333D01*
X65441428Y-58180952D01*
X65393809Y-58276190D01*
X65393809Y-58561904D01*
X65441428Y-58657142D01*
X65489047Y-58704761D01*
X65584285Y-58752380D01*
X65727142Y-58752380D01*
X83631904Y-60071428D02*
X82870000Y-60071428D01*
X81917619Y-59880952D02*
X81965238Y-59833333D01*
X82060476Y-59785714D01*
X82250952Y-59785714D01*
X82346190Y-59833333D01*
X82393809Y-59880952D01*
X82441428Y-59976190D01*
X82441428Y-60261904D01*
X82393809Y-60357142D01*
X82346190Y-60404761D01*
X82250952Y-60452380D01*
X82108095Y-60452380D01*
X82012857Y-60404761D01*
X81965238Y-60357142D01*
X81917619Y-60261904D01*
X81917619Y-59642857D01*
X81965238Y-59547619D01*
X82012857Y-59500000D01*
X82108095Y-59452380D01*
X82298571Y-59452380D01*
X82393809Y-59500000D01*
X81346190Y-60452380D02*
X81441428Y-60404761D01*
X81489047Y-60357142D01*
X81536666Y-60261904D01*
X81536666Y-59976190D01*
X81489047Y-59880952D01*
X81441428Y-59833333D01*
X81346190Y-59785714D01*
X81203333Y-59785714D01*
X81108095Y-59833333D01*
X81060476Y-59880952D01*
X81012857Y-59976190D01*
X81012857Y-60261904D01*
X81060476Y-60357142D01*
X81108095Y-60404761D01*
X81203333Y-60452380D01*
X81346190Y-60452380D01*
X80584285Y-59785714D02*
X80584285Y-60452380D01*
X80489047Y-60071428D02*
X80203333Y-60452380D01*
X80203333Y-59785714D02*
X80584285Y-60166666D01*
X79870000Y-59785714D02*
X79631904Y-60452380D01*
X79393809Y-59785714D02*
X79631904Y-60452380D01*
X79727142Y-60690476D01*
X79774761Y-60738095D01*
X79870000Y-60785714D01*
X79012857Y-60452380D02*
X79012857Y-59785714D01*
X78727142Y-60309523D01*
X78441428Y-59785714D01*
X78441428Y-60452380D01*
X77584285Y-60404761D02*
X77679523Y-60452380D01*
X77870000Y-60452380D01*
X77965238Y-60404761D01*
X78012857Y-60309523D01*
X78012857Y-59928571D01*
X77965238Y-59833333D01*
X77870000Y-59785714D01*
X77679523Y-59785714D01*
X77584285Y-59833333D01*
X77536666Y-59928571D01*
X77536666Y-60023809D01*
X78012857Y-60119047D01*
X77108095Y-60119047D02*
X76679523Y-60119047D01*
X77108095Y-59785714D02*
X77108095Y-60452380D01*
X76679523Y-59785714D02*
X76679523Y-60452380D01*
X76346190Y-59785714D02*
X75870000Y-59785714D01*
X76108095Y-59785714D02*
X76108095Y-60452380D01*
X75108095Y-60452380D02*
X75108095Y-59928571D01*
X75155714Y-59833333D01*
X75250952Y-59785714D01*
X75441428Y-59785714D01*
X75536666Y-59833333D01*
X75108095Y-60404761D02*
X75203333Y-60452380D01*
X75441428Y-60452380D01*
X75536666Y-60404761D01*
X75584285Y-60309523D01*
X75584285Y-60214285D01*
X75536666Y-60119047D01*
X75441428Y-60071428D01*
X75203333Y-60071428D01*
X75108095Y-60023809D01*
X74203333Y-59785714D02*
X74203333Y-60452380D01*
X74631904Y-59785714D02*
X74631904Y-60452380D01*
X74108095Y-60452380D01*
X74108095Y-60690476D01*
X73727142Y-59785714D02*
X73727142Y-60452380D01*
X73250952Y-59785714D01*
X73250952Y-60452380D01*
X72584285Y-60166666D02*
X72822380Y-60452380D01*
X72393809Y-60452380D02*
X72393809Y-59785714D01*
X72679523Y-59785714D01*
X72774761Y-59833333D01*
X72822380Y-59928571D01*
X72822380Y-60023809D01*
X72774761Y-60119047D01*
X72679523Y-60166666D01*
X72393809Y-60166666D01*
X71155714Y-60452380D02*
X71155714Y-59785714D01*
X70727142Y-59785714D01*
X70727142Y-60452380D01*
X70108095Y-60452380D02*
X70203333Y-60404761D01*
X70250952Y-60357142D01*
X70298571Y-60261904D01*
X70298571Y-59976190D01*
X70250952Y-59880952D01*
X70203333Y-59833333D01*
X70108095Y-59785714D01*
X69965238Y-59785714D01*
X69870000Y-59833333D01*
X69822380Y-59880952D01*
X69774761Y-59976190D01*
X69774761Y-60261904D01*
X69822380Y-60357142D01*
X69870000Y-60404761D01*
X69965238Y-60452380D01*
X70108095Y-60452380D01*
X68584285Y-59928571D02*
X68250952Y-59928571D01*
X68108095Y-60452380D02*
X68584285Y-60452380D01*
X68584285Y-59452380D01*
X68108095Y-59452380D01*
X67108095Y-60357142D02*
X67155714Y-60404761D01*
X67298571Y-60452380D01*
X67393809Y-60452380D01*
X67536666Y-60404761D01*
X67631904Y-60309523D01*
X67679523Y-60214285D01*
X67727142Y-60023809D01*
X67727142Y-59880952D01*
X67679523Y-59690476D01*
X67631904Y-59595238D01*
X67536666Y-59500000D01*
X67393809Y-59452380D01*
X67298571Y-59452380D01*
X67155714Y-59500000D01*
X67108095Y-59547619D01*
X66679523Y-60452380D02*
X66679523Y-59452380D01*
X66108095Y-60452380D02*
X66536666Y-59880952D01*
X66108095Y-59452380D02*
X66679523Y-60023809D01*
X64917619Y-60690476D02*
X64917619Y-60452380D01*
X65774761Y-60452380D01*
X65774761Y-60690476D01*
X65108095Y-60452380D02*
X65108095Y-59452380D01*
X65346190Y-59452380D01*
X65441428Y-59500000D01*
X65489047Y-59547619D01*
X65536666Y-59642857D01*
X65631904Y-60452380D01*
X83631904Y-61771428D02*
X82870000Y-61771428D01*
X82393809Y-62152380D02*
X82393809Y-61485714D01*
X82108095Y-62009523D01*
X81822380Y-61485714D01*
X81822380Y-62152380D01*
X80965238Y-62104761D02*
X81060476Y-62152380D01*
X81250952Y-62152380D01*
X81346190Y-62104761D01*
X81393809Y-62009523D01*
X81393809Y-61628571D01*
X81346190Y-61533333D01*
X81250952Y-61485714D01*
X81060476Y-61485714D01*
X80965238Y-61533333D01*
X80917619Y-61628571D01*
X80917619Y-61723809D01*
X81393809Y-61819047D01*
X80108095Y-62152380D02*
X80108095Y-61485714D01*
X80250952Y-61485714D01*
X80346190Y-61533333D01*
X80393809Y-61628571D01*
X80441428Y-62009523D01*
X80489047Y-62104761D01*
X80584285Y-62152380D01*
X79631904Y-61485714D02*
X79631904Y-62152380D01*
X79536666Y-61771428D02*
X79250952Y-62152380D01*
X79250952Y-61485714D02*
X79631904Y-61866666D01*
X78679523Y-62152380D02*
X78774761Y-62104761D01*
X78822380Y-62057142D01*
X78870000Y-61961904D01*
X78870000Y-61676190D01*
X78822380Y-61580952D01*
X78774761Y-61533333D01*
X78679523Y-61485714D01*
X78536666Y-61485714D01*
X78441428Y-61533333D01*
X78393809Y-61580952D01*
X78346190Y-61676190D01*
X78346190Y-61961904D01*
X78393809Y-62057142D01*
X78441428Y-62104761D01*
X78536666Y-62152380D01*
X78679523Y-62152380D01*
X77489047Y-62104761D02*
X77584285Y-62152380D01*
X77774761Y-62152380D01*
X77870000Y-62104761D01*
X77917619Y-62057142D01*
X77965238Y-61961904D01*
X77965238Y-61676190D01*
X77917619Y-61580952D01*
X77870000Y-61533333D01*
X77774761Y-61485714D01*
X77584285Y-61485714D01*
X77489047Y-61533333D01*
X76679523Y-62104761D02*
X76774761Y-62152380D01*
X76965238Y-62152380D01*
X77060476Y-62104761D01*
X77108095Y-62009523D01*
X77108095Y-61628571D01*
X77060476Y-61533333D01*
X76965238Y-61485714D01*
X76774761Y-61485714D01*
X76679523Y-61533333D01*
X76631904Y-61628571D01*
X76631904Y-61723809D01*
X77108095Y-61819047D01*
X76203333Y-61485714D02*
X76203333Y-62485714D01*
X76203333Y-61533333D02*
X76108095Y-61485714D01*
X75917619Y-61485714D01*
X75822380Y-61533333D01*
X75774761Y-61580952D01*
X75727142Y-61676190D01*
X75727142Y-61961904D01*
X75774761Y-62057142D01*
X75822380Y-62104761D01*
X75917619Y-62152380D01*
X76108095Y-62152380D01*
X76203333Y-62104761D01*
X75298571Y-61485714D02*
X75298571Y-62152380D01*
X74822380Y-61485714D01*
X74822380Y-62152380D01*
X74346190Y-61485714D02*
X74346190Y-62152380D01*
X73870000Y-61485714D01*
X73870000Y-62152380D01*
X74298571Y-61104761D02*
X74250952Y-61200000D01*
X74155714Y-61247619D01*
X74060476Y-61247619D01*
X73965238Y-61200000D01*
X73917619Y-61104761D01*
X73393809Y-61819047D02*
X72965238Y-61819047D01*
X73393809Y-61485714D02*
X73393809Y-62152380D01*
X72965238Y-61485714D02*
X72965238Y-62152380D01*
X71822380Y-61485714D02*
X71822380Y-62152380D01*
X72489047Y-61485714D02*
X72489047Y-62152380D01*
X72250952Y-62152380D01*
X72155714Y-62104761D01*
X72108095Y-62009523D01*
X72108095Y-61866666D01*
X72155714Y-61771428D01*
X72250952Y-61723809D01*
X72489047Y-61723809D01*
X71346190Y-61485714D02*
X71346190Y-62152380D01*
X70870000Y-61485714D01*
X70870000Y-62152380D01*
X71298571Y-61104761D02*
X71250952Y-61200000D01*
X71155714Y-61247619D01*
X71060476Y-61247619D01*
X70965238Y-61200000D01*
X70917619Y-61104761D01*
X69631904Y-62152380D02*
X69631904Y-61485714D01*
X69346190Y-62009523D01*
X69060476Y-61485714D01*
X69060476Y-62152380D01*
X68441428Y-62152380D02*
X68536666Y-62104761D01*
X68584285Y-62057142D01*
X68631904Y-61961904D01*
X68631904Y-61676190D01*
X68584285Y-61580952D01*
X68536666Y-61533333D01*
X68441428Y-61485714D01*
X68298571Y-61485714D01*
X68203333Y-61533333D01*
X68155714Y-61580952D01*
X68108095Y-61676190D01*
X68108095Y-61961904D01*
X68155714Y-62057142D01*
X68203333Y-62104761D01*
X68298571Y-62152380D01*
X68441428Y-62152380D01*
X67679523Y-61819047D02*
X67250952Y-61819047D01*
X67679523Y-61485714D02*
X67679523Y-62152380D01*
X67250952Y-61485714D02*
X67250952Y-62152380D01*
X66917619Y-61485714D02*
X66441428Y-61485714D01*
X66679523Y-61485714D02*
X66679523Y-62152380D01*
X65679523Y-62152380D02*
X65679523Y-61628571D01*
X65727142Y-61533333D01*
X65822380Y-61485714D01*
X66012857Y-61485714D01*
X66108095Y-61533333D01*
X65679523Y-62104761D02*
X65774761Y-62152380D01*
X66012857Y-62152380D01*
X66108095Y-62104761D01*
X66155714Y-62009523D01*
X66155714Y-61914285D01*
X66108095Y-61819047D01*
X66012857Y-61771428D01*
X65774761Y-61771428D01*
X65679523Y-61723809D01*
X64917619Y-61819047D02*
X65250952Y-62152380D01*
X64870000Y-61866666D02*
X65250952Y-61485714D01*
X64870000Y-61485714D02*
X64870000Y-62152380D01*
X64489047Y-62152380D02*
X64822380Y-61819047D01*
X64489047Y-61485714D02*
X64870000Y-61866666D01*
X83631904Y-63471428D02*
X82870000Y-63471428D01*
X82393809Y-63185714D02*
X82393809Y-63852380D01*
X81917619Y-63185714D01*
X81917619Y-63852380D01*
X81441428Y-63852380D02*
X81441428Y-63185714D01*
X81155714Y-63709523D01*
X80870000Y-63185714D01*
X80870000Y-63852380D01*
X80393809Y-63852380D02*
X80393809Y-63185714D01*
X79965238Y-63185714D01*
X79965238Y-63852380D01*
X79346190Y-63852380D02*
X79441428Y-63804761D01*
X79489047Y-63757142D01*
X79536666Y-63661904D01*
X79536666Y-63376190D01*
X79489047Y-63280952D01*
X79441428Y-63233333D01*
X79346190Y-63185714D01*
X79203333Y-63185714D01*
X79108095Y-63233333D01*
X79060476Y-63280952D01*
X79012857Y-63376190D01*
X79012857Y-63661904D01*
X79060476Y-63757142D01*
X79108095Y-63804761D01*
X79203333Y-63852380D01*
X79346190Y-63852380D01*
X78584285Y-63185714D02*
X78584285Y-64185714D01*
X78584285Y-63233333D02*
X78489047Y-63185714D01*
X78298571Y-63185714D01*
X78203333Y-63233333D01*
X78155714Y-63280952D01*
X78108095Y-63376190D01*
X78108095Y-63661904D01*
X78155714Y-63757142D01*
X78203333Y-63804761D01*
X78298571Y-63852380D01*
X78489047Y-63852380D01*
X78584285Y-63804761D01*
X77822380Y-63185714D02*
X77346190Y-63185714D01*
X77584285Y-63185714D02*
X77584285Y-63852380D01*
X76870000Y-63852380D02*
X76965238Y-63804761D01*
X77012857Y-63757142D01*
X77060476Y-63661904D01*
X77060476Y-63376190D01*
X77012857Y-63280952D01*
X76965238Y-63233333D01*
X76870000Y-63185714D01*
X76727142Y-63185714D01*
X76631904Y-63233333D01*
X76584285Y-63280952D01*
X76536666Y-63376190D01*
X76536666Y-63661904D01*
X76584285Y-63757142D01*
X76631904Y-63804761D01*
X76727142Y-63852380D01*
X76870000Y-63852380D01*
X76012857Y-63519047D02*
X75917619Y-63519047D01*
X76203333Y-63233333D02*
X76108095Y-63185714D01*
X75917619Y-63185714D01*
X75822380Y-63233333D01*
X75774761Y-63328571D01*
X75774761Y-63376190D01*
X75822380Y-63471428D01*
X75917619Y-63519047D01*
X75822380Y-63566666D01*
X75774761Y-63661904D01*
X75774761Y-63709523D01*
X75822380Y-63804761D01*
X75917619Y-63852380D01*
X76108095Y-63852380D01*
X76203333Y-63804761D01*
X74917619Y-63852380D02*
X74917619Y-63328571D01*
X74965238Y-63233333D01*
X75060476Y-63185714D01*
X75250952Y-63185714D01*
X75346190Y-63233333D01*
X74917619Y-63804761D02*
X75012857Y-63852380D01*
X75250952Y-63852380D01*
X75346190Y-63804761D01*
X75393809Y-63709523D01*
X75393809Y-63614285D01*
X75346190Y-63519047D01*
X75250952Y-63471428D01*
X75012857Y-63471428D01*
X74917619Y-63423809D01*
X74441428Y-63852380D02*
X74441428Y-63185714D01*
X74155714Y-63709523D01*
X73870000Y-63185714D01*
X73870000Y-63852380D01*
X73012857Y-63804761D02*
X73108095Y-63852380D01*
X73298571Y-63852380D01*
X73393809Y-63804761D01*
X73441428Y-63709523D01*
X73441428Y-63328571D01*
X73393809Y-63233333D01*
X73298571Y-63185714D01*
X73108095Y-63185714D01*
X73012857Y-63233333D01*
X72965238Y-63328571D01*
X72965238Y-63423809D01*
X73441428Y-63519047D01*
X72203333Y-63185714D02*
X72203333Y-63852380D01*
X72536666Y-63185714D02*
X72536666Y-63852380D01*
X71870000Y-63852380D01*
X71870000Y-63185714D01*
X71870000Y-63852380D02*
X71774761Y-63852380D01*
X71774761Y-64090476D01*
X71012857Y-63804761D02*
X71108095Y-63852380D01*
X71298571Y-63852380D01*
X71393809Y-63804761D01*
X71441428Y-63709523D01*
X71441428Y-63328571D01*
X71393809Y-63233333D01*
X71298571Y-63185714D01*
X71108095Y-63185714D01*
X71012857Y-63233333D01*
X70965238Y-63328571D01*
X70965238Y-63423809D01*
X71441428Y-63519047D01*
X70536666Y-63519047D02*
X70108095Y-63519047D01*
X70536666Y-63185714D02*
X70536666Y-63852380D01*
X70108095Y-63185714D02*
X70108095Y-63852380D01*
X69631904Y-63185714D02*
X69631904Y-63852380D01*
X69155714Y-63185714D01*
X69155714Y-63852380D01*
X68298571Y-63804761D02*
X68393809Y-63852380D01*
X68584285Y-63852380D01*
X68679523Y-63804761D01*
X68727142Y-63709523D01*
X68727142Y-63328571D01*
X68679523Y-63233333D01*
X68584285Y-63185714D01*
X68393809Y-63185714D01*
X68298571Y-63233333D01*
X68250952Y-63328571D01*
X68250952Y-63423809D01*
X68727142Y-63519047D01*
X66774761Y-64233333D02*
X66822380Y-64185714D01*
X66917619Y-64042857D01*
X66965238Y-63947619D01*
X67012857Y-63804761D01*
X67060476Y-63566666D01*
X67060476Y-63376190D01*
X67012857Y-63138095D01*
X66965238Y-62995238D01*
X66917619Y-62900000D01*
X66822380Y-62757142D01*
X66774761Y-62709523D01*
X65250952Y-63804761D02*
X65346190Y-63852380D01*
X65536666Y-63852380D01*
X65631904Y-63804761D01*
X65679523Y-63709523D01*
X65679523Y-63328571D01*
X65631904Y-63233333D01*
X65536666Y-63185714D01*
X65346190Y-63185714D01*
X65250952Y-63233333D01*
X65203333Y-63328571D01*
X65203333Y-63423809D01*
X65679523Y-63519047D01*
X64346190Y-63804761D02*
X64441428Y-63852380D01*
X64631904Y-63852380D01*
X64727142Y-63804761D01*
X64774761Y-63757142D01*
X64822380Y-63661904D01*
X64822380Y-63376190D01*
X64774761Y-63280952D01*
X64727142Y-63233333D01*
X64631904Y-63185714D01*
X64441428Y-63185714D01*
X64346190Y-63233333D01*
X63536666Y-63852380D02*
X63536666Y-63185714D01*
X63679523Y-63185714D01*
X63774761Y-63233333D01*
X63822380Y-63328571D01*
X63870000Y-63709523D01*
X63917619Y-63804761D01*
X64012857Y-63852380D01*
X63060476Y-63185714D02*
X63060476Y-63852380D01*
X62584285Y-63185714D01*
X62584285Y-63852380D01*
X61346190Y-63519047D02*
X60917619Y-63519047D01*
X61346190Y-63185714D02*
X61346190Y-63852380D01*
X60917619Y-63185714D02*
X60917619Y-63852380D01*
X60012857Y-63852380D02*
X60012857Y-63328571D01*
X60060476Y-63233333D01*
X60155714Y-63185714D01*
X60346190Y-63185714D01*
X60441428Y-63233333D01*
X60012857Y-63804761D02*
X60108095Y-63852380D01*
X60346190Y-63852380D01*
X60441428Y-63804761D01*
X60489047Y-63709523D01*
X60489047Y-63614285D01*
X60441428Y-63519047D01*
X60346190Y-63471428D01*
X60108095Y-63471428D01*
X60012857Y-63423809D01*
X59060476Y-63280952D02*
X59108095Y-63233333D01*
X59203333Y-63185714D01*
X59393809Y-63185714D01*
X59489047Y-63233333D01*
X59536666Y-63280952D01*
X59584285Y-63376190D01*
X59584285Y-63661904D01*
X59536666Y-63757142D01*
X59489047Y-63804761D01*
X59393809Y-63852380D01*
X59250952Y-63852380D01*
X59155714Y-63804761D01*
X59108095Y-63757142D01*
X59060476Y-63661904D01*
X59060476Y-63042857D01*
X59108095Y-62947619D01*
X59155714Y-62900000D01*
X59250952Y-62852380D01*
X59441428Y-62852380D01*
X59536666Y-62900000D01*
X58489047Y-63852380D02*
X58584285Y-63804761D01*
X58631904Y-63757142D01*
X58679523Y-63661904D01*
X58679523Y-63376190D01*
X58631904Y-63280952D01*
X58584285Y-63233333D01*
X58489047Y-63185714D01*
X58346190Y-63185714D01*
X58250952Y-63233333D01*
X58203333Y-63280952D01*
X58155714Y-63376190D01*
X58155714Y-63661904D01*
X58203333Y-63757142D01*
X58250952Y-63804761D01*
X58346190Y-63852380D01*
X58489047Y-63852380D01*
X56965238Y-63757142D02*
X56917619Y-63804761D01*
X56965238Y-63852380D01*
X57012857Y-63804761D01*
X56965238Y-63757142D01*
X56965238Y-63852380D01*
X56965238Y-63233333D02*
X56917619Y-63280952D01*
X56965238Y-63328571D01*
X57012857Y-63280952D01*
X56965238Y-63233333D01*
X56965238Y-63328571D01*
X56584285Y-64233333D02*
X56536666Y-64185714D01*
X56441428Y-64042857D01*
X56393809Y-63947619D01*
X56346190Y-63804761D01*
X56298571Y-63566666D01*
X56298571Y-63376190D01*
X56346190Y-63138095D01*
X56393809Y-62995238D01*
X56441428Y-62900000D01*
X56536666Y-62757142D01*
X56584285Y-62709523D01*
D11*
G04 #@! TO.C,G\002A\002A\002A*
G36*
X62529676Y-51348698D02*
X62351505Y-51418494D01*
X62195989Y-51535818D01*
X62101552Y-51663742D01*
X62049410Y-51787662D01*
X62010944Y-51917833D01*
X61990747Y-52031150D01*
X61993415Y-52104507D01*
X62010878Y-52119754D01*
X62066303Y-52100816D01*
X62172602Y-52054895D01*
X62282842Y-52003337D01*
X62437615Y-51931986D01*
X62633269Y-51846328D01*
X62831841Y-51762920D01*
X62865370Y-51749260D01*
X63016725Y-51682806D01*
X63128954Y-51623576D01*
X63185779Y-51580657D01*
X63188739Y-51568738D01*
X63125260Y-51514748D01*
X63009268Y-51451052D01*
X62869673Y-51391154D01*
X62735382Y-51348560D01*
X62702364Y-51341519D01*
X62529676Y-51348698D01*
X62529676Y-51348698D01*
G37*
X62529676Y-51348698D02*
X62351505Y-51418494D01*
X62195989Y-51535818D01*
X62101552Y-51663742D01*
X62049410Y-51787662D01*
X62010944Y-51917833D01*
X61990747Y-52031150D01*
X61993415Y-52104507D01*
X62010878Y-52119754D01*
X62066303Y-52100816D01*
X62172602Y-52054895D01*
X62282842Y-52003337D01*
X62437615Y-51931986D01*
X62633269Y-51846328D01*
X62831841Y-51762920D01*
X62865370Y-51749260D01*
X63016725Y-51682806D01*
X63128954Y-51623576D01*
X63185779Y-51580657D01*
X63188739Y-51568738D01*
X63125260Y-51514748D01*
X63009268Y-51451052D01*
X62869673Y-51391154D01*
X62735382Y-51348560D01*
X62702364Y-51341519D01*
X62529676Y-51348698D01*
G36*
X67372237Y-51338975D02*
X67254638Y-51408237D01*
X67162394Y-51525701D01*
X67102612Y-51673505D01*
X67082397Y-51833785D01*
X67108854Y-51988678D01*
X67189088Y-52120319D01*
X67194028Y-52125361D01*
X67310322Y-52198130D01*
X67435953Y-52188408D01*
X67521156Y-52141596D01*
X67636648Y-52019549D01*
X67717349Y-51857408D01*
X67742000Y-51720833D01*
X67714431Y-51571752D01*
X67643445Y-51438821D01*
X67546621Y-51350979D01*
X67508088Y-51335779D01*
X67372237Y-51338975D01*
X67372237Y-51338975D01*
G37*
X67372237Y-51338975D02*
X67254638Y-51408237D01*
X67162394Y-51525701D01*
X67102612Y-51673505D01*
X67082397Y-51833785D01*
X67108854Y-51988678D01*
X67189088Y-52120319D01*
X67194028Y-52125361D01*
X67310322Y-52198130D01*
X67435953Y-52188408D01*
X67521156Y-52141596D01*
X67636648Y-52019549D01*
X67717349Y-51857408D01*
X67742000Y-51720833D01*
X67714431Y-51571752D01*
X67643445Y-51438821D01*
X67546621Y-51350979D01*
X67508088Y-51335779D01*
X67372237Y-51338975D01*
G36*
X63289354Y-51757950D02*
X63175005Y-51802118D01*
X63010341Y-51868977D01*
X62809032Y-51953002D01*
X62642306Y-52023927D01*
X62401219Y-52128093D01*
X62227389Y-52206310D01*
X62109897Y-52265146D01*
X62037827Y-52311168D01*
X62000260Y-52350945D01*
X61986279Y-52391042D01*
X61984666Y-52419533D01*
X62025833Y-52552543D01*
X62146799Y-52666966D01*
X62180463Y-52687292D01*
X62221622Y-52668062D01*
X62265731Y-52574559D01*
X62281228Y-52524353D01*
X62334362Y-52334577D01*
X62471427Y-52419288D01*
X62564695Y-52473982D01*
X62623010Y-52502722D01*
X62628546Y-52504000D01*
X62651747Y-52467607D01*
X62686217Y-52376183D01*
X62700141Y-52331965D01*
X62751684Y-52159930D01*
X62903913Y-52249748D01*
X63023152Y-52301976D01*
X63095083Y-52286168D01*
X63125714Y-52200055D01*
X63127666Y-52165333D01*
X63148217Y-52060557D01*
X63208306Y-52026336D01*
X63314216Y-52060368D01*
X63353929Y-52082398D01*
X63508666Y-52173696D01*
X63508666Y-52082745D01*
X63490846Y-51985546D01*
X63447417Y-51876191D01*
X63393428Y-51785032D01*
X63343929Y-51742422D01*
X63339719Y-51742000D01*
X63289354Y-51757950D01*
X63289354Y-51757950D01*
G37*
X63289354Y-51757950D02*
X63175005Y-51802118D01*
X63010341Y-51868977D01*
X62809032Y-51953002D01*
X62642306Y-52023927D01*
X62401219Y-52128093D01*
X62227389Y-52206310D01*
X62109897Y-52265146D01*
X62037827Y-52311168D01*
X62000260Y-52350945D01*
X61986279Y-52391042D01*
X61984666Y-52419533D01*
X62025833Y-52552543D01*
X62146799Y-52666966D01*
X62180463Y-52687292D01*
X62221622Y-52668062D01*
X62265731Y-52574559D01*
X62281228Y-52524353D01*
X62334362Y-52334577D01*
X62471427Y-52419288D01*
X62564695Y-52473982D01*
X62623010Y-52502722D01*
X62628546Y-52504000D01*
X62651747Y-52467607D01*
X62686217Y-52376183D01*
X62700141Y-52331965D01*
X62751684Y-52159930D01*
X62903913Y-52249748D01*
X63023152Y-52301976D01*
X63095083Y-52286168D01*
X63125714Y-52200055D01*
X63127666Y-52165333D01*
X63148217Y-52060557D01*
X63208306Y-52026336D01*
X63314216Y-52060368D01*
X63353929Y-52082398D01*
X63508666Y-52173696D01*
X63508666Y-52082745D01*
X63490846Y-51985546D01*
X63447417Y-51876191D01*
X63393428Y-51785032D01*
X63343929Y-51742422D01*
X63339719Y-51742000D01*
X63289354Y-51757950D01*
G36*
X63260080Y-52286904D02*
X63234775Y-52377790D01*
X63230619Y-52398634D01*
X63196007Y-52523036D01*
X63144886Y-52569552D01*
X63063132Y-52544928D01*
X63004426Y-52506676D01*
X62916965Y-52448620D01*
X62862181Y-52419972D01*
X62858466Y-52419333D01*
X62836225Y-52456226D01*
X62811434Y-52547087D01*
X62807286Y-52567967D01*
X62775231Y-52688796D01*
X62726832Y-52735276D01*
X62643305Y-52715420D01*
X62563443Y-52672017D01*
X62416052Y-52585054D01*
X62387138Y-52756193D01*
X62357834Y-52875481D01*
X62312312Y-52920849D01*
X62233151Y-52903036D01*
X62186616Y-52879799D01*
X62097798Y-52832265D01*
X62181108Y-52974911D01*
X62272806Y-53092756D01*
X62362009Y-53132806D01*
X62430048Y-53104503D01*
X62489121Y-53070588D01*
X62601734Y-53019052D01*
X62725500Y-52968235D01*
X63050883Y-52836044D01*
X63312203Y-52719283D01*
X63505368Y-52620084D01*
X63626285Y-52540581D01*
X63670860Y-52482907D01*
X63670611Y-52475729D01*
X63649163Y-52423550D01*
X63635666Y-52421753D01*
X63590252Y-52412489D01*
X63501324Y-52368346D01*
X63461336Y-52344660D01*
X63361407Y-52286198D01*
X63294179Y-52252921D01*
X63283338Y-52250000D01*
X63260080Y-52286904D01*
X63260080Y-52286904D01*
G37*
X63260080Y-52286904D02*
X63234775Y-52377790D01*
X63230619Y-52398634D01*
X63196007Y-52523036D01*
X63144886Y-52569552D01*
X63063132Y-52544928D01*
X63004426Y-52506676D01*
X62916965Y-52448620D01*
X62862181Y-52419972D01*
X62858466Y-52419333D01*
X62836225Y-52456226D01*
X62811434Y-52547087D01*
X62807286Y-52567967D01*
X62775231Y-52688796D01*
X62726832Y-52735276D01*
X62643305Y-52715420D01*
X62563443Y-52672017D01*
X62416052Y-52585054D01*
X62387138Y-52756193D01*
X62357834Y-52875481D01*
X62312312Y-52920849D01*
X62233151Y-52903036D01*
X62186616Y-52879799D01*
X62097798Y-52832265D01*
X62181108Y-52974911D01*
X62272806Y-53092756D01*
X62362009Y-53132806D01*
X62430048Y-53104503D01*
X62489121Y-53070588D01*
X62601734Y-53019052D01*
X62725500Y-52968235D01*
X63050883Y-52836044D01*
X63312203Y-52719283D01*
X63505368Y-52620084D01*
X63626285Y-52540581D01*
X63670860Y-52482907D01*
X63670611Y-52475729D01*
X63649163Y-52423550D01*
X63635666Y-52421753D01*
X63590252Y-52412489D01*
X63501324Y-52368346D01*
X63461336Y-52344660D01*
X63361407Y-52286198D01*
X63294179Y-52252921D01*
X63283338Y-52250000D01*
X63260080Y-52286904D01*
G36*
X73569656Y-53156865D02*
X73476320Y-53168080D01*
X73402739Y-53186768D01*
X73397543Y-53188510D01*
X73216950Y-53291953D01*
X73093717Y-53453881D01*
X73053712Y-53566710D01*
X73027603Y-53676920D01*
X73570385Y-53704447D01*
X73813522Y-53717201D01*
X74061056Y-53730906D01*
X74282129Y-53743814D01*
X74430666Y-53753152D01*
X74662607Y-53757028D01*
X74842446Y-53736139D01*
X74894867Y-53721248D01*
X75013787Y-53649955D01*
X75125437Y-53537773D01*
X75206767Y-53412554D01*
X75235000Y-53310256D01*
X75225951Y-53285424D01*
X75191782Y-53265189D01*
X75121955Y-53247986D01*
X75005935Y-53232252D01*
X74833184Y-53216421D01*
X74593167Y-53198929D01*
X74398916Y-53186110D01*
X74097375Y-53167745D01*
X73867264Y-53156729D01*
X73695664Y-53153092D01*
X73569656Y-53156865D01*
X73569656Y-53156865D01*
G37*
X73569656Y-53156865D02*
X73476320Y-53168080D01*
X73402739Y-53186768D01*
X73397543Y-53188510D01*
X73216950Y-53291953D01*
X73093717Y-53453881D01*
X73053712Y-53566710D01*
X73027603Y-53676920D01*
X73570385Y-53704447D01*
X73813522Y-53717201D01*
X74061056Y-53730906D01*
X74282129Y-53743814D01*
X74430666Y-53753152D01*
X74662607Y-53757028D01*
X74842446Y-53736139D01*
X74894867Y-53721248D01*
X75013787Y-53649955D01*
X75125437Y-53537773D01*
X75206767Y-53412554D01*
X75235000Y-53310256D01*
X75225951Y-53285424D01*
X75191782Y-53265189D01*
X75121955Y-53247986D01*
X75005935Y-53232252D01*
X74833184Y-53216421D01*
X74593167Y-53198929D01*
X74398916Y-53186110D01*
X74097375Y-53167745D01*
X73867264Y-53156729D01*
X73695664Y-53153092D01*
X73569656Y-53156865D01*
G36*
X63624215Y-52785696D02*
X63513413Y-52822903D01*
X63350996Y-52885593D01*
X63149572Y-52968721D01*
X62921748Y-53067244D01*
X62694087Y-53169709D01*
X62563677Y-53231818D01*
X62498535Y-53273755D01*
X62486261Y-53309061D01*
X62514457Y-53351274D01*
X62521062Y-53358654D01*
X62607118Y-53421268D01*
X62730144Y-53477047D01*
X62756372Y-53485576D01*
X62816588Y-53504412D01*
X62866173Y-53526979D01*
X62910449Y-53562853D01*
X62954736Y-53621615D01*
X63004354Y-53712842D01*
X63064626Y-53846114D01*
X63140870Y-54031009D01*
X63238409Y-54277106D01*
X63339856Y-54536000D01*
X63436394Y-54779015D01*
X63525332Y-54996281D01*
X63601178Y-55174909D01*
X63658445Y-55302010D01*
X63691643Y-55364697D01*
X63693999Y-55367539D01*
X63812963Y-55436348D01*
X63944942Y-55432437D01*
X64007382Y-55401338D01*
X64087125Y-55296965D01*
X64101333Y-55211992D01*
X64086143Y-55136839D01*
X64043677Y-54996786D01*
X63978588Y-54805351D01*
X63895529Y-54576048D01*
X63799157Y-54322395D01*
X63764574Y-54233999D01*
X63427816Y-53379544D01*
X63505795Y-53269855D01*
X63559909Y-53173783D01*
X63612223Y-53049737D01*
X63653745Y-52924470D01*
X63675481Y-52824735D01*
X63670792Y-52779014D01*
X63624215Y-52785696D01*
X63624215Y-52785696D01*
G37*
X63624215Y-52785696D02*
X63513413Y-52822903D01*
X63350996Y-52885593D01*
X63149572Y-52968721D01*
X62921748Y-53067244D01*
X62694087Y-53169709D01*
X62563677Y-53231818D01*
X62498535Y-53273755D01*
X62486261Y-53309061D01*
X62514457Y-53351274D01*
X62521062Y-53358654D01*
X62607118Y-53421268D01*
X62730144Y-53477047D01*
X62756372Y-53485576D01*
X62816588Y-53504412D01*
X62866173Y-53526979D01*
X62910449Y-53562853D01*
X62954736Y-53621615D01*
X63004354Y-53712842D01*
X63064626Y-53846114D01*
X63140870Y-54031009D01*
X63238409Y-54277106D01*
X63339856Y-54536000D01*
X63436394Y-54779015D01*
X63525332Y-54996281D01*
X63601178Y-55174909D01*
X63658445Y-55302010D01*
X63691643Y-55364697D01*
X63693999Y-55367539D01*
X63812963Y-55436348D01*
X63944942Y-55432437D01*
X64007382Y-55401338D01*
X64087125Y-55296965D01*
X64101333Y-55211992D01*
X64086143Y-55136839D01*
X64043677Y-54996786D01*
X63978588Y-54805351D01*
X63895529Y-54576048D01*
X63799157Y-54322395D01*
X63764574Y-54233999D01*
X63427816Y-53379544D01*
X63505795Y-53269855D01*
X63559909Y-53173783D01*
X63612223Y-53049737D01*
X63653745Y-52924470D01*
X63675481Y-52824735D01*
X63670792Y-52779014D01*
X63624215Y-52785696D01*
G36*
X55418998Y-52293729D02*
X55157675Y-52348545D01*
X55043192Y-52384896D01*
X54973599Y-52419810D01*
X54951152Y-52465198D01*
X54978108Y-52532974D01*
X55056724Y-52635050D01*
X55189256Y-52783338D01*
X55253278Y-52853250D01*
X55410003Y-53014477D01*
X55524107Y-53107233D01*
X55600419Y-53133163D01*
X55643766Y-53093917D01*
X55658968Y-52991688D01*
X55699592Y-52826404D01*
X55812080Y-52703528D01*
X55994257Y-52624404D01*
X56243949Y-52590370D01*
X56312000Y-52589061D01*
X56529544Y-52621619D01*
X56695903Y-52716570D01*
X56804369Y-52869534D01*
X56823738Y-52923116D01*
X56851570Y-53093523D01*
X56820248Y-53235669D01*
X56724688Y-53353837D01*
X56559810Y-53452309D01*
X56320532Y-53535369D01*
X56014896Y-53604813D01*
X55716927Y-53671096D01*
X55495048Y-53744780D01*
X55340696Y-53831825D01*
X55245305Y-53938193D01*
X55200313Y-54069846D01*
X55194121Y-54176181D01*
X55240259Y-54398189D01*
X55365307Y-54618947D01*
X55563632Y-54832633D01*
X55829600Y-55033424D01*
X56157578Y-55215497D01*
X56233838Y-55250825D01*
X56522989Y-55366548D01*
X56779333Y-55432920D01*
X57028221Y-55451423D01*
X57295009Y-55423540D01*
X57605047Y-55350752D01*
X57662715Y-55334356D01*
X57941833Y-55253482D01*
X58050749Y-55381574D01*
X58144056Y-55479465D01*
X58198191Y-55505883D01*
X58216723Y-55462443D01*
X58216779Y-55456750D01*
X58191918Y-55405611D01*
X58123868Y-55301917D01*
X58022170Y-55159351D01*
X57896367Y-54991598D01*
X57855165Y-54938166D01*
X57673182Y-54710774D01*
X57535610Y-54554916D01*
X57442075Y-54470275D01*
X57392201Y-54456534D01*
X57385613Y-54513376D01*
X57392692Y-54546846D01*
X57377232Y-54650054D01*
X57290334Y-54762072D01*
X57143139Y-54873009D01*
X56946784Y-54972974D01*
X56885382Y-54997326D01*
X56613350Y-55070566D01*
X56376043Y-55076578D01*
X56179829Y-55017248D01*
X56031074Y-54894460D01*
X55938240Y-54716804D01*
X55907032Y-54554921D01*
X55930802Y-54421645D01*
X56015520Y-54311823D01*
X56167154Y-54220304D01*
X56391674Y-54141935D01*
X56682954Y-54073963D01*
X57004996Y-53999134D01*
X57248506Y-53916008D01*
X57419569Y-53819156D01*
X57524270Y-53703150D01*
X57568695Y-53562561D01*
X57558928Y-53391962D01*
X57539974Y-53309476D01*
X57448808Y-53112774D01*
X57287546Y-52913576D01*
X57069658Y-52723022D01*
X56808609Y-52552251D01*
X56517867Y-52412401D01*
X56404729Y-52370474D01*
X56098894Y-52299074D01*
X55758067Y-52273277D01*
X55418998Y-52293729D01*
X55418998Y-52293729D01*
G37*
X55418998Y-52293729D02*
X55157675Y-52348545D01*
X55043192Y-52384896D01*
X54973599Y-52419810D01*
X54951152Y-52465198D01*
X54978108Y-52532974D01*
X55056724Y-52635050D01*
X55189256Y-52783338D01*
X55253278Y-52853250D01*
X55410003Y-53014477D01*
X55524107Y-53107233D01*
X55600419Y-53133163D01*
X55643766Y-53093917D01*
X55658968Y-52991688D01*
X55699592Y-52826404D01*
X55812080Y-52703528D01*
X55994257Y-52624404D01*
X56243949Y-52590370D01*
X56312000Y-52589061D01*
X56529544Y-52621619D01*
X56695903Y-52716570D01*
X56804369Y-52869534D01*
X56823738Y-52923116D01*
X56851570Y-53093523D01*
X56820248Y-53235669D01*
X56724688Y-53353837D01*
X56559810Y-53452309D01*
X56320532Y-53535369D01*
X56014896Y-53604813D01*
X55716927Y-53671096D01*
X55495048Y-53744780D01*
X55340696Y-53831825D01*
X55245305Y-53938193D01*
X55200313Y-54069846D01*
X55194121Y-54176181D01*
X55240259Y-54398189D01*
X55365307Y-54618947D01*
X55563632Y-54832633D01*
X55829600Y-55033424D01*
X56157578Y-55215497D01*
X56233838Y-55250825D01*
X56522989Y-55366548D01*
X56779333Y-55432920D01*
X57028221Y-55451423D01*
X57295009Y-55423540D01*
X57605047Y-55350752D01*
X57662715Y-55334356D01*
X57941833Y-55253482D01*
X58050749Y-55381574D01*
X58144056Y-55479465D01*
X58198191Y-55505883D01*
X58216723Y-55462443D01*
X58216779Y-55456750D01*
X58191918Y-55405611D01*
X58123868Y-55301917D01*
X58022170Y-55159351D01*
X57896367Y-54991598D01*
X57855165Y-54938166D01*
X57673182Y-54710774D01*
X57535610Y-54554916D01*
X57442075Y-54470275D01*
X57392201Y-54456534D01*
X57385613Y-54513376D01*
X57392692Y-54546846D01*
X57377232Y-54650054D01*
X57290334Y-54762072D01*
X57143139Y-54873009D01*
X56946784Y-54972974D01*
X56885382Y-54997326D01*
X56613350Y-55070566D01*
X56376043Y-55076578D01*
X56179829Y-55017248D01*
X56031074Y-54894460D01*
X55938240Y-54716804D01*
X55907032Y-54554921D01*
X55930802Y-54421645D01*
X56015520Y-54311823D01*
X56167154Y-54220304D01*
X56391674Y-54141935D01*
X56682954Y-54073963D01*
X57004996Y-53999134D01*
X57248506Y-53916008D01*
X57419569Y-53819156D01*
X57524270Y-53703150D01*
X57568695Y-53562561D01*
X57558928Y-53391962D01*
X57539974Y-53309476D01*
X57448808Y-53112774D01*
X57287546Y-52913576D01*
X57069658Y-52723022D01*
X56808609Y-52552251D01*
X56517867Y-52412401D01*
X56404729Y-52370474D01*
X56098894Y-52299074D01*
X55758067Y-52273277D01*
X55418998Y-52293729D01*
G36*
X60288584Y-50680694D02*
X60242312Y-50773535D01*
X60219782Y-50913613D01*
X60223864Y-51088908D01*
X60257425Y-51287398D01*
X60278361Y-51365920D01*
X60362168Y-51650505D01*
X60222164Y-51676770D01*
X60101574Y-51719702D01*
X59979120Y-51794087D01*
X59879684Y-51880983D01*
X59828150Y-51961449D01*
X59825666Y-51978596D01*
X59843973Y-52034079D01*
X59857416Y-52040760D01*
X59912028Y-52044009D01*
X60028616Y-52050464D01*
X60184607Y-52058880D01*
X60227833Y-52061183D01*
X60409010Y-52074773D01*
X60525917Y-52095600D01*
X60598924Y-52128833D01*
X60637163Y-52165055D01*
X60682594Y-52232648D01*
X60760280Y-52361292D01*
X60862599Y-52537352D01*
X60981926Y-52747194D01*
X61110636Y-52977182D01*
X61241105Y-53213684D01*
X61365708Y-53443062D01*
X61476821Y-53651684D01*
X61566821Y-53825914D01*
X61575003Y-53842192D01*
X61739949Y-54208400D01*
X61847240Y-54531389D01*
X61896646Y-54807715D01*
X61887939Y-55033936D01*
X61820888Y-55206609D01*
X61695264Y-55322293D01*
X61674299Y-55333120D01*
X61523492Y-55359937D01*
X61350645Y-55311161D01*
X61162263Y-55190908D01*
X60964852Y-55003294D01*
X60863871Y-54877131D01*
X60051767Y-54877131D01*
X60030240Y-55054590D01*
X59974909Y-55169811D01*
X59855341Y-55242704D01*
X59698434Y-55244624D01*
X59512115Y-55176148D01*
X59432911Y-55130311D01*
X59241730Y-54972639D01*
X59044606Y-54742099D01*
X58849459Y-54449347D01*
X58664205Y-54105039D01*
X58651610Y-54078859D01*
X58463664Y-53685218D01*
X58652525Y-53507359D01*
X58828551Y-53314962D01*
X58941045Y-53121011D01*
X59000688Y-52927643D01*
X59012113Y-52874660D01*
X58594279Y-52874660D01*
X58590952Y-53021473D01*
X58560390Y-53170147D01*
X58529676Y-53249018D01*
X58468235Y-53357648D01*
X58422590Y-53384561D01*
X58387780Y-53330120D01*
X58370458Y-53260708D01*
X58348283Y-53092788D01*
X58343884Y-52920631D01*
X58355964Y-52769192D01*
X58383225Y-52663424D01*
X58403015Y-52634722D01*
X58474739Y-52609737D01*
X58532783Y-52652356D01*
X58573760Y-52746143D01*
X58594279Y-52874660D01*
X59012113Y-52874660D01*
X59032573Y-52779787D01*
X59270370Y-53039450D01*
X59533074Y-53362384D01*
X59736931Y-53700705D01*
X59900722Y-54086174D01*
X59917382Y-54133638D01*
X59994466Y-54400956D01*
X60039552Y-54654020D01*
X60051767Y-54877131D01*
X60863871Y-54877131D01*
X60771669Y-54761937D01*
X60657322Y-54587777D01*
X60584192Y-54432270D01*
X60534393Y-54253442D01*
X60516444Y-54162972D01*
X60422639Y-53814551D01*
X60273725Y-53454129D01*
X60084100Y-53109986D01*
X59868158Y-52810402D01*
X59775206Y-52706863D01*
X59531398Y-52488013D01*
X59279766Y-52322348D01*
X59032115Y-52214716D01*
X58800248Y-52169966D01*
X58595969Y-52192947D01*
X58557826Y-52206772D01*
X58469916Y-52264772D01*
X58349878Y-52371391D01*
X58216030Y-52507248D01*
X58086688Y-52652962D01*
X57980169Y-52789152D01*
X57924267Y-52877138D01*
X57897872Y-52968940D01*
X57879529Y-53113154D01*
X57873369Y-53268721D01*
X57872321Y-53422639D01*
X57863475Y-53510437D01*
X57840113Y-53550656D01*
X57795514Y-53561836D01*
X57766954Y-53562333D01*
X57689623Y-53580832D01*
X57683114Y-53627280D01*
X57744463Y-53688108D01*
X57801525Y-53720589D01*
X57872019Y-53777423D01*
X57939322Y-53884675D01*
X58012495Y-54057407D01*
X58025892Y-54093606D01*
X58184791Y-54450825D01*
X58387873Y-54784355D01*
X58622831Y-55078572D01*
X58877360Y-55317852D01*
X59112375Y-55472996D01*
X59367236Y-55561748D01*
X59629017Y-55573196D01*
X59882307Y-55511702D01*
X60111698Y-55381632D01*
X60301779Y-55187351D01*
X60344649Y-55123991D01*
X60473641Y-54916487D01*
X60712458Y-55144280D01*
X60856738Y-55270905D01*
X61007433Y-55385786D01*
X61132431Y-55464484D01*
X61134706Y-55465653D01*
X61352713Y-55545934D01*
X61583075Y-55579228D01*
X61795583Y-55562994D01*
X61898740Y-55529888D01*
X62114144Y-55395735D01*
X62264376Y-55214413D01*
X62352586Y-54980408D01*
X62381928Y-54688204D01*
X62381935Y-54684166D01*
X62376489Y-54534479D01*
X62357213Y-54386274D01*
X62320077Y-54228364D01*
X62261049Y-54049560D01*
X62176099Y-53838675D01*
X62061195Y-53584520D01*
X61912306Y-53275908D01*
X61775628Y-53001416D01*
X61639088Y-52728178D01*
X61537873Y-52521180D01*
X61468436Y-52371446D01*
X61427229Y-52270002D01*
X61410705Y-52207872D01*
X61415314Y-52176081D01*
X61437511Y-52165654D01*
X61445133Y-52165333D01*
X61549275Y-52145089D01*
X61678238Y-52094309D01*
X61802465Y-52027922D01*
X61892402Y-51960856D01*
X61917521Y-51926734D01*
X61929696Y-51861635D01*
X61898624Y-51819360D01*
X61812696Y-51795461D01*
X61660301Y-51785491D01*
X61545759Y-51784333D01*
X61344913Y-51777420D01*
X61200360Y-51757935D01*
X61130829Y-51731416D01*
X61084991Y-51676182D01*
X61007171Y-51563498D01*
X60907826Y-51409182D01*
X60797409Y-51229049D01*
X60784915Y-51208133D01*
X60674075Y-51026138D01*
X60573383Y-50868186D01*
X60493231Y-50750086D01*
X60444010Y-50687645D01*
X60440882Y-50684813D01*
X60355730Y-50647113D01*
X60288584Y-50680694D01*
X60288584Y-50680694D01*
G37*
X60288584Y-50680694D02*
X60242312Y-50773535D01*
X60219782Y-50913613D01*
X60223864Y-51088908D01*
X60257425Y-51287398D01*
X60278361Y-51365920D01*
X60362168Y-51650505D01*
X60222164Y-51676770D01*
X60101574Y-51719702D01*
X59979120Y-51794087D01*
X59879684Y-51880983D01*
X59828150Y-51961449D01*
X59825666Y-51978596D01*
X59843973Y-52034079D01*
X59857416Y-52040760D01*
X59912028Y-52044009D01*
X60028616Y-52050464D01*
X60184607Y-52058880D01*
X60227833Y-52061183D01*
X60409010Y-52074773D01*
X60525917Y-52095600D01*
X60598924Y-52128833D01*
X60637163Y-52165055D01*
X60682594Y-52232648D01*
X60760280Y-52361292D01*
X60862599Y-52537352D01*
X60981926Y-52747194D01*
X61110636Y-52977182D01*
X61241105Y-53213684D01*
X61365708Y-53443062D01*
X61476821Y-53651684D01*
X61566821Y-53825914D01*
X61575003Y-53842192D01*
X61739949Y-54208400D01*
X61847240Y-54531389D01*
X61896646Y-54807715D01*
X61887939Y-55033936D01*
X61820888Y-55206609D01*
X61695264Y-55322293D01*
X61674299Y-55333120D01*
X61523492Y-55359937D01*
X61350645Y-55311161D01*
X61162263Y-55190908D01*
X60964852Y-55003294D01*
X60863871Y-54877131D01*
X60051767Y-54877131D01*
X60030240Y-55054590D01*
X59974909Y-55169811D01*
X59855341Y-55242704D01*
X59698434Y-55244624D01*
X59512115Y-55176148D01*
X59432911Y-55130311D01*
X59241730Y-54972639D01*
X59044606Y-54742099D01*
X58849459Y-54449347D01*
X58664205Y-54105039D01*
X58651610Y-54078859D01*
X58463664Y-53685218D01*
X58652525Y-53507359D01*
X58828551Y-53314962D01*
X58941045Y-53121011D01*
X59000688Y-52927643D01*
X59012113Y-52874660D01*
X58594279Y-52874660D01*
X58590952Y-53021473D01*
X58560390Y-53170147D01*
X58529676Y-53249018D01*
X58468235Y-53357648D01*
X58422590Y-53384561D01*
X58387780Y-53330120D01*
X58370458Y-53260708D01*
X58348283Y-53092788D01*
X58343884Y-52920631D01*
X58355964Y-52769192D01*
X58383225Y-52663424D01*
X58403015Y-52634722D01*
X58474739Y-52609737D01*
X58532783Y-52652356D01*
X58573760Y-52746143D01*
X58594279Y-52874660D01*
X59012113Y-52874660D01*
X59032573Y-52779787D01*
X59270370Y-53039450D01*
X59533074Y-53362384D01*
X59736931Y-53700705D01*
X59900722Y-54086174D01*
X59917382Y-54133638D01*
X59994466Y-54400956D01*
X60039552Y-54654020D01*
X60051767Y-54877131D01*
X60863871Y-54877131D01*
X60771669Y-54761937D01*
X60657322Y-54587777D01*
X60584192Y-54432270D01*
X60534393Y-54253442D01*
X60516444Y-54162972D01*
X60422639Y-53814551D01*
X60273725Y-53454129D01*
X60084100Y-53109986D01*
X59868158Y-52810402D01*
X59775206Y-52706863D01*
X59531398Y-52488013D01*
X59279766Y-52322348D01*
X59032115Y-52214716D01*
X58800248Y-52169966D01*
X58595969Y-52192947D01*
X58557826Y-52206772D01*
X58469916Y-52264772D01*
X58349878Y-52371391D01*
X58216030Y-52507248D01*
X58086688Y-52652962D01*
X57980169Y-52789152D01*
X57924267Y-52877138D01*
X57897872Y-52968940D01*
X57879529Y-53113154D01*
X57873369Y-53268721D01*
X57872321Y-53422639D01*
X57863475Y-53510437D01*
X57840113Y-53550656D01*
X57795514Y-53561836D01*
X57766954Y-53562333D01*
X57689623Y-53580832D01*
X57683114Y-53627280D01*
X57744463Y-53688108D01*
X57801525Y-53720589D01*
X57872019Y-53777423D01*
X57939322Y-53884675D01*
X58012495Y-54057407D01*
X58025892Y-54093606D01*
X58184791Y-54450825D01*
X58387873Y-54784355D01*
X58622831Y-55078572D01*
X58877360Y-55317852D01*
X59112375Y-55472996D01*
X59367236Y-55561748D01*
X59629017Y-55573196D01*
X59882307Y-55511702D01*
X60111698Y-55381632D01*
X60301779Y-55187351D01*
X60344649Y-55123991D01*
X60473641Y-54916487D01*
X60712458Y-55144280D01*
X60856738Y-55270905D01*
X61007433Y-55385786D01*
X61132431Y-55464484D01*
X61134706Y-55465653D01*
X61352713Y-55545934D01*
X61583075Y-55579228D01*
X61795583Y-55562994D01*
X61898740Y-55529888D01*
X62114144Y-55395735D01*
X62264376Y-55214413D01*
X62352586Y-54980408D01*
X62381928Y-54688204D01*
X62381935Y-54684166D01*
X62376489Y-54534479D01*
X62357213Y-54386274D01*
X62320077Y-54228364D01*
X62261049Y-54049560D01*
X62176099Y-53838675D01*
X62061195Y-53584520D01*
X61912306Y-53275908D01*
X61775628Y-53001416D01*
X61639088Y-52728178D01*
X61537873Y-52521180D01*
X61468436Y-52371446D01*
X61427229Y-52270002D01*
X61410705Y-52207872D01*
X61415314Y-52176081D01*
X61437511Y-52165654D01*
X61445133Y-52165333D01*
X61549275Y-52145089D01*
X61678238Y-52094309D01*
X61802465Y-52027922D01*
X61892402Y-51960856D01*
X61917521Y-51926734D01*
X61929696Y-51861635D01*
X61898624Y-51819360D01*
X61812696Y-51795461D01*
X61660301Y-51785491D01*
X61545759Y-51784333D01*
X61344913Y-51777420D01*
X61200360Y-51757935D01*
X61130829Y-51731416D01*
X61084991Y-51676182D01*
X61007171Y-51563498D01*
X60907826Y-51409182D01*
X60797409Y-51229049D01*
X60784915Y-51208133D01*
X60674075Y-51026138D01*
X60573383Y-50868186D01*
X60493231Y-50750086D01*
X60444010Y-50687645D01*
X60440882Y-50684813D01*
X60355730Y-50647113D01*
X60288584Y-50680694D01*
G36*
X64817552Y-49975478D02*
X64778016Y-50093414D01*
X64754613Y-50234625D01*
X64761268Y-50388157D01*
X64801463Y-50564127D01*
X64878676Y-50772652D01*
X64996388Y-51023848D01*
X65158078Y-51327833D01*
X65272244Y-51530333D01*
X65436536Y-51817504D01*
X65562779Y-52039134D01*
X65654970Y-52203172D01*
X65717106Y-52317565D01*
X65753185Y-52390259D01*
X65767203Y-52429205D01*
X65763158Y-52442348D01*
X65745047Y-52437637D01*
X65722808Y-52426187D01*
X65631185Y-52362282D01*
X65590130Y-52322091D01*
X65529340Y-52276393D01*
X65413979Y-52210194D01*
X65267186Y-52136605D01*
X65242219Y-52124970D01*
X65022018Y-52038991D01*
X64848811Y-52010902D01*
X64707176Y-52041387D01*
X64581690Y-52131129D01*
X64558081Y-52155277D01*
X64392743Y-52386950D01*
X64306399Y-52640056D01*
X64301442Y-52906033D01*
X64320494Y-53005108D01*
X64410178Y-53205203D01*
X64576782Y-53409078D01*
X64813183Y-53610246D01*
X65112258Y-53802218D01*
X65308788Y-53905404D01*
X65737849Y-54114971D01*
X65706582Y-54345383D01*
X65649691Y-54628242D01*
X65564017Y-54875205D01*
X65456092Y-55075248D01*
X65332448Y-55217352D01*
X65199618Y-55290494D01*
X65141982Y-55298000D01*
X64972643Y-55258480D01*
X64789194Y-55145077D01*
X64600053Y-54965521D01*
X64413636Y-54727542D01*
X64270666Y-54497707D01*
X64156125Y-54299914D01*
X64071848Y-54170455D01*
X64011020Y-54101547D01*
X63966828Y-54085408D01*
X63933508Y-54112666D01*
X63890935Y-54251661D01*
X63918768Y-54434122D01*
X64016211Y-54657703D01*
X64182467Y-54920061D01*
X64229817Y-54984920D01*
X64450114Y-55224183D01*
X64696276Y-55396168D01*
X64957443Y-55501087D01*
X65222753Y-55539150D01*
X65481347Y-55510568D01*
X65722364Y-55415551D01*
X65934943Y-55254310D01*
X66108223Y-55027057D01*
X66150141Y-54947659D01*
X66239690Y-54708893D01*
X66304869Y-54430881D01*
X66337715Y-54154584D01*
X66337269Y-53985003D01*
X66317863Y-53856277D01*
X66273689Y-53782261D01*
X66218000Y-53746216D01*
X66133584Y-53705470D01*
X65996173Y-53639618D01*
X65829242Y-53559898D01*
X65744483Y-53519511D01*
X65492172Y-53380036D01*
X65246520Y-53209483D01*
X65025788Y-53023219D01*
X64848234Y-52836610D01*
X64734356Y-52669457D01*
X64674708Y-52542890D01*
X64656829Y-52462769D01*
X64679536Y-52402578D01*
X64720404Y-52356643D01*
X64825795Y-52309975D01*
X64980381Y-52328659D01*
X65180996Y-52411513D01*
X65424474Y-52557356D01*
X65607474Y-52687816D01*
X65818550Y-52867655D01*
X66020182Y-53085478D01*
X66217580Y-53349311D01*
X66415955Y-53667184D01*
X66620517Y-54047124D01*
X66836476Y-54497159D01*
X66958425Y-54769318D01*
X67060476Y-54998402D01*
X67153918Y-55201964D01*
X67232409Y-55366672D01*
X67289608Y-55479198D01*
X67317973Y-55525172D01*
X67375267Y-55537144D01*
X67435620Y-55479962D01*
X67488076Y-55367976D01*
X67513379Y-55269264D01*
X67539836Y-55128239D01*
X67691684Y-55261563D01*
X67915432Y-55415506D01*
X68171851Y-55522944D01*
X68436929Y-55577542D01*
X68686656Y-55572965D01*
X68786240Y-55550341D01*
X68956011Y-55456454D01*
X69079662Y-55300094D01*
X69152771Y-55092472D01*
X69170916Y-54844801D01*
X69145672Y-54638895D01*
X69079447Y-54395981D01*
X68970850Y-54101028D01*
X68827584Y-53770265D01*
X68657350Y-53419927D01*
X68467852Y-53066243D01*
X68266791Y-52725446D01*
X68154375Y-52549843D01*
X68030781Y-52372522D01*
X67937188Y-52264485D01*
X67865069Y-52219621D01*
X67805900Y-52231821D01*
X67766832Y-52272101D01*
X67695695Y-52402917D01*
X67666003Y-52554918D01*
X67679650Y-52736380D01*
X67738527Y-52955581D01*
X67844530Y-53220796D01*
X67999550Y-53540302D01*
X68100710Y-53731666D01*
X68293826Y-54096873D01*
X68443298Y-54398576D01*
X68551657Y-54644240D01*
X68621434Y-54841329D01*
X68655160Y-54997308D01*
X68655365Y-55119640D01*
X68624579Y-55215789D01*
X68611432Y-55238000D01*
X68511929Y-55322953D01*
X68377208Y-55337863D01*
X68215339Y-55285451D01*
X68034394Y-55168438D01*
X67842443Y-54989546D01*
X67827947Y-54973841D01*
X67651782Y-54752063D01*
X67467020Y-54467191D01*
X67285180Y-54138373D01*
X67131618Y-53816333D01*
X66987452Y-53500614D01*
X66819960Y-53151921D01*
X66634521Y-52780053D01*
X66436515Y-52394812D01*
X66231320Y-52005996D01*
X66024317Y-51623404D01*
X65820883Y-51256836D01*
X65626399Y-50916093D01*
X65446244Y-50610973D01*
X65285796Y-50351276D01*
X65150436Y-50146801D01*
X65045542Y-50007349D01*
X65032568Y-49992421D01*
X64940959Y-49910457D01*
X64872118Y-49903686D01*
X64817552Y-49975478D01*
X64817552Y-49975478D01*
G37*
X64817552Y-49975478D02*
X64778016Y-50093414D01*
X64754613Y-50234625D01*
X64761268Y-50388157D01*
X64801463Y-50564127D01*
X64878676Y-50772652D01*
X64996388Y-51023848D01*
X65158078Y-51327833D01*
X65272244Y-51530333D01*
X65436536Y-51817504D01*
X65562779Y-52039134D01*
X65654970Y-52203172D01*
X65717106Y-52317565D01*
X65753185Y-52390259D01*
X65767203Y-52429205D01*
X65763158Y-52442348D01*
X65745047Y-52437637D01*
X65722808Y-52426187D01*
X65631185Y-52362282D01*
X65590130Y-52322091D01*
X65529340Y-52276393D01*
X65413979Y-52210194D01*
X65267186Y-52136605D01*
X65242219Y-52124970D01*
X65022018Y-52038991D01*
X64848811Y-52010902D01*
X64707176Y-52041387D01*
X64581690Y-52131129D01*
X64558081Y-52155277D01*
X64392743Y-52386950D01*
X64306399Y-52640056D01*
X64301442Y-52906033D01*
X64320494Y-53005108D01*
X64410178Y-53205203D01*
X64576782Y-53409078D01*
X64813183Y-53610246D01*
X65112258Y-53802218D01*
X65308788Y-53905404D01*
X65737849Y-54114971D01*
X65706582Y-54345383D01*
X65649691Y-54628242D01*
X65564017Y-54875205D01*
X65456092Y-55075248D01*
X65332448Y-55217352D01*
X65199618Y-55290494D01*
X65141982Y-55298000D01*
X64972643Y-55258480D01*
X64789194Y-55145077D01*
X64600053Y-54965521D01*
X64413636Y-54727542D01*
X64270666Y-54497707D01*
X64156125Y-54299914D01*
X64071848Y-54170455D01*
X64011020Y-54101547D01*
X63966828Y-54085408D01*
X63933508Y-54112666D01*
X63890935Y-54251661D01*
X63918768Y-54434122D01*
X64016211Y-54657703D01*
X64182467Y-54920061D01*
X64229817Y-54984920D01*
X64450114Y-55224183D01*
X64696276Y-55396168D01*
X64957443Y-55501087D01*
X65222753Y-55539150D01*
X65481347Y-55510568D01*
X65722364Y-55415551D01*
X65934943Y-55254310D01*
X66108223Y-55027057D01*
X66150141Y-54947659D01*
X66239690Y-54708893D01*
X66304869Y-54430881D01*
X66337715Y-54154584D01*
X66337269Y-53985003D01*
X66317863Y-53856277D01*
X66273689Y-53782261D01*
X66218000Y-53746216D01*
X66133584Y-53705470D01*
X65996173Y-53639618D01*
X65829242Y-53559898D01*
X65744483Y-53519511D01*
X65492172Y-53380036D01*
X65246520Y-53209483D01*
X65025788Y-53023219D01*
X64848234Y-52836610D01*
X64734356Y-52669457D01*
X64674708Y-52542890D01*
X64656829Y-52462769D01*
X64679536Y-52402578D01*
X64720404Y-52356643D01*
X64825795Y-52309975D01*
X64980381Y-52328659D01*
X65180996Y-52411513D01*
X65424474Y-52557356D01*
X65607474Y-52687816D01*
X65818550Y-52867655D01*
X66020182Y-53085478D01*
X66217580Y-53349311D01*
X66415955Y-53667184D01*
X66620517Y-54047124D01*
X66836476Y-54497159D01*
X66958425Y-54769318D01*
X67060476Y-54998402D01*
X67153918Y-55201964D01*
X67232409Y-55366672D01*
X67289608Y-55479198D01*
X67317973Y-55525172D01*
X67375267Y-55537144D01*
X67435620Y-55479962D01*
X67488076Y-55367976D01*
X67513379Y-55269264D01*
X67539836Y-55128239D01*
X67691684Y-55261563D01*
X67915432Y-55415506D01*
X68171851Y-55522944D01*
X68436929Y-55577542D01*
X68686656Y-55572965D01*
X68786240Y-55550341D01*
X68956011Y-55456454D01*
X69079662Y-55300094D01*
X69152771Y-55092472D01*
X69170916Y-54844801D01*
X69145672Y-54638895D01*
X69079447Y-54395981D01*
X68970850Y-54101028D01*
X68827584Y-53770265D01*
X68657350Y-53419927D01*
X68467852Y-53066243D01*
X68266791Y-52725446D01*
X68154375Y-52549843D01*
X68030781Y-52372522D01*
X67937188Y-52264485D01*
X67865069Y-52219621D01*
X67805900Y-52231821D01*
X67766832Y-52272101D01*
X67695695Y-52402917D01*
X67666003Y-52554918D01*
X67679650Y-52736380D01*
X67738527Y-52955581D01*
X67844530Y-53220796D01*
X67999550Y-53540302D01*
X68100710Y-53731666D01*
X68293826Y-54096873D01*
X68443298Y-54398576D01*
X68551657Y-54644240D01*
X68621434Y-54841329D01*
X68655160Y-54997308D01*
X68655365Y-55119640D01*
X68624579Y-55215789D01*
X68611432Y-55238000D01*
X68511929Y-55322953D01*
X68377208Y-55337863D01*
X68215339Y-55285451D01*
X68034394Y-55168438D01*
X67842443Y-54989546D01*
X67827947Y-54973841D01*
X67651782Y-54752063D01*
X67467020Y-54467191D01*
X67285180Y-54138373D01*
X67131618Y-53816333D01*
X66987452Y-53500614D01*
X66819960Y-53151921D01*
X66634521Y-52780053D01*
X66436515Y-52394812D01*
X66231320Y-52005996D01*
X66024317Y-51623404D01*
X65820883Y-51256836D01*
X65626399Y-50916093D01*
X65446244Y-50610973D01*
X65285796Y-50351276D01*
X65150436Y-50146801D01*
X65045542Y-50007349D01*
X65032568Y-49992421D01*
X64940959Y-49910457D01*
X64872118Y-49903686D01*
X64817552Y-49975478D01*
G36*
X68115278Y-50249908D02*
X68054781Y-50325093D01*
X68014177Y-50414644D01*
X67999386Y-50534278D01*
X68006306Y-50702469D01*
X68014694Y-50785901D01*
X68028437Y-50866069D01*
X68051574Y-50951505D01*
X68088144Y-51050744D01*
X68142185Y-51172317D01*
X68217736Y-51324759D01*
X68318835Y-51516604D01*
X68449521Y-51756383D01*
X68613834Y-52052631D01*
X68815811Y-52413881D01*
X68818865Y-52419333D01*
X68932585Y-52627172D01*
X69074918Y-52894915D01*
X69237464Y-53206320D01*
X69411823Y-53545144D01*
X69589596Y-53895142D01*
X69762382Y-54240073D01*
X69808299Y-54332674D01*
X69958603Y-54633566D01*
X70098895Y-54908770D01*
X70224420Y-55149392D01*
X70330424Y-55346539D01*
X70412152Y-55491317D01*
X70464850Y-55574833D01*
X70481610Y-55592091D01*
X70541936Y-55567369D01*
X70635453Y-55502228D01*
X70682817Y-55462839D01*
X70789417Y-55340711D01*
X70869565Y-55178642D01*
X70927338Y-54963902D01*
X70966808Y-54683762D01*
X70979463Y-54536000D01*
X70985797Y-54356668D01*
X70984867Y-54111356D01*
X70977535Y-53818358D01*
X70964660Y-53495970D01*
X70947103Y-53162488D01*
X70925726Y-52836205D01*
X70901389Y-52535419D01*
X70874952Y-52278423D01*
X70872169Y-52255366D01*
X70853862Y-52092600D01*
X70842753Y-51965743D01*
X70840497Y-51895125D01*
X70842187Y-51887368D01*
X70871683Y-51912141D01*
X70933413Y-52004105D01*
X71022730Y-52154241D01*
X71134986Y-52353529D01*
X71265533Y-52592948D01*
X71409724Y-52863480D01*
X71562910Y-53156103D01*
X71720445Y-53461799D01*
X71877680Y-53771546D01*
X72029967Y-54076327D01*
X72172659Y-54367120D01*
X72301108Y-54634906D01*
X72410667Y-54870664D01*
X72496687Y-55065376D01*
X72554520Y-55210022D01*
X72555063Y-55211524D01*
X72617099Y-55372076D01*
X72673967Y-55499014D01*
X72716793Y-55573330D01*
X72729209Y-55584569D01*
X72781991Y-55564013D01*
X72841829Y-55496482D01*
X72903990Y-55370777D01*
X72935211Y-55224242D01*
X72933684Y-55050065D01*
X72897603Y-54841432D01*
X72825162Y-54591528D01*
X72714555Y-54293539D01*
X72563975Y-53940654D01*
X72371615Y-53526056D01*
X72256115Y-53287166D01*
X72075110Y-52922241D01*
X71886061Y-52550917D01*
X71693426Y-52181168D01*
X71501660Y-51820964D01*
X71315221Y-51478276D01*
X71138564Y-51161077D01*
X70976147Y-50877336D01*
X70832424Y-50635026D01*
X70711854Y-50442118D01*
X70618893Y-50306584D01*
X70557996Y-50236394D01*
X70546571Y-50229242D01*
X70474345Y-50242412D01*
X70380997Y-50312237D01*
X70283125Y-50419573D01*
X70197324Y-50545275D01*
X70140189Y-50670196D01*
X70130136Y-50709652D01*
X70123746Y-50825407D01*
X70132588Y-51012081D01*
X70155776Y-51257472D01*
X70189644Y-51529195D01*
X70219452Y-51762167D01*
X70250560Y-52032085D01*
X70282006Y-52327656D01*
X70312824Y-52637587D01*
X70342052Y-52950585D01*
X70368727Y-53255356D01*
X70391884Y-53540607D01*
X70410560Y-53795044D01*
X70423792Y-54007376D01*
X70430617Y-54166307D01*
X70430070Y-54260545D01*
X70424508Y-54282000D01*
X70404669Y-54245798D01*
X70352529Y-54144148D01*
X70273345Y-53987480D01*
X70172375Y-53786227D01*
X70054876Y-53550819D01*
X69971128Y-53382416D01*
X69804713Y-53052755D01*
X69625981Y-52708366D01*
X69439513Y-52357271D01*
X69249893Y-52007494D01*
X69061702Y-51667058D01*
X68879523Y-51343987D01*
X68707939Y-51046303D01*
X68551532Y-50782031D01*
X68414885Y-50559192D01*
X68302581Y-50385810D01*
X68219201Y-50269910D01*
X68169329Y-50219513D01*
X68163745Y-50217999D01*
X68115278Y-50249908D01*
X68115278Y-50249908D01*
G37*
X68115278Y-50249908D02*
X68054781Y-50325093D01*
X68014177Y-50414644D01*
X67999386Y-50534278D01*
X68006306Y-50702469D01*
X68014694Y-50785901D01*
X68028437Y-50866069D01*
X68051574Y-50951505D01*
X68088144Y-51050744D01*
X68142185Y-51172317D01*
X68217736Y-51324759D01*
X68318835Y-51516604D01*
X68449521Y-51756383D01*
X68613834Y-52052631D01*
X68815811Y-52413881D01*
X68818865Y-52419333D01*
X68932585Y-52627172D01*
X69074918Y-52894915D01*
X69237464Y-53206320D01*
X69411823Y-53545144D01*
X69589596Y-53895142D01*
X69762382Y-54240073D01*
X69808299Y-54332674D01*
X69958603Y-54633566D01*
X70098895Y-54908770D01*
X70224420Y-55149392D01*
X70330424Y-55346539D01*
X70412152Y-55491317D01*
X70464850Y-55574833D01*
X70481610Y-55592091D01*
X70541936Y-55567369D01*
X70635453Y-55502228D01*
X70682817Y-55462839D01*
X70789417Y-55340711D01*
X70869565Y-55178642D01*
X70927338Y-54963902D01*
X70966808Y-54683762D01*
X70979463Y-54536000D01*
X70985797Y-54356668D01*
X70984867Y-54111356D01*
X70977535Y-53818358D01*
X70964660Y-53495970D01*
X70947103Y-53162488D01*
X70925726Y-52836205D01*
X70901389Y-52535419D01*
X70874952Y-52278423D01*
X70872169Y-52255366D01*
X70853862Y-52092600D01*
X70842753Y-51965743D01*
X70840497Y-51895125D01*
X70842187Y-51887368D01*
X70871683Y-51912141D01*
X70933413Y-52004105D01*
X71022730Y-52154241D01*
X71134986Y-52353529D01*
X71265533Y-52592948D01*
X71409724Y-52863480D01*
X71562910Y-53156103D01*
X71720445Y-53461799D01*
X71877680Y-53771546D01*
X72029967Y-54076327D01*
X72172659Y-54367120D01*
X72301108Y-54634906D01*
X72410667Y-54870664D01*
X72496687Y-55065376D01*
X72554520Y-55210022D01*
X72555063Y-55211524D01*
X72617099Y-55372076D01*
X72673967Y-55499014D01*
X72716793Y-55573330D01*
X72729209Y-55584569D01*
X72781991Y-55564013D01*
X72841829Y-55496482D01*
X72903990Y-55370777D01*
X72935211Y-55224242D01*
X72933684Y-55050065D01*
X72897603Y-54841432D01*
X72825162Y-54591528D01*
X72714555Y-54293539D01*
X72563975Y-53940654D01*
X72371615Y-53526056D01*
X72256115Y-53287166D01*
X72075110Y-52922241D01*
X71886061Y-52550917D01*
X71693426Y-52181168D01*
X71501660Y-51820964D01*
X71315221Y-51478276D01*
X71138564Y-51161077D01*
X70976147Y-50877336D01*
X70832424Y-50635026D01*
X70711854Y-50442118D01*
X70618893Y-50306584D01*
X70557996Y-50236394D01*
X70546571Y-50229242D01*
X70474345Y-50242412D01*
X70380997Y-50312237D01*
X70283125Y-50419573D01*
X70197324Y-50545275D01*
X70140189Y-50670196D01*
X70130136Y-50709652D01*
X70123746Y-50825407D01*
X70132588Y-51012081D01*
X70155776Y-51257472D01*
X70189644Y-51529195D01*
X70219452Y-51762167D01*
X70250560Y-52032085D01*
X70282006Y-52327656D01*
X70312824Y-52637587D01*
X70342052Y-52950585D01*
X70368727Y-53255356D01*
X70391884Y-53540607D01*
X70410560Y-53795044D01*
X70423792Y-54007376D01*
X70430617Y-54166307D01*
X70430070Y-54260545D01*
X70424508Y-54282000D01*
X70404669Y-54245798D01*
X70352529Y-54144148D01*
X70273345Y-53987480D01*
X70172375Y-53786227D01*
X70054876Y-53550819D01*
X69971128Y-53382416D01*
X69804713Y-53052755D01*
X69625981Y-52708366D01*
X69439513Y-52357271D01*
X69249893Y-52007494D01*
X69061702Y-51667058D01*
X68879523Y-51343987D01*
X68707939Y-51046303D01*
X68551532Y-50782031D01*
X68414885Y-50559192D01*
X68302581Y-50385810D01*
X68219201Y-50269910D01*
X68169329Y-50219513D01*
X68163745Y-50217999D01*
X68115278Y-50249908D01*
G36*
X74816605Y-50276098D02*
X74806970Y-50284362D01*
X74700383Y-50418777D01*
X74613763Y-50598508D01*
X74564226Y-50784251D01*
X74558596Y-50854689D01*
X74586041Y-51104694D01*
X74666359Y-51397544D01*
X74792374Y-51716393D01*
X74956910Y-52044398D01*
X75152793Y-52364715D01*
X75275068Y-52536533D01*
X75430637Y-52728116D01*
X75621293Y-52940294D01*
X75829967Y-53156073D01*
X76039587Y-53358463D01*
X76233084Y-53530473D01*
X76393388Y-53655110D01*
X76410324Y-53666567D01*
X76501772Y-53735631D01*
X76567870Y-53814259D01*
X76623700Y-53926298D01*
X76684343Y-54095598D01*
X76687291Y-54104532D01*
X76791987Y-54467339D01*
X76849078Y-54771781D01*
X76859557Y-55015644D01*
X76824415Y-55196717D01*
X76744646Y-55312790D01*
X76621243Y-55361648D01*
X76455197Y-55341082D01*
X76247503Y-55248879D01*
X76189184Y-55214374D01*
X76044519Y-55103012D01*
X75875723Y-54938923D01*
X75701171Y-54742606D01*
X75539239Y-54534560D01*
X75422153Y-54358693D01*
X75305539Y-54176504D01*
X75219304Y-54071027D01*
X75160082Y-54041322D01*
X75124503Y-54086450D01*
X75109200Y-54205474D01*
X75108000Y-54271132D01*
X75135661Y-54481970D01*
X75223248Y-54687525D01*
X75377668Y-54900433D01*
X75551145Y-55081840D01*
X75822311Y-55303201D01*
X76106240Y-55463709D01*
X76390691Y-55559026D01*
X76663424Y-55584816D01*
X76872655Y-55550147D01*
X77039400Y-55461487D01*
X77187717Y-55317205D01*
X77290289Y-55145876D01*
X77307590Y-55095166D01*
X77345231Y-54830950D01*
X77330763Y-54512367D01*
X77268053Y-54148573D01*
X77160968Y-53748724D01*
X77014324Y-53324724D01*
X76378000Y-53324724D01*
X76360600Y-53351348D01*
X76305264Y-53324413D01*
X76207288Y-53240280D01*
X76061968Y-53095310D01*
X76006267Y-53037129D01*
X75765397Y-52763381D01*
X75538259Y-52467226D01*
X75333253Y-52162734D01*
X75158781Y-51863973D01*
X75023242Y-51585015D01*
X74935036Y-51339929D01*
X74905706Y-51193788D01*
X74885053Y-51001166D01*
X75000915Y-51107000D01*
X75088810Y-51204931D01*
X75209578Y-51364922D01*
X75355286Y-51574847D01*
X75518003Y-51822581D01*
X75689799Y-52095997D01*
X75862742Y-52382969D01*
X76028900Y-52671373D01*
X76056905Y-52721474D01*
X76166995Y-52920989D01*
X76260815Y-53094033D01*
X76331311Y-53227352D01*
X76371429Y-53307693D01*
X76378000Y-53324724D01*
X77014324Y-53324724D01*
X77013373Y-53321977D01*
X76829136Y-52877488D01*
X76612123Y-52424414D01*
X76366201Y-51971910D01*
X76095236Y-51529133D01*
X75803094Y-51105239D01*
X75493643Y-50709384D01*
X75418034Y-50620500D01*
X75243182Y-50428789D01*
X75104708Y-50303495D01*
X74993516Y-50239617D01*
X74900513Y-50232152D01*
X74816605Y-50276098D01*
X74816605Y-50276098D01*
G37*
X74816605Y-50276098D02*
X74806970Y-50284362D01*
X74700383Y-50418777D01*
X74613763Y-50598508D01*
X74564226Y-50784251D01*
X74558596Y-50854689D01*
X74586041Y-51104694D01*
X74666359Y-51397544D01*
X74792374Y-51716393D01*
X74956910Y-52044398D01*
X75152793Y-52364715D01*
X75275068Y-52536533D01*
X75430637Y-52728116D01*
X75621293Y-52940294D01*
X75829967Y-53156073D01*
X76039587Y-53358463D01*
X76233084Y-53530473D01*
X76393388Y-53655110D01*
X76410324Y-53666567D01*
X76501772Y-53735631D01*
X76567870Y-53814259D01*
X76623700Y-53926298D01*
X76684343Y-54095598D01*
X76687291Y-54104532D01*
X76791987Y-54467339D01*
X76849078Y-54771781D01*
X76859557Y-55015644D01*
X76824415Y-55196717D01*
X76744646Y-55312790D01*
X76621243Y-55361648D01*
X76455197Y-55341082D01*
X76247503Y-55248879D01*
X76189184Y-55214374D01*
X76044519Y-55103012D01*
X75875723Y-54938923D01*
X75701171Y-54742606D01*
X75539239Y-54534560D01*
X75422153Y-54358693D01*
X75305539Y-54176504D01*
X75219304Y-54071027D01*
X75160082Y-54041322D01*
X75124503Y-54086450D01*
X75109200Y-54205474D01*
X75108000Y-54271132D01*
X75135661Y-54481970D01*
X75223248Y-54687525D01*
X75377668Y-54900433D01*
X75551145Y-55081840D01*
X75822311Y-55303201D01*
X76106240Y-55463709D01*
X76390691Y-55559026D01*
X76663424Y-55584816D01*
X76872655Y-55550147D01*
X77039400Y-55461487D01*
X77187717Y-55317205D01*
X77290289Y-55145876D01*
X77307590Y-55095166D01*
X77345231Y-54830950D01*
X77330763Y-54512367D01*
X77268053Y-54148573D01*
X77160968Y-53748724D01*
X77014324Y-53324724D01*
X76378000Y-53324724D01*
X76360600Y-53351348D01*
X76305264Y-53324413D01*
X76207288Y-53240280D01*
X76061968Y-53095310D01*
X76006267Y-53037129D01*
X75765397Y-52763381D01*
X75538259Y-52467226D01*
X75333253Y-52162734D01*
X75158781Y-51863973D01*
X75023242Y-51585015D01*
X74935036Y-51339929D01*
X74905706Y-51193788D01*
X74885053Y-51001166D01*
X75000915Y-51107000D01*
X75088810Y-51204931D01*
X75209578Y-51364922D01*
X75355286Y-51574847D01*
X75518003Y-51822581D01*
X75689799Y-52095997D01*
X75862742Y-52382969D01*
X76028900Y-52671373D01*
X76056905Y-52721474D01*
X76166995Y-52920989D01*
X76260815Y-53094033D01*
X76331311Y-53227352D01*
X76371429Y-53307693D01*
X76378000Y-53324724D01*
X77014324Y-53324724D01*
X77013373Y-53321977D01*
X76829136Y-52877488D01*
X76612123Y-52424414D01*
X76366201Y-51971910D01*
X76095236Y-51529133D01*
X75803094Y-51105239D01*
X75493643Y-50709384D01*
X75418034Y-50620500D01*
X75243182Y-50428789D01*
X75104708Y-50303495D01*
X74993516Y-50239617D01*
X74900513Y-50232152D01*
X74816605Y-50276098D01*
G36*
X78040550Y-47726548D02*
X77902000Y-47826166D01*
X77796159Y-47908683D01*
X77713593Y-47962473D01*
X77683185Y-47974333D01*
X77625001Y-48004241D01*
X77528926Y-48083071D01*
X77411008Y-48194486D01*
X77287297Y-48322147D01*
X77173839Y-48449715D01*
X77086684Y-48560851D01*
X77051007Y-48617959D01*
X76929214Y-48876913D01*
X76853360Y-49096432D01*
X76817003Y-49303601D01*
X76813700Y-49525502D01*
X76818059Y-49597223D01*
X76833714Y-49787919D01*
X76851370Y-49970966D01*
X76867505Y-50110206D01*
X76869243Y-50122750D01*
X76894893Y-50302666D01*
X76676677Y-50302666D01*
X76438623Y-50331762D01*
X76259889Y-50418226D01*
X76145883Y-50555280D01*
X76088503Y-50685499D01*
X76088542Y-50762798D01*
X76154490Y-50800170D01*
X76294834Y-50810604D01*
X76312771Y-50810666D01*
X76475257Y-50817390D01*
X76676784Y-50834993D01*
X76868486Y-50858946D01*
X77036471Y-50886853D01*
X77141852Y-50915452D01*
X77206236Y-50954190D01*
X77251231Y-51012516D01*
X77261798Y-51030933D01*
X77410991Y-51279790D01*
X77584827Y-51529439D01*
X77796132Y-51796954D01*
X78057731Y-52099409D01*
X78098652Y-52145017D01*
X78256487Y-52318900D01*
X78396849Y-52470963D01*
X78509013Y-52589788D01*
X78582252Y-52663952D01*
X78603470Y-52682536D01*
X78660876Y-52727018D01*
X78754643Y-52807253D01*
X78816524Y-52862491D01*
X78981500Y-53012077D01*
X78579333Y-52987895D01*
X78377876Y-52978649D01*
X78237793Y-52981201D01*
X78136339Y-52997743D01*
X78050767Y-53030465D01*
X78030440Y-53040773D01*
X77928726Y-53114539D01*
X77835698Y-53214917D01*
X77768133Y-53318819D01*
X77742811Y-53403155D01*
X77749186Y-53427814D01*
X77799098Y-53447537D01*
X77912790Y-53468467D01*
X78069506Y-53487140D01*
X78141665Y-53493360D01*
X78311897Y-53510925D01*
X78516145Y-53538770D01*
X78735519Y-53573501D01*
X78951125Y-53611724D01*
X79144071Y-53650045D01*
X79295466Y-53685071D01*
X79386417Y-53713406D01*
X79397317Y-53718936D01*
X79427909Y-53763417D01*
X79486242Y-53868771D01*
X79564496Y-54019034D01*
X79654851Y-54198241D01*
X79749487Y-54390428D01*
X79840584Y-54579632D01*
X79920322Y-54749888D01*
X79980882Y-54885232D01*
X80014443Y-54969699D01*
X80018666Y-54987403D01*
X79980790Y-54995042D01*
X79878921Y-54982865D01*
X79730705Y-54953512D01*
X79627083Y-54928809D01*
X79398395Y-54878975D01*
X79145515Y-54835997D01*
X78915916Y-54807721D01*
X78873573Y-54804276D01*
X78679615Y-54794192D01*
X78541306Y-54798806D01*
X78430448Y-54821076D01*
X78323240Y-54862005D01*
X78180247Y-54948879D01*
X78079009Y-55056138D01*
X78034050Y-55165122D01*
X78040675Y-55225030D01*
X78086477Y-55259850D01*
X78199118Y-55287041D01*
X78386604Y-55308363D01*
X78437883Y-55312381D01*
X78638495Y-55333642D01*
X78885790Y-55369341D01*
X79144172Y-55413961D01*
X79320166Y-55449173D01*
X79541140Y-55494686D01*
X79754490Y-55535168D01*
X79934179Y-55565873D01*
X80043661Y-55581026D01*
X80176807Y-55589987D01*
X80257474Y-55575504D01*
X80316520Y-55529074D01*
X80341544Y-55498957D01*
X80411780Y-55392532D01*
X80485350Y-55256322D01*
X80503662Y-55217409D01*
X80547112Y-55112679D01*
X80562060Y-55031840D01*
X80548965Y-54940019D01*
X80509101Y-54804928D01*
X80462386Y-54673697D01*
X80389881Y-54489899D01*
X80301440Y-54277765D01*
X80206917Y-54061526D01*
X80205572Y-54058529D01*
X80120799Y-53868826D01*
X80050187Y-53709217D01*
X80000158Y-53594340D01*
X79977136Y-53538835D01*
X79976333Y-53536063D01*
X80010844Y-53543147D01*
X80097117Y-53575097D01*
X80132827Y-53589707D01*
X80275160Y-53629394D01*
X80468095Y-53657371D01*
X80685149Y-53672642D01*
X80899838Y-53674211D01*
X81085679Y-53661083D01*
X81216189Y-53632261D01*
X81220303Y-53630593D01*
X81355997Y-53585206D01*
X81513971Y-53547178D01*
X81546978Y-53541247D01*
X81669791Y-53504090D01*
X81827351Y-53432463D01*
X82003554Y-53336719D01*
X82182295Y-53227213D01*
X82185090Y-53225302D01*
X81507184Y-53225302D01*
X81501826Y-53311438D01*
X81488785Y-53336636D01*
X81423799Y-53356185D01*
X81294463Y-53380321D01*
X81120730Y-53405789D01*
X80922553Y-53429330D01*
X80918250Y-53429782D01*
X80869297Y-53410882D01*
X80865333Y-53396645D01*
X80895702Y-53352964D01*
X80974436Y-53277852D01*
X81018450Y-53240563D01*
X80609244Y-53240563D01*
X80605658Y-53352528D01*
X80593049Y-53410166D01*
X80567610Y-53428638D01*
X80525538Y-53423110D01*
X80516816Y-53420964D01*
X80413400Y-53398989D01*
X80276079Y-53374193D01*
X80239978Y-53368296D01*
X80123866Y-53342772D01*
X80047986Y-53312975D01*
X80036397Y-53302772D01*
X79979603Y-53271287D01*
X79936685Y-53266000D01*
X79843940Y-53235354D01*
X79810429Y-53206631D01*
X79790810Y-53155435D01*
X79831776Y-53099884D01*
X79882072Y-53061165D01*
X79952708Y-53016858D01*
X80068131Y-52950320D01*
X80207779Y-52872709D01*
X80351092Y-52795184D01*
X80477508Y-52728906D01*
X80566467Y-52685032D01*
X80596294Y-52673540D01*
X80599504Y-52712647D01*
X80603004Y-52817657D01*
X80606242Y-52969809D01*
X80607610Y-53059106D01*
X80609244Y-53240563D01*
X81018450Y-53240563D01*
X81082973Y-53185900D01*
X81202753Y-53091698D01*
X81315215Y-53009838D01*
X81401797Y-52954910D01*
X81443940Y-52941505D01*
X81444110Y-52941665D01*
X81474498Y-53006567D01*
X81496799Y-53112395D01*
X81507184Y-53225302D01*
X82185090Y-53225302D01*
X82347469Y-53114297D01*
X82482971Y-53008324D01*
X82572695Y-52919649D01*
X82601000Y-52863656D01*
X82574946Y-52813454D01*
X82510746Y-52724880D01*
X82177666Y-52724880D01*
X82140479Y-52747090D01*
X82043888Y-52750447D01*
X81910347Y-52737716D01*
X81762313Y-52711663D01*
X81622241Y-52675054D01*
X81546650Y-52647148D01*
X81310636Y-52542281D01*
X81128792Y-52455210D01*
X80976428Y-52372922D01*
X80828855Y-52282401D01*
X80726864Y-52215042D01*
X80554258Y-52098903D01*
X79797015Y-52098903D01*
X79791160Y-52143410D01*
X79754862Y-52229272D01*
X79751720Y-52235482D01*
X79698134Y-52366007D01*
X79658549Y-52502610D01*
X79627327Y-52621359D01*
X79594494Y-52710390D01*
X79592507Y-52714277D01*
X79557784Y-52804407D01*
X79533584Y-52895583D01*
X79501589Y-52979930D01*
X79463545Y-53012000D01*
X79409414Y-52987903D01*
X79309784Y-52924497D01*
X79185472Y-52835107D01*
X79176103Y-52828007D01*
X78986062Y-52681442D01*
X78857133Y-52576683D01*
X78781254Y-52506717D01*
X78750367Y-52464528D01*
X78748666Y-52455979D01*
X78786127Y-52432013D01*
X78880404Y-52406111D01*
X78928583Y-52397092D01*
X79069950Y-52364136D01*
X79193349Y-52319921D01*
X79214333Y-52309467D01*
X79315844Y-52260759D01*
X79446894Y-52206678D01*
X79583822Y-52155775D01*
X79702965Y-52116601D01*
X79780663Y-52097706D01*
X79797015Y-52098903D01*
X80554258Y-52098903D01*
X80440227Y-52022177D01*
X80619182Y-51839835D01*
X80727575Y-51737612D01*
X80822868Y-51661782D01*
X80871585Y-51634182D01*
X80952189Y-51644761D01*
X81070698Y-51704215D01*
X81127433Y-51742290D01*
X81235148Y-51826332D01*
X81374030Y-51943912D01*
X81531634Y-52083386D01*
X81695516Y-52233112D01*
X81853230Y-52381446D01*
X81992334Y-52516747D01*
X82100382Y-52627371D01*
X82164931Y-52701674D01*
X82177666Y-52724880D01*
X82510746Y-52724880D01*
X82507379Y-52720235D01*
X82414194Y-52603211D01*
X82311284Y-52481599D01*
X82214544Y-52374613D01*
X82139868Y-52301467D01*
X82128014Y-52291852D01*
X82088212Y-52257322D01*
X81997124Y-52176287D01*
X81866255Y-52059042D01*
X81707108Y-51915880D01*
X81611332Y-51829499D01*
X81123135Y-51388793D01*
X81194933Y-51267249D01*
X81275895Y-51160528D01*
X81361586Y-51083553D01*
X81430774Y-51016834D01*
X81528844Y-50895481D01*
X81642932Y-50738519D01*
X81760171Y-50564973D01*
X81867696Y-50393867D01*
X81952642Y-50244227D01*
X82001290Y-50137599D01*
X82043306Y-49913429D01*
X82037810Y-49786900D01*
X81810641Y-49786900D01*
X81778214Y-49956632D01*
X81771461Y-49985166D01*
X81727730Y-50108330D01*
X81650423Y-50274802D01*
X81553734Y-50457986D01*
X81451859Y-50631287D01*
X81358993Y-50768111D01*
X81342145Y-50789500D01*
X81231156Y-50918736D01*
X81090977Y-51072299D01*
X80933168Y-51238626D01*
X80769288Y-51406155D01*
X80610899Y-51563325D01*
X80469561Y-51698573D01*
X80356833Y-51800337D01*
X80284276Y-51857054D01*
X80266921Y-51864897D01*
X80215304Y-51836913D01*
X80118046Y-51756998D01*
X79986708Y-51635642D01*
X79832854Y-51483333D01*
X79737755Y-51384836D01*
X79616316Y-51255753D01*
X79045000Y-51255753D01*
X79028073Y-51308261D01*
X78983595Y-51414410D01*
X78921022Y-51551690D01*
X78918000Y-51558096D01*
X78855153Y-51693425D01*
X78809742Y-51795624D01*
X78791067Y-51843721D01*
X78791000Y-51844436D01*
X78773769Y-51906926D01*
X78731322Y-52006406D01*
X78677529Y-52115109D01*
X78626258Y-52205272D01*
X78591378Y-52249131D01*
X78588411Y-52250000D01*
X78541022Y-52222651D01*
X78454324Y-52151544D01*
X78364657Y-52068764D01*
X78241976Y-51942000D01*
X78117380Y-51799657D01*
X78002427Y-51656847D01*
X77908677Y-51528681D01*
X77847689Y-51430270D01*
X77831023Y-51376726D01*
X77832920Y-51373635D01*
X77884972Y-51357924D01*
X78000447Y-51339512D01*
X78158299Y-51321507D01*
X78230482Y-51314955D01*
X78433263Y-51296427D01*
X78635036Y-51275571D01*
X78797921Y-51256348D01*
X78822750Y-51253013D01*
X78946189Y-51241591D01*
X79026887Y-51245036D01*
X79045000Y-51255753D01*
X79616316Y-51255753D01*
X79568063Y-51204463D01*
X79408934Y-51032165D01*
X79274307Y-50883259D01*
X79178117Y-50773059D01*
X79150833Y-50739859D01*
X79073759Y-50635295D01*
X78980208Y-50498373D01*
X78921199Y-50407898D01*
X78317756Y-50407898D01*
X78284527Y-50452402D01*
X78249340Y-50480182D01*
X78179354Y-50547148D01*
X78090205Y-50652544D01*
X78050749Y-50704833D01*
X77952190Y-50833434D01*
X77846811Y-50959232D01*
X77750259Y-51064869D01*
X77678180Y-51132991D01*
X77650279Y-51149065D01*
X77615836Y-51116086D01*
X77560182Y-51034798D01*
X77546142Y-51011482D01*
X77434413Y-50809944D01*
X77349002Y-50632994D01*
X77296201Y-50495239D01*
X77282300Y-50411288D01*
X77284271Y-50403386D01*
X77314036Y-50377345D01*
X77387692Y-50359867D01*
X77517189Y-50349638D01*
X77714480Y-50345347D01*
X77816005Y-50345000D01*
X78050680Y-50347836D01*
X78207851Y-50357805D01*
X78294537Y-50377096D01*
X78317756Y-50407898D01*
X78921199Y-50407898D01*
X78881733Y-50347388D01*
X78789891Y-50200638D01*
X78716234Y-50076419D01*
X78672317Y-49993029D01*
X78665026Y-49970571D01*
X78700973Y-49940237D01*
X78794383Y-49887010D01*
X78925287Y-49822237D01*
X78929609Y-49820223D01*
X79073296Y-49750160D01*
X79191779Y-49686624D01*
X79256666Y-49645314D01*
X79347174Y-49592178D01*
X79426000Y-49561659D01*
X79514294Y-49529116D01*
X79644813Y-49474438D01*
X79122430Y-49474438D01*
X79079741Y-49497716D01*
X78985050Y-49545679D01*
X78905633Y-49584956D01*
X78781592Y-49651680D01*
X78687086Y-49713080D01*
X78657033Y-49739561D01*
X78604964Y-49785614D01*
X78559813Y-49774783D01*
X78509945Y-49698322D01*
X78462845Y-49593583D01*
X78427920Y-49500851D01*
X77891223Y-49500851D01*
X77846610Y-49557262D01*
X77755299Y-49646185D01*
X77634471Y-49753391D01*
X77501311Y-49864656D01*
X77373002Y-49965752D01*
X77266726Y-50042454D01*
X77199668Y-50080534D01*
X77189047Y-50082195D01*
X77135508Y-50035520D01*
X77095668Y-49938908D01*
X77093606Y-49929516D01*
X77083796Y-49836372D01*
X77080160Y-49703067D01*
X77082043Y-49556414D01*
X77088791Y-49423226D01*
X77099749Y-49330318D01*
X77108868Y-49304182D01*
X77153302Y-49306703D01*
X77255649Y-49326432D01*
X77394370Y-49357955D01*
X77547930Y-49395856D01*
X77694792Y-49434723D01*
X77813418Y-49469141D01*
X77882271Y-49493696D01*
X77891223Y-49500851D01*
X78427920Y-49500851D01*
X78316005Y-49203698D01*
X78224462Y-48859717D01*
X78209574Y-48743151D01*
X77814026Y-48743151D01*
X77776202Y-48775175D01*
X77737289Y-48778666D01*
X77660645Y-48802151D01*
X77545821Y-48862839D01*
X77451539Y-48924244D01*
X77307683Y-49017408D01*
X77202214Y-49068184D01*
X77146164Y-49071860D01*
X77140000Y-49057342D01*
X77158333Y-48999403D01*
X77204018Y-48896038D01*
X77263087Y-48775721D01*
X77321570Y-48666926D01*
X77364992Y-48598750D01*
X77438252Y-48537810D01*
X77527019Y-48535377D01*
X77651591Y-48592102D01*
X77679750Y-48608869D01*
X77780886Y-48684795D01*
X77814026Y-48743151D01*
X78209574Y-48743151D01*
X78184500Y-48546834D01*
X78182176Y-48474985D01*
X78184831Y-48275975D01*
X78200514Y-48156636D01*
X78230982Y-48112725D01*
X78277992Y-48139998D01*
X78306083Y-48175889D01*
X78378279Y-48269490D01*
X78426809Y-48323761D01*
X78467651Y-48377983D01*
X78538542Y-48485097D01*
X78630501Y-48630243D01*
X78734543Y-48798563D01*
X78841686Y-48975195D01*
X78942946Y-49145281D01*
X79029341Y-49293960D01*
X79091886Y-49406373D01*
X79121598Y-49467659D01*
X79122430Y-49474438D01*
X79644813Y-49474438D01*
X79652108Y-49471382D01*
X79812579Y-49399797D01*
X79844932Y-49384859D01*
X80233308Y-49228883D01*
X80598487Y-49136213D01*
X80965620Y-49100645D01*
X80999755Y-49100032D01*
X81207971Y-49106910D01*
X81363119Y-49142069D01*
X81491503Y-49218603D01*
X81619430Y-49349607D01*
X81697342Y-49447298D01*
X81774150Y-49560865D01*
X81810602Y-49664522D01*
X81810641Y-49786900D01*
X82037810Y-49786900D01*
X82032671Y-49668593D01*
X81974732Y-49431492D01*
X81874839Y-49230528D01*
X81816928Y-49158721D01*
X81648775Y-49011480D01*
X81469990Y-48920172D01*
X81258105Y-48877074D01*
X80990654Y-48874462D01*
X80990074Y-48874490D01*
X80606733Y-48917610D01*
X80232178Y-49003934D01*
X79909698Y-49121922D01*
X79777130Y-49178902D01*
X79634422Y-49235040D01*
X79503529Y-49282401D01*
X79406409Y-49313045D01*
X79365019Y-49319035D01*
X79364920Y-49318868D01*
X79340871Y-49280008D01*
X79286035Y-49193753D01*
X79250634Y-49138500D01*
X79159507Y-48993936D01*
X79060175Y-48832567D01*
X79027605Y-48778666D01*
X78948583Y-48654877D01*
X78838660Y-48492749D01*
X78717844Y-48321595D01*
X78680852Y-48270666D01*
X78565974Y-48111700D01*
X78460182Y-47961690D01*
X78380900Y-47845468D01*
X78361509Y-47815583D01*
X78270562Y-47712761D01*
X78166919Y-47683006D01*
X78040550Y-47726548D01*
X78040550Y-47726548D01*
G37*
X78040550Y-47726548D02*
X77902000Y-47826166D01*
X77796159Y-47908683D01*
X77713593Y-47962473D01*
X77683185Y-47974333D01*
X77625001Y-48004241D01*
X77528926Y-48083071D01*
X77411008Y-48194486D01*
X77287297Y-48322147D01*
X77173839Y-48449715D01*
X77086684Y-48560851D01*
X77051007Y-48617959D01*
X76929214Y-48876913D01*
X76853360Y-49096432D01*
X76817003Y-49303601D01*
X76813700Y-49525502D01*
X76818059Y-49597223D01*
X76833714Y-49787919D01*
X76851370Y-49970966D01*
X76867505Y-50110206D01*
X76869243Y-50122750D01*
X76894893Y-50302666D01*
X76676677Y-50302666D01*
X76438623Y-50331762D01*
X76259889Y-50418226D01*
X76145883Y-50555280D01*
X76088503Y-50685499D01*
X76088542Y-50762798D01*
X76154490Y-50800170D01*
X76294834Y-50810604D01*
X76312771Y-50810666D01*
X76475257Y-50817390D01*
X76676784Y-50834993D01*
X76868486Y-50858946D01*
X77036471Y-50886853D01*
X77141852Y-50915452D01*
X77206236Y-50954190D01*
X77251231Y-51012516D01*
X77261798Y-51030933D01*
X77410991Y-51279790D01*
X77584827Y-51529439D01*
X77796132Y-51796954D01*
X78057731Y-52099409D01*
X78098652Y-52145017D01*
X78256487Y-52318900D01*
X78396849Y-52470963D01*
X78509013Y-52589788D01*
X78582252Y-52663952D01*
X78603470Y-52682536D01*
X78660876Y-52727018D01*
X78754643Y-52807253D01*
X78816524Y-52862491D01*
X78981500Y-53012077D01*
X78579333Y-52987895D01*
X78377876Y-52978649D01*
X78237793Y-52981201D01*
X78136339Y-52997743D01*
X78050767Y-53030465D01*
X78030440Y-53040773D01*
X77928726Y-53114539D01*
X77835698Y-53214917D01*
X77768133Y-53318819D01*
X77742811Y-53403155D01*
X77749186Y-53427814D01*
X77799098Y-53447537D01*
X77912790Y-53468467D01*
X78069506Y-53487140D01*
X78141665Y-53493360D01*
X78311897Y-53510925D01*
X78516145Y-53538770D01*
X78735519Y-53573501D01*
X78951125Y-53611724D01*
X79144071Y-53650045D01*
X79295466Y-53685071D01*
X79386417Y-53713406D01*
X79397317Y-53718936D01*
X79427909Y-53763417D01*
X79486242Y-53868771D01*
X79564496Y-54019034D01*
X79654851Y-54198241D01*
X79749487Y-54390428D01*
X79840584Y-54579632D01*
X79920322Y-54749888D01*
X79980882Y-54885232D01*
X80014443Y-54969699D01*
X80018666Y-54987403D01*
X79980790Y-54995042D01*
X79878921Y-54982865D01*
X79730705Y-54953512D01*
X79627083Y-54928809D01*
X79398395Y-54878975D01*
X79145515Y-54835997D01*
X78915916Y-54807721D01*
X78873573Y-54804276D01*
X78679615Y-54794192D01*
X78541306Y-54798806D01*
X78430448Y-54821076D01*
X78323240Y-54862005D01*
X78180247Y-54948879D01*
X78079009Y-55056138D01*
X78034050Y-55165122D01*
X78040675Y-55225030D01*
X78086477Y-55259850D01*
X78199118Y-55287041D01*
X78386604Y-55308363D01*
X78437883Y-55312381D01*
X78638495Y-55333642D01*
X78885790Y-55369341D01*
X79144172Y-55413961D01*
X79320166Y-55449173D01*
X79541140Y-55494686D01*
X79754490Y-55535168D01*
X79934179Y-55565873D01*
X80043661Y-55581026D01*
X80176807Y-55589987D01*
X80257474Y-55575504D01*
X80316520Y-55529074D01*
X80341544Y-55498957D01*
X80411780Y-55392532D01*
X80485350Y-55256322D01*
X80503662Y-55217409D01*
X80547112Y-55112679D01*
X80562060Y-55031840D01*
X80548965Y-54940019D01*
X80509101Y-54804928D01*
X80462386Y-54673697D01*
X80389881Y-54489899D01*
X80301440Y-54277765D01*
X80206917Y-54061526D01*
X80205572Y-54058529D01*
X80120799Y-53868826D01*
X80050187Y-53709217D01*
X80000158Y-53594340D01*
X79977136Y-53538835D01*
X79976333Y-53536063D01*
X80010844Y-53543147D01*
X80097117Y-53575097D01*
X80132827Y-53589707D01*
X80275160Y-53629394D01*
X80468095Y-53657371D01*
X80685149Y-53672642D01*
X80899838Y-53674211D01*
X81085679Y-53661083D01*
X81216189Y-53632261D01*
X81220303Y-53630593D01*
X81355997Y-53585206D01*
X81513971Y-53547178D01*
X81546978Y-53541247D01*
X81669791Y-53504090D01*
X81827351Y-53432463D01*
X82003554Y-53336719D01*
X82182295Y-53227213D01*
X82185090Y-53225302D01*
X81507184Y-53225302D01*
X81501826Y-53311438D01*
X81488785Y-53336636D01*
X81423799Y-53356185D01*
X81294463Y-53380321D01*
X81120730Y-53405789D01*
X80922553Y-53429330D01*
X80918250Y-53429782D01*
X80869297Y-53410882D01*
X80865333Y-53396645D01*
X80895702Y-53352964D01*
X80974436Y-53277852D01*
X81018450Y-53240563D01*
X80609244Y-53240563D01*
X80605658Y-53352528D01*
X80593049Y-53410166D01*
X80567610Y-53428638D01*
X80525538Y-53423110D01*
X80516816Y-53420964D01*
X80413400Y-53398989D01*
X80276079Y-53374193D01*
X80239978Y-53368296D01*
X80123866Y-53342772D01*
X80047986Y-53312975D01*
X80036397Y-53302772D01*
X79979603Y-53271287D01*
X79936685Y-53266000D01*
X79843940Y-53235354D01*
X79810429Y-53206631D01*
X79790810Y-53155435D01*
X79831776Y-53099884D01*
X79882072Y-53061165D01*
X79952708Y-53016858D01*
X80068131Y-52950320D01*
X80207779Y-52872709D01*
X80351092Y-52795184D01*
X80477508Y-52728906D01*
X80566467Y-52685032D01*
X80596294Y-52673540D01*
X80599504Y-52712647D01*
X80603004Y-52817657D01*
X80606242Y-52969809D01*
X80607610Y-53059106D01*
X80609244Y-53240563D01*
X81018450Y-53240563D01*
X81082973Y-53185900D01*
X81202753Y-53091698D01*
X81315215Y-53009838D01*
X81401797Y-52954910D01*
X81443940Y-52941505D01*
X81444110Y-52941665D01*
X81474498Y-53006567D01*
X81496799Y-53112395D01*
X81507184Y-53225302D01*
X82185090Y-53225302D01*
X82347469Y-53114297D01*
X82482971Y-53008324D01*
X82572695Y-52919649D01*
X82601000Y-52863656D01*
X82574946Y-52813454D01*
X82510746Y-52724880D01*
X82177666Y-52724880D01*
X82140479Y-52747090D01*
X82043888Y-52750447D01*
X81910347Y-52737716D01*
X81762313Y-52711663D01*
X81622241Y-52675054D01*
X81546650Y-52647148D01*
X81310636Y-52542281D01*
X81128792Y-52455210D01*
X80976428Y-52372922D01*
X80828855Y-52282401D01*
X80726864Y-52215042D01*
X80554258Y-52098903D01*
X79797015Y-52098903D01*
X79791160Y-52143410D01*
X79754862Y-52229272D01*
X79751720Y-52235482D01*
X79698134Y-52366007D01*
X79658549Y-52502610D01*
X79627327Y-52621359D01*
X79594494Y-52710390D01*
X79592507Y-52714277D01*
X79557784Y-52804407D01*
X79533584Y-52895583D01*
X79501589Y-52979930D01*
X79463545Y-53012000D01*
X79409414Y-52987903D01*
X79309784Y-52924497D01*
X79185472Y-52835107D01*
X79176103Y-52828007D01*
X78986062Y-52681442D01*
X78857133Y-52576683D01*
X78781254Y-52506717D01*
X78750367Y-52464528D01*
X78748666Y-52455979D01*
X78786127Y-52432013D01*
X78880404Y-52406111D01*
X78928583Y-52397092D01*
X79069950Y-52364136D01*
X79193349Y-52319921D01*
X79214333Y-52309467D01*
X79315844Y-52260759D01*
X79446894Y-52206678D01*
X79583822Y-52155775D01*
X79702965Y-52116601D01*
X79780663Y-52097706D01*
X79797015Y-52098903D01*
X80554258Y-52098903D01*
X80440227Y-52022177D01*
X80619182Y-51839835D01*
X80727575Y-51737612D01*
X80822868Y-51661782D01*
X80871585Y-51634182D01*
X80952189Y-51644761D01*
X81070698Y-51704215D01*
X81127433Y-51742290D01*
X81235148Y-51826332D01*
X81374030Y-51943912D01*
X81531634Y-52083386D01*
X81695516Y-52233112D01*
X81853230Y-52381446D01*
X81992334Y-52516747D01*
X82100382Y-52627371D01*
X82164931Y-52701674D01*
X82177666Y-52724880D01*
X82510746Y-52724880D01*
X82507379Y-52720235D01*
X82414194Y-52603211D01*
X82311284Y-52481599D01*
X82214544Y-52374613D01*
X82139868Y-52301467D01*
X82128014Y-52291852D01*
X82088212Y-52257322D01*
X81997124Y-52176287D01*
X81866255Y-52059042D01*
X81707108Y-51915880D01*
X81611332Y-51829499D01*
X81123135Y-51388793D01*
X81194933Y-51267249D01*
X81275895Y-51160528D01*
X81361586Y-51083553D01*
X81430774Y-51016834D01*
X81528844Y-50895481D01*
X81642932Y-50738519D01*
X81760171Y-50564973D01*
X81867696Y-50393867D01*
X81952642Y-50244227D01*
X82001290Y-50137599D01*
X82043306Y-49913429D01*
X82037810Y-49786900D01*
X81810641Y-49786900D01*
X81778214Y-49956632D01*
X81771461Y-49985166D01*
X81727730Y-50108330D01*
X81650423Y-50274802D01*
X81553734Y-50457986D01*
X81451859Y-50631287D01*
X81358993Y-50768111D01*
X81342145Y-50789500D01*
X81231156Y-50918736D01*
X81090977Y-51072299D01*
X80933168Y-51238626D01*
X80769288Y-51406155D01*
X80610899Y-51563325D01*
X80469561Y-51698573D01*
X80356833Y-51800337D01*
X80284276Y-51857054D01*
X80266921Y-51864897D01*
X80215304Y-51836913D01*
X80118046Y-51756998D01*
X79986708Y-51635642D01*
X79832854Y-51483333D01*
X79737755Y-51384836D01*
X79616316Y-51255753D01*
X79045000Y-51255753D01*
X79028073Y-51308261D01*
X78983595Y-51414410D01*
X78921022Y-51551690D01*
X78918000Y-51558096D01*
X78855153Y-51693425D01*
X78809742Y-51795624D01*
X78791067Y-51843721D01*
X78791000Y-51844436D01*
X78773769Y-51906926D01*
X78731322Y-52006406D01*
X78677529Y-52115109D01*
X78626258Y-52205272D01*
X78591378Y-52249131D01*
X78588411Y-52250000D01*
X78541022Y-52222651D01*
X78454324Y-52151544D01*
X78364657Y-52068764D01*
X78241976Y-51942000D01*
X78117380Y-51799657D01*
X78002427Y-51656847D01*
X77908677Y-51528681D01*
X77847689Y-51430270D01*
X77831023Y-51376726D01*
X77832920Y-51373635D01*
X77884972Y-51357924D01*
X78000447Y-51339512D01*
X78158299Y-51321507D01*
X78230482Y-51314955D01*
X78433263Y-51296427D01*
X78635036Y-51275571D01*
X78797921Y-51256348D01*
X78822750Y-51253013D01*
X78946189Y-51241591D01*
X79026887Y-51245036D01*
X79045000Y-51255753D01*
X79616316Y-51255753D01*
X79568063Y-51204463D01*
X79408934Y-51032165D01*
X79274307Y-50883259D01*
X79178117Y-50773059D01*
X79150833Y-50739859D01*
X79073759Y-50635295D01*
X78980208Y-50498373D01*
X78921199Y-50407898D01*
X78317756Y-50407898D01*
X78284527Y-50452402D01*
X78249340Y-50480182D01*
X78179354Y-50547148D01*
X78090205Y-50652544D01*
X78050749Y-50704833D01*
X77952190Y-50833434D01*
X77846811Y-50959232D01*
X77750259Y-51064869D01*
X77678180Y-51132991D01*
X77650279Y-51149065D01*
X77615836Y-51116086D01*
X77560182Y-51034798D01*
X77546142Y-51011482D01*
X77434413Y-50809944D01*
X77349002Y-50632994D01*
X77296201Y-50495239D01*
X77282300Y-50411288D01*
X77284271Y-50403386D01*
X77314036Y-50377345D01*
X77387692Y-50359867D01*
X77517189Y-50349638D01*
X77714480Y-50345347D01*
X77816005Y-50345000D01*
X78050680Y-50347836D01*
X78207851Y-50357805D01*
X78294537Y-50377096D01*
X78317756Y-50407898D01*
X78921199Y-50407898D01*
X78881733Y-50347388D01*
X78789891Y-50200638D01*
X78716234Y-50076419D01*
X78672317Y-49993029D01*
X78665026Y-49970571D01*
X78700973Y-49940237D01*
X78794383Y-49887010D01*
X78925287Y-49822237D01*
X78929609Y-49820223D01*
X79073296Y-49750160D01*
X79191779Y-49686624D01*
X79256666Y-49645314D01*
X79347174Y-49592178D01*
X79426000Y-49561659D01*
X79514294Y-49529116D01*
X79644813Y-49474438D01*
X79122430Y-49474438D01*
X79079741Y-49497716D01*
X78985050Y-49545679D01*
X78905633Y-49584956D01*
X78781592Y-49651680D01*
X78687086Y-49713080D01*
X78657033Y-49739561D01*
X78604964Y-49785614D01*
X78559813Y-49774783D01*
X78509945Y-49698322D01*
X78462845Y-49593583D01*
X78427920Y-49500851D01*
X77891223Y-49500851D01*
X77846610Y-49557262D01*
X77755299Y-49646185D01*
X77634471Y-49753391D01*
X77501311Y-49864656D01*
X77373002Y-49965752D01*
X77266726Y-50042454D01*
X77199668Y-50080534D01*
X77189047Y-50082195D01*
X77135508Y-50035520D01*
X77095668Y-49938908D01*
X77093606Y-49929516D01*
X77083796Y-49836372D01*
X77080160Y-49703067D01*
X77082043Y-49556414D01*
X77088791Y-49423226D01*
X77099749Y-49330318D01*
X77108868Y-49304182D01*
X77153302Y-49306703D01*
X77255649Y-49326432D01*
X77394370Y-49357955D01*
X77547930Y-49395856D01*
X77694792Y-49434723D01*
X77813418Y-49469141D01*
X77882271Y-49493696D01*
X77891223Y-49500851D01*
X78427920Y-49500851D01*
X78316005Y-49203698D01*
X78224462Y-48859717D01*
X78209574Y-48743151D01*
X77814026Y-48743151D01*
X77776202Y-48775175D01*
X77737289Y-48778666D01*
X77660645Y-48802151D01*
X77545821Y-48862839D01*
X77451539Y-48924244D01*
X77307683Y-49017408D01*
X77202214Y-49068184D01*
X77146164Y-49071860D01*
X77140000Y-49057342D01*
X77158333Y-48999403D01*
X77204018Y-48896038D01*
X77263087Y-48775721D01*
X77321570Y-48666926D01*
X77364992Y-48598750D01*
X77438252Y-48537810D01*
X77527019Y-48535377D01*
X77651591Y-48592102D01*
X77679750Y-48608869D01*
X77780886Y-48684795D01*
X77814026Y-48743151D01*
X78209574Y-48743151D01*
X78184500Y-48546834D01*
X78182176Y-48474985D01*
X78184831Y-48275975D01*
X78200514Y-48156636D01*
X78230982Y-48112725D01*
X78277992Y-48139998D01*
X78306083Y-48175889D01*
X78378279Y-48269490D01*
X78426809Y-48323761D01*
X78467651Y-48377983D01*
X78538542Y-48485097D01*
X78630501Y-48630243D01*
X78734543Y-48798563D01*
X78841686Y-48975195D01*
X78942946Y-49145281D01*
X79029341Y-49293960D01*
X79091886Y-49406373D01*
X79121598Y-49467659D01*
X79122430Y-49474438D01*
X79644813Y-49474438D01*
X79652108Y-49471382D01*
X79812579Y-49399797D01*
X79844932Y-49384859D01*
X80233308Y-49228883D01*
X80598487Y-49136213D01*
X80965620Y-49100645D01*
X80999755Y-49100032D01*
X81207971Y-49106910D01*
X81363119Y-49142069D01*
X81491503Y-49218603D01*
X81619430Y-49349607D01*
X81697342Y-49447298D01*
X81774150Y-49560865D01*
X81810602Y-49664522D01*
X81810641Y-49786900D01*
X82037810Y-49786900D01*
X82032671Y-49668593D01*
X81974732Y-49431492D01*
X81874839Y-49230528D01*
X81816928Y-49158721D01*
X81648775Y-49011480D01*
X81469990Y-48920172D01*
X81258105Y-48877074D01*
X80990654Y-48874462D01*
X80990074Y-48874490D01*
X80606733Y-48917610D01*
X80232178Y-49003934D01*
X79909698Y-49121922D01*
X79777130Y-49178902D01*
X79634422Y-49235040D01*
X79503529Y-49282401D01*
X79406409Y-49313045D01*
X79365019Y-49319035D01*
X79364920Y-49318868D01*
X79340871Y-49280008D01*
X79286035Y-49193753D01*
X79250634Y-49138500D01*
X79159507Y-48993936D01*
X79060175Y-48832567D01*
X79027605Y-48778666D01*
X78948583Y-48654877D01*
X78838660Y-48492749D01*
X78717844Y-48321595D01*
X78680852Y-48270666D01*
X78565974Y-48111700D01*
X78460182Y-47961690D01*
X78380900Y-47845468D01*
X78361509Y-47815583D01*
X78270562Y-47712761D01*
X78166919Y-47683006D01*
X78040550Y-47726548D01*
G04 #@! TD*
M02*
